<?xml version="1.0" encoding="us-ascii" standalone="no"?><svg xmlns="http://www.w3.org/2000/svg" xmlns:xlink="http://www.w3.org/1999/xlink" contentStyleType="text/css" height="773px" preserveAspectRatio="none" style="width:443px;height:773px;background:#FFFFFF;" version="1.1" viewBox="0 0 443 773" width="443px" zoomAndPan="magnify"><defs/><g><!--cluster Sistema de M?rito Estudantil--><g id="cluster_Sistema de M&#233;rito Estudantil"><rect fill="none" height="760" rx="2.5" ry="2.5" style="stroke:#181818;stroke-width:1.0;" width="267.92" x="170" y="7"/><text fill="#000000" font-family="sans-serif" font-size="14" font-weight="bold" lengthAdjust="spacing" textLength="224" x="191.96" y="21.9951">Sistema de M&#233;rito Estudantil</text></g><g id="elem_UC1"><ellipse cx="303.96" cy="337.998" fill="#F1F1F1" rx="68.24" ry="16.048" style="stroke:#181818;stroke-width:0.5;"/><text fill="#000000" font-family="sans-serif" font-size="14" lengthAdjust="spacing" textLength="88" x="256.96" y="341.7456">Cadastrar-se</text></g><g id="elem_UC2"><ellipse cx="303.9566" cy="198.9953" fill="#F1F1F1" rx="65.0766" ry="15.4153" style="stroke:#181818;stroke-width:0.5;"/><text fill="#000000" font-family="sans-serif" font-size="14" lengthAdjust="spacing" textLength="79" x="261.4566" y="202.7429">Fazer Login</text></g><g id="elem_UC3"><ellipse cx="303.9639" cy="129.9968" fill="#F1F1F1" rx="79.7839" ry="18.3568" style="stroke:#181818;stroke-width:0.5;"/><text fill="#000000" font-family="sans-serif" font-size="14" lengthAdjust="spacing" textLength="118" x="243.2156" y="133.4013">Consultar Extrato</text></g><g id="elem_UC4"><ellipse cx="303.9607" cy="268.0021" fill="#F1F1F1" rx="80.6107" ry="18.5221" style="stroke:#181818;stroke-width:0.5;"/><text fill="#000000" font-family="sans-serif" font-size="14" lengthAdjust="spacing" textLength="120" x="242.5226" y="271.3148">Distribuir Moedas</text></g><g id="elem_UC5"><ellipse cx="303.9643" cy="58.9969" fill="#F1F1F1" rx="73.8343" ry="17.1669" style="stroke:#181818;stroke-width:0.5;"/><text fill="#000000" font-family="sans-serif" font-size="14" lengthAdjust="spacing" textLength="103" x="249.4643" y="62.7444">Trocar Moedas</text></g><g id="elem_UC6"><ellipse cx="303.9596" cy="409.9999" fill="#F1F1F1" rx="90.9996" ry="20.5999" style="stroke:#181818;stroke-width:0.5;"/><text fill="#000000" font-family="sans-serif" font-size="14" lengthAdjust="spacing" textLength="144" x="231.9596" y="412.8466">Cadastrar Vantagens</text></g><g id="elem_UC7"><ellipse cx="303.9629" cy="487.0046" fill="#F1F1F1" rx="93.2229" ry="21.0446" style="stroke:#181818;stroke-width:0.5;"/><text fill="#000000" font-family="sans-serif" font-size="14" lengthAdjust="spacing" textLength="149" x="229.4629" y="489.8513">Cadastrar Institui&#231;&#245;es</text></g><g id="elem_UC8"><ellipse cx="303.9576" cy="566.9955" fill="#F1F1F1" rx="106.8276" ry="23.7655" style="stroke:#181818;stroke-width:0.5;"/><text fill="#000000" font-family="sans-serif" font-size="14" lengthAdjust="spacing" textLength="179" x="214.4576" y="569.8422">Pr&#233;-cadastrar Professores</text></g><g id="elem_UC9"><ellipse cx="303.9616" cy="652.0023" fill="#F1F1F1" rx="117.9616" ry="25.9923" style="stroke:#181818;stroke-width:0.5;"/><text fill="#000000" font-family="sans-serif" font-size="14" lengthAdjust="spacing" textLength="203" x="202.4616" y="654.849">Adicionar Moedas Semestrais</text></g><g id="elem_UC10"><ellipse cx="303.9563" cy="731.9953" fill="#F1F1F1" rx="84.4263" ry="19.2853" style="stroke:#181818;stroke-width:0.5;"/><text fill="#000000" font-family="sans-serif" font-size="14" lengthAdjust="spacing" textLength="129" x="239.335" y="734.8839">Enviar Notifica&#231;&#245;es</text></g><!--entity Aluno--><g id="elem_Aluno"><ellipse cx="66" cy="93.35" fill="#F1F1F1" rx="8" ry="8" style="stroke:#181818;stroke-width:0.5;"/><path d="M66,101.35 L66,128.35 M53,109.35 L79,109.35 M66,128.35 L53,143.35 M66,128.35 L79,143.35 " fill="none" style="stroke:#181818;stroke-width:0.5;"/><text fill="#000000" font-family="sans-serif" font-size="14" lengthAdjust="spacing" textLength="39" x="46.5" y="157.8451">Aluno</text></g><!--entity Professor--><g id="elem_Professor"><ellipse cx="66" cy="204.35" fill="#F1F1F1" rx="8" ry="8" style="stroke:#181818;stroke-width:0.5;"/><path d="M66,212.35 L66,239.35 M53,220.35 L79,220.35 M66,239.35 L53,254.35 M66,239.35 L79,254.35 " fill="none" style="stroke:#181818;stroke-width:0.5;"/><text fill="#000000" font-family="sans-serif" font-size="14" lengthAdjust="spacing" textLength="66" x="33" y="268.8451">Professor</text></g><!--entity Empresa--><g id="elem_Empresa"><ellipse cx="66" cy="315.35" fill="#F1F1F1" rx="8" ry="8" style="stroke:#181818;stroke-width:0.5;"/><path d="M66,323.35 L66,350.35 M53,331.35 L79,331.35 M66,350.35 L53,365.35 M66,350.35 L79,365.35 " fill="none" style="stroke:#181818;stroke-width:0.5;"/><text fill="#000000" font-family="sans-serif" font-size="14" lengthAdjust="spacing" textLength="120" x="6" y="379.8451">Empresa Parceira</text></g><!--entity Administrador--><g id="elem_Administrador"><ellipse cx="66" cy="511.35" fill="#F1F1F1" rx="8" ry="8" style="stroke:#181818;stroke-width:0.5;"/><path d="M66,519.35 L66,546.35 M53,527.35 L79,527.35 M66,546.35 L53,561.35 M66,546.35 L79,561.35 " fill="none" style="stroke:#181818;stroke-width:0.5;"/><text fill="#000000" font-family="sans-serif" font-size="14" lengthAdjust="spacing" textLength="95" x="18.5" y="575.8451">Administrador</text></g><!--entity Sistema--><g id="elem_Sistema"><ellipse cx="66" cy="649.35" fill="#F1F1F1" rx="8" ry="8" style="stroke:#181818;stroke-width:0.5;"/><path d="M66,657.35 L66,684.35 M53,665.35 L79,665.35 M66,684.35 L53,699.35 M66,684.35 L79,699.35 " fill="none" style="stroke:#181818;stroke-width:0.5;"/><text fill="#000000" font-family="sans-serif" font-size="14" lengthAdjust="spacing" textLength="55" x="38.5" y="713.8451">Sistema</text></g><!--link Aluno to UC1--><g id="link_Aluno_UC1"><path d="M85.78,136.13 C98.84,146.19 115.69,161.16 126,178 C156.41,227.67 119.97,263.68 162,304 C180.16,321.42 205.64,330.42 229.95,334.92 " fill="none" id="Aluno-to-UC1" style="stroke:#181818;stroke-width:1.0;"/><polygon fill="#181818" points="234.77,335.92,226.5731,330.4601,229.8415,335.0772,225.2245,338.3457,234.77,335.92" style="stroke:#181818;stroke-width:1.0;"/></g><!--link Aluno to UC2--><g id="link_Aluno_UC2"><path d="M85.84,132.85 C104.7,142.4 134.74,156.74 162,166 C189.1,175.21 219.99,182.75 245.93,188.29 " fill="none" id="Aluno-to-UC2" style="stroke:#181818;stroke-width:1.0;"/><polygon fill="#181818" points="250.72,189.52,242.7337,183.7564,245.8266,188.4928,241.0902,191.5858,250.72,189.52" style="stroke:#181818;stroke-width:1.0;"/></g><!--link Aluno to UC3--><g id="link_Aluno_UC3"><path d="M85.91,123.56 C114.55,124.41 170.67,126.08 218.67,127.5 " fill="none" id="Aluno-to-UC3" style="stroke:#181818;stroke-width:1.0;"/><polygon fill="#181818" points="223.48,127.67,214.5979,123.4146,218.482,127.5272,214.3694,131.4113,223.48,127.67" style="stroke:#181818;stroke-width:1.0;"/></g><!--link Aluno to UC5--><g id="link_Aluno_UC5"><path d="M85.84,116.93 C104.95,110.84 135.41,101.35 162,94 C189.23,86.47 219.62,78.83 245.19,72.61 " fill="none" id="Aluno-to-UC5" style="stroke:#181818;stroke-width:1.0;"/><polygon fill="#181818" points="249.91,71.23,240.223,69.4516,245.0494,72.4023,242.0987,77.2286,249.91,71.23" style="stroke:#181818;stroke-width:1.0;"/></g><!--link Professor to UC2--><g id="link_Professor_UC2"><path d="M99.31,229.21 C135.99,223.77 196.63,214.77 242.22,208.01 " fill="none" id="Professor-to-UC2" style="stroke:#181818;stroke-width:1.0;"/><polygon fill="#181818" points="246.98,207.16,237.4929,204.5152,242.0334,207.8891,238.6595,212.4297,246.98,207.16" style="stroke:#181818;stroke-width:1.0;"/></g><!--link Professor to UC3--><g id="link_Professor_UC3"><path d="M99.4,206.19 C116.94,192.38 139.57,176.44 162,166 C184.37,155.59 210.18,147.88 233.56,142.33 " fill="none" id="Professor-to-UC3" style="stroke:#181818;stroke-width:1.0;"/><polygon fill="#181818" points="238.14,141.04,228.4694,139.1745,233.269,142.1685,230.275,146.968,238.14,141.04" style="stroke:#181818;stroke-width:1.0;"/></g><!--link Professor to UC4--><g id="link_Professor_UC4"><path d="M99.31,238.66 C132.53,243.44 185.41,251.06 228.96,257.34 " fill="none" id="Professor-to-UC4" style="stroke:#181818;stroke-width:1.0;"/><polygon fill="#181818" points="233.76,258.17,225.4246,252.9239,228.8114,257.4549,224.2804,260.8417,233.76,258.17" style="stroke:#181818;stroke-width:1.0;"/></g><!--link Empresa to UC1--><g id="link_Empresa_UC1"><path d="M126.24,343.24 C157.73,342.31 196.71,341.15 230.05,340.16 " fill="none" id="Empresa-to-UC1" style="stroke:#181818;stroke-width:1.0;"/><polygon fill="#181818" points="234.77,339.99,225.6488,336.2747,229.7725,340.1471,225.9001,344.2707,234.77,339.99" style="stroke:#181818;stroke-width:1.0;"/></g><!--link Empresa to UC2--><g id="link_Empresa_UC2"><path d="M110.88,306.6 C116.2,301.23 121.38,295.63 126,290 C145.27,266.56 137.35,249.69 162,232 C183.08,216.87 210.07,208.58 234.79,204.06 " fill="none" id="Empresa-to-UC2" style="stroke:#181818;stroke-width:1.0;"/><polygon fill="#181818" points="239.69,203.05,230.1377,200.6512,234.7639,203.9067,231.5085,208.5329,239.69,203.05" style="stroke:#181818;stroke-width:1.0;"/></g><!--link Empresa to UC6--><g id="link_Empresa_UC6"><path d="M126.26,361.98 C138.09,365.33 150.43,368.8 162,372 C186.76,378.86 214.02,386.24 237.91,392.66 " fill="none" id="Empresa-to-UC6" style="stroke:#181818;stroke-width:1.0;"/><polygon fill="#181818" points="242.59,394.19,234.9394,387.9878,237.7619,392.8901,232.8596,395.7127,242.59,394.19" style="stroke:#181818;stroke-width:1.0;"/></g><!--link Administrador to UC7--><g id="link_Administrador_UC7"><path d="M113.9,530.27 C147.59,522.56 193.61,512.03 231.81,503.28 " fill="none" id="Administrador-to-UC7" style="stroke:#181818;stroke-width:1.0;"/><polygon fill="#181818" points="236.39,502.01,226.7247,500.1175,231.5159,503.1249,228.5085,507.9161,236.39,502.01" style="stroke:#181818;stroke-width:1.0;"/></g><!--link Administrador to UC8--><g id="link_Administrador_UC8"><path d="M113.9,546.17 C139.08,548.94 171.14,552.48 201.68,555.84 " fill="none" id="Administrador-to-UC8" style="stroke:#181818;stroke-width:1.0;"/><polygon fill="#181818" points="206.37,556.47,197.8574,551.5167,201.3995,555.9272,196.989,559.4694,206.37,556.47" style="stroke:#181818;stroke-width:1.0;"/></g><!--link Sistema to UC9--><g id="link_Sistema_UC9"><path d="M93.61,675.96 C117.98,673.17 155.75,668.85 192.53,664.64 " fill="none" id="Sistema-to-UC9" style="stroke:#181818;stroke-width:1.0;"/><polygon fill="#181818" points="197.43,663.96,188.0321,661.0139,192.4627,664.531,188.9456,668.9616,197.43,663.96" style="stroke:#181818;stroke-width:1.0;"/></g><!--link Sistema to UC10--><g id="link_Sistema_UC10"><path d="M93.61,684.98 C128.12,692.73 189.52,706.52 236.93,717.17 " fill="none" id="Sistema-to-UC10" style="stroke:#181818;stroke-width:1.0;"/><polygon fill="#181818" points="241.64,718.45,233.7257,712.588,236.7597,717.3623,231.9854,720.3964,241.64,718.45" style="stroke:#181818;stroke-width:1.0;"/></g><!--SRC=[RPBTIiGm48NlynH3xmlx_tCZB6i5mPM5LU_7D5i7saGcgOZYyyW-W4_G5pDTqzBMlSiv-IPpaaokZWwS0QRinK5AhAGZemLAPnWsUQbDME_P79MrXeEEakALbKNO8qj5Z16WXM0szMb1cgnZJDkwWzUgG27gLgYpN44KF4WLxAeJam-KM5Ucg1tb4NmAWD8gYTQpMqonFf5Zgyuj7xVZxluDVYY6EvEH3jkJNhdHjimTCYJl_XHd0ZJjGjTrPdekYM5dbEyNe5aNUc0ZSG3CBoQ59tyHp9HkiCLbx5PRHwwawhlwKGsxxB9xhawnR0lQFsdfLPVUf2JzPxOXuQ0ALLTIWw-xUABVoBFtnj6H9FPIZ4VYIuZpF40SNvqVlQicFJNjgRaGRT0M7phJVyvCY6R4cevzFHdeXG_O7RXWBo-wAo6QgViprWCz7lq2]--></g></svg>