<svg xmlns="http://www.w3.org/2000/svg" xmlns:xlink="http://www.w3.org/1999/xlink" contentStyleType="text/css" height="780px" preserveAspectRatio="none" style="width:450px;height:780px;background:#FFFFFF;" version="1.1" viewBox="0 0 450 780" width="450px" zoomAndPan="magnify"><defs/><g><!--cluster Sistema de M?rito Estudantil--><g id="cluster_Sistema de M&#233;rito Estudantil"><rect fill="none" height="767" rx="2.5" ry="2.5" style="stroke:#181818;stroke-width:1.0;" width="271" x="173" y="7"/><text fill="#000000" font-family="sans-serif" font-size="14" font-weight="bold" lengthAdjust="spacing" textLength="229.2979" x="193.8511" y="21.9951">Sistema de M&#233;rito Estudantil</text></g><g id="elem_UC1"><ellipse cx="308.338" cy="339.1676" fill="#F1F1F1" rx="68.838" ry="16.1676" style="stroke:#181818;stroke-width:0.5;"/><text fill="#000000" font-family="sans-serif" font-size="14" lengthAdjust="spacing" textLength="89.6533" x="260.5113" y="342.9152">Cadastrar-se</text></g><g id="elem_UC2"><ellipse cx="308.7012" cy="199.0402" fill="#F1F1F1" rx="65.7012" ry="15.5402" style="stroke:#181818;stroke-width:0.5;"/><text fill="#000000" font-family="sans-serif" font-size="14" lengthAdjust="spacing" textLength="80.8145" x="265.294" y="202.7878">Fazer Login</text></g><g id="elem_UC3"><ellipse cx="308.6784" cy="130.2357" fill="#F1F1F1" rx="81.6784" ry="18.7357" style="stroke:#181818;stroke-width:0.5;"/><text fill="#000000" font-family="sans-serif" font-size="14" lengthAdjust="spacing" textLength="122.5547" x="246.3495" y="133.4296">Consultar Extrato</text></g><g id="elem_UC4"><ellipse cx="308.3539" cy="268.7708" fill="#F1F1F1" rx="81.8539" ry="18.7708" style="stroke:#181818;stroke-width:0.5;"/><text fill="#000000" font-family="sans-serif" font-size="14" lengthAdjust="spacing" textLength="122.9717" x="245.8785" y="271.9452">Distribuir Moedas</text></g><g id="elem_UC5"><ellipse cx="308.4779" cy="59.1956" fill="#F1F1F1" rx="73.9779" ry="17.1956" style="stroke:#181818;stroke-width:0.5;"/><text fill="#000000" font-family="sans-serif" font-size="14" lengthAdjust="spacing" textLength="103.373" x="253.7914" y="62.9431">Trocar Moedas</text></g><g id="elem_UC6"><ellipse cx="308.7366" cy="410.9473" fill="#F1F1F1" rx="92.7366" ry="20.9473" style="stroke:#181818;stroke-width:0.5;"/><text fill="#000000" font-family="sans-serif" font-size="14" lengthAdjust="spacing" textLength="147.9092" x="234.782" y="413.794">Cadastrar Vantagens</text></g><g id="elem_UC7"><ellipse cx="308.62" cy="488.924" fill="#F1F1F1" rx="95.12" ry="21.424" style="stroke:#181818;stroke-width:0.5;"/><text fill="#000000" font-family="sans-serif" font-size="14" lengthAdjust="spacing" textLength="153.2412" x="231.9994" y="491.7707">Cadastrar Institui&#231;&#245;es</text></g><g id="elem_UC8"><ellipse cx="308.3115" cy="569.8623" fill="#F1F1F1" rx="107.3115" ry="23.8623" style="stroke:#181818;stroke-width:0.5;"/><text fill="#000000" font-family="sans-serif" font-size="14" lengthAdjust="spacing" textLength="180.0518" x="218.2857" y="572.709">Pr&#233;-cadastrar Professores</text></g><g id="elem_UC9"><ellipse cx="308.6862" cy="655.8372" fill="#F1F1F1" rx="119.6862" ry="26.3372" style="stroke:#181818;stroke-width:0.5;"/><text fill="#000000" font-family="sans-serif" font-size="14" lengthAdjust="spacing" textLength="206.6846" x="205.3439" y="658.6839">Adicionar Moedas Semestrais</text></g><g id="elem_UC10"><ellipse cx="308.2572" cy="737.7514" fill="#F1F1F1" rx="86.7572" ry="19.7514" style="stroke:#181818;stroke-width:0.5;"/><text fill="#000000" font-family="sans-serif" font-size="14" lengthAdjust="spacing" textLength="134.3604" x="241.077" y="740.5981">Enviar Notifica&#231;&#245;es</text></g><!--entity Aluno--><g id="elem_Aluno"><ellipse cx="67.3892" cy="94.5" fill="#F1F1F1" rx="8" ry="8" style="stroke:#181818;stroke-width:0.5;"/><path d="M67.3892,102.5 L67.3892,129.5 M54.3892,110.5 L80.3892,110.5 M67.3892,129.5 L54.3892,144.5 M67.3892,129.5 L80.3892,144.5 " fill="none" style="stroke:#181818;stroke-width:0.5;"/><text fill="#000000" font-family="sans-serif" font-size="14" lengthAdjust="spacing" textLength="39.7783" x="47.5" y="158.9951">Aluno</text></g><!--entity Professor--><g id="elem_Professor"><ellipse cx="67.6074" cy="205.5" fill="#F1F1F1" rx="8" ry="8" style="stroke:#181818;stroke-width:0.5;"/><path d="M67.6074,213.5 L67.6074,240.5 M54.6074,221.5 L80.6074,221.5 M67.6074,240.5 L54.6074,255.5 M67.6074,240.5 L80.6074,255.5 " fill="none" style="stroke:#181818;stroke-width:0.5;"/><text fill="#000000" font-family="sans-serif" font-size="14" lengthAdjust="spacing" textLength="65.2148" x="35" y="269.9951">Professor</text></g><!--entity Empresa--><g id="elem_Empresa"><ellipse cx="67.6875" cy="316.5" fill="#F1F1F1" rx="8" ry="8" style="stroke:#181818;stroke-width:0.5;"/><path d="M67.6875,324.5 L67.6875,351.5 M54.6875,332.5 L80.6875,332.5 M67.6875,351.5 L54.6875,366.5 M67.6875,351.5 L80.6875,366.5 " fill="none" style="stroke:#181818;stroke-width:0.5;"/><text fill="#000000" font-family="sans-serif" font-size="14" lengthAdjust="spacing" textLength="123.375" x="6" y="380.9951">Empresa Parceira</text></g><!--entity Administrador--><g id="elem_Administrador"><ellipse cx="67.54" cy="514.5" fill="#F1F1F1" rx="8" ry="8" style="stroke:#181818;stroke-width:0.5;"/><path d="M67.54,522.5 L67.54,549.5 M54.54,530.5 L80.54,530.5 M67.54,549.5 L54.54,564.5 M67.54,549.5 L80.54,564.5 " fill="none" style="stroke:#181818;stroke-width:0.5;"/><text fill="#000000" font-family="sans-serif" font-size="14" lengthAdjust="spacing" textLength="99.0801" x="18" y="578.9951">Administrador</text></g><!--entity Sistema--><g id="elem_Sistema"><ellipse cx="67.6948" cy="653.5" fill="#F1F1F1" rx="8" ry="8" style="stroke:#181818;stroke-width:0.5;"/><path d="M67.6948,661.5 L67.6948,688.5 M54.6948,669.5 L80.6948,669.5 M67.6948,688.5 L54.6948,703.5 M67.6948,688.5 L80.6948,703.5 " fill="none" style="stroke:#181818;stroke-width:0.5;"/><text fill="#000000" font-family="sans-serif" font-size="14" lengthAdjust="spacing" textLength="56.3896" x="39.5" y="717.9951">Sistema</text></g><!--link Aluno to UC1--><g id="link_Aluno_UC1"><path d="M87.77,137.03 C101.16,147.04 118.44,162 129,179 C159.72,228.48 122.92,264.74 165,305 C184.94,324.08 207.6398,332.1773 234.0198,336.2373 " fill="none" id="Aluno-to-UC1" style="stroke:#181818;stroke-width:1.0;"/><polygon fill="#181818" points="239.95,337.15,231.6632,331.8275,235.0082,336.3894,230.4463,339.7344,239.95,337.15" style="stroke:#181818;stroke-width:1.0;"/></g><!--link Aluno to UC2--><g id="link_Aluno_UC2"><path d="M87.68,133.6 C106.87,142.89 137.41,156.89 165,166 C194.78,175.84 223.1146,182.6438 250.5546,188.3238 " fill="none" id="Aluno-to-UC2" style="stroke:#181818;stroke-width:1.0;"/><polygon fill="#181818" points="256.43,189.54,248.4276,183.7987,251.5338,188.5265,246.806,191.6327,256.43,189.54" style="stroke:#181818;stroke-width:1.0;"/></g><!--link Aluno to UC3--><g id="link_Aluno_UC3"><path d="M87.65,124.48 C117.73,125.24 171.7319,126.5892 221.4519,127.8392 " fill="none" id="Aluno-to-UC3" style="stroke:#181818;stroke-width:1.0;"/><polygon fill="#181818" points="227.45,127.99,218.5534,123.7651,222.4516,127.8643,218.3523,131.7625,227.45,127.99" style="stroke:#181818;stroke-width:1.0;"/></g><!--link Aluno to UC5--><g id="link_Aluno_UC5"><path d="M87.62,117.68 C107.02,111.36 137.95,101.52 165,94 C194.82,85.71 222.5927,78.7977 249.6827,72.3577 " fill="none" id="Aluno-to-UC5" style="stroke:#181818;stroke-width:1.0;"/><polygon fill="#181818" points="255.52,70.97,245.8389,69.16,250.6556,72.1264,247.6891,76.9431,255.52,70.97" style="stroke:#181818;stroke-width:1.0;"/></g><!--link Professor to UC2--><g id="link_Professor_UC2"><path d="M100.24,230.22 C139.09,224.37 199.607,215.2543 246.777,208.1443 " fill="none" id="Professor-to-UC2" style="stroke:#181818;stroke-width:1.0;"/><polygon fill="#181818" points="252.71,207.25,243.2143,204.6361,247.7658,207.9952,244.4067,212.5467,252.71,207.25" style="stroke:#181818;stroke-width:1.0;"/></g><!--link Professor to UC3--><g id="link_Professor_UC3"><path d="M100.1,207.79 C118.09,193.53 141.64,176.83 165,166 C189.31,154.73 211.7959,147.9652 236.7659,142.3552 " fill="none" id="Professor-to-UC3" style="stroke:#181818;stroke-width:1.0;"/><polygon fill="#181818" points="242.62,141.04,232.9621,139.1101,237.7416,142.136,234.7157,146.9156,242.62,141.04" style="stroke:#181818;stroke-width:1.0;"/></g><!--link Professor to UC4--><g id="link_Professor_UC4"><path d="M100.24,239.51 C135.28,244.5 186.8298,251.8351 232.3898,258.3151 " fill="none" id="Professor-to-UC4" style="stroke:#181818;stroke-width:1.0;"/><polygon fill="#181818" points="238.33,259.16,229.9829,253.9325,233.3798,258.4559,228.8564,261.8528,238.33,259.16" style="stroke:#181818;stroke-width:1.0;"/></g><!--link Empresa to UC1--><g id="link_Empresa_UC1"><path d="M129.12,344.22 C162.86,343.24 198.9626,342.1757 233.7826,341.1557 " fill="none" id="Empresa-to-UC1" style="stroke:#181818;stroke-width:1.0;"/><polygon fill="#181818" points="239.78,340.98,230.6667,337.2452,234.7821,341.1264,230.901,345.2418,239.78,340.98" style="stroke:#181818;stroke-width:1.0;"/></g><!--link Empresa to UC2--><g id="link_Empresa_UC2"><path d="M112.56,307.87 C118.34,302.12 123.99,296.07 129,290 C148.31,266.6 140.33,249.66 165,232 C188.12,215.44 212.363,207.9829 238.983,203.7929 " fill="none" id="Empresa-to-UC2" style="stroke:#181818;stroke-width:1.0;"/><polygon fill="#181818" points="244.91,202.86,235.3975,200.308,239.9708,203.6374,236.6414,208.2107,244.91,202.86" style="stroke:#181818;stroke-width:1.0;"/></g><!--link Empresa to UC6--><g id="link_Empresa_UC6"><path d="M129.12,362.49 C165.77,372.45 206.4702,383.5259 242.8102,393.4059 " fill="none" id="Empresa-to-UC6" style="stroke:#181818;stroke-width:1.0;"/><polygon fill="#181818" points="248.6,394.98,240.9647,388.7589,243.7751,393.6682,238.8658,396.4787,248.6,394.98" style="stroke:#181818;stroke-width:1.0;"/></g><!--link Administrador to UC7--><g id="link_Administrador_UC7"><path d="M117.15,532.8 C152.91,524.57 196.0728,514.6455 235.4028,505.5955 " fill="none" id="Administrador-to-UC7" style="stroke:#181818;stroke-width:1.0;"/><polygon fill="#181818" points="241.25,504.25,231.5822,502.3701,236.3773,505.3712,233.3762,510.1663,241.25,504.25" style="stroke:#181818;stroke-width:1.0;"/></g><!--link Administrador to UC8--><g id="link_Administrador_UC8"><path d="M117.15,549.29 C144.31,552.25 173.1553,555.3801 205.5553,558.9101 " fill="none" id="Administrador-to-UC8" style="stroke:#181818;stroke-width:1.0;"/><polygon fill="#181818" points="211.52,559.56,203.0062,554.6087,206.5494,559.0185,202.1397,562.5617,211.52,559.56" style="stroke:#181818;stroke-width:1.0;"/></g><!--link Sistema to UC9--><g id="link_Sistema_UC9"><path d="M95.92,679.9 C121.97,676.96 156.8878,673.0128 195.7878,668.6228 " fill="none" id="Sistema-to-UC9" style="stroke:#181818;stroke-width:1.0;"/><polygon fill="#181818" points="201.75,667.95,192.3582,664.9845,196.7815,668.5107,193.2553,672.934,201.75,667.95" style="stroke:#181818;stroke-width:1.0;"/></g><!--link Sistema to UC10--><g id="link_Sistema_UC10"><path d="M95.92,689.31 C132.33,697.69 191.853,711.3838 240.323,722.5438 " fill="none" id="Sistema-to-UC10" style="stroke:#181818;stroke-width:1.0;"/><polygon fill="#181818" points="246.17,723.89,238.297,717.9726,241.2975,722.7681,236.502,725.7686,246.17,723.89" style="stroke:#181818;stroke-width:1.0;"/></g><!--SRC=[RPBTIiGm48NlynH3xmlx_tCZB6i5mPM5LU_7D5i7saGcgOZYyyW-W4_G5pDTqzBMlSiv-IPpaaokZWwS0QRinK5AhAGZemLAPnWsUQbDME_P79MrXeEEakALbKNO8qj5Z16WXM0szMb1cgnZJDkwWzUgG27gLgYpN44KF4WLxAeJam-KM5Ucg1tb4NmAWD8gYTQpMqonFf5Zgyuj7xVZxluDVYY6EvEH3jkJNhdHjimTCYJl_XHd0ZJjGjTrPdekYM5dbEyNe5aNUc0ZSG3CBoQ59tyHp9HkiCLbx5PRHwwawhlwKGsxxB9xhawnR0lQFsdfLPVUf2JzPxOXuQ0ALLTIWw-xUABVoBFtnj6H9FPIZ4VYIuZpF40SNvqVlQicFJNjgRaGRT0M7phJVyvCY6R4cevzFHdeXG_O7RXWBo-wAo6QgViprWCz7lq2]--></g></svg>