<svg xmlns="http://www.w3.org/2000/svg" xmlns:xlink="http://www.w3.org/1999/xlink" contentStyleType="text/css" height="572px" preserveAspectRatio="none" style="width:623px;height:572px;background:#FFFFFF;" version="1.1" viewBox="0 0 623 572" width="623px" zoomAndPan="magnify"><defs/><g><!--class Usuario--><g id="elem_Usuario"><rect codeLine="1" fill="#F1F1F1" height="129.4844" id="Usuario" rx="2.5" ry="2.5" style="stroke:#181818;stroke-width:0.5;" width="119.1807" x="235.5" y="7"/><ellipse cx="265.7895" cy="23" fill="#ADD1B2" rx="11" ry="11" style="stroke:#181818;stroke-width:1.0;"/><path d="M268.7582,28.6406 Q268.1801,28.9375 267.5395,29.0781 Q266.8988,29.2344 266.1957,29.2344 Q263.6957,29.2344 262.3676,27.5938 Q261.0551,25.9375 261.0551,22.8125 Q261.0551,19.6875 262.3676,18.0313 Q263.6957,16.375 266.1957,16.375 Q266.8988,16.375 267.5395,16.5313 Q268.1957,16.6875 268.7582,16.9844 L268.7582,19.7031 Q268.1332,19.125 267.5395,18.8594 Q266.9457,18.5781 266.3207,18.5781 Q264.977,18.5781 264.2895,19.6563 Q263.602,20.7188 263.602,22.8125 Q263.602,24.9063 264.2895,25.9844 Q264.977,27.0469 266.3207,27.0469 Q266.9457,27.0469 267.5395,26.7813 Q268.1332,26.5 268.7582,25.9219 L268.7582,28.6406 Z " fill="#000000"/><text fill="#000000" font-family="sans-serif" font-size="14" lengthAdjust="spacing" textLength="53.2041" x="283.1871" y="27.8467">Usuario</text><line style="stroke:#181818;stroke-width:0.5;" x1="236.5" x2="353.6807" y1="39" y2="39"/><rect fill="none" height="6" style="stroke:#C82930;stroke-width:1.0;" width="6" x="243.5" y="49.6484"/><text fill="#000000" font-family="sans-serif" font-size="14" lengthAdjust="spacing" textLength="40.1953" x="255.5" y="55.9951">id: int</text><rect fill="none" height="6" style="stroke:#C82930;stroke-width:1.0;" width="6" x="243.5" y="65.9453"/><text fill="#000000" font-family="sans-serif" font-size="14" lengthAdjust="spacing" textLength="90.6377" x="255.5" y="72.292">nome: String</text><rect fill="none" height="6" style="stroke:#C82930;stroke-width:1.0;" width="6" x="243.5" y="82.2422"/><text fill="#000000" font-family="sans-serif" font-size="14" lengthAdjust="spacing" textLength="89.5576" x="255.5" y="88.5889">email: String</text><rect fill="none" height="6" style="stroke:#C82930;stroke-width:1.0;" width="6" x="243.5" y="98.5391"/><text fill="#000000" font-family="sans-serif" font-size="14" lengthAdjust="spacing" textLength="93.1807" x="255.5" y="104.8857">senha: String</text><line style="stroke:#181818;stroke-width:0.5;" x1="236.5" x2="353.6807" y1="112.1875" y2="112.1875"/><ellipse cx="246.5" cy="125.8359" fill="#84BE84" rx="3" ry="3" style="stroke:#038048;stroke-width:1.0;"/><text fill="#000000" font-family="sans-serif" font-size="14" lengthAdjust="spacing" textLength="84.1641" x="255.5" y="129.1826">fazerLogin()</text></g><!--class Aluno--><g id="elem_Aluno"><rect codeLine="9" fill="#F1F1F1" height="178.375" id="Aluno" rx="2.5" ry="2.5" style="stroke:#181818;stroke-width:0.5;" width="152.9502" x="218.5" y="197"/><ellipse cx="270.8359" cy="213" fill="#ADD1B2" rx="11" ry="11" style="stroke:#181818;stroke-width:1.0;"/><path d="M273.8047,218.6406 Q273.2266,218.9375 272.5859,219.0781 Q271.9453,219.2344 271.2422,219.2344 Q268.7422,219.2344 267.4141,217.5938 Q266.1016,215.9375 266.1016,212.8125 Q266.1016,209.6875 267.4141,208.0313 Q268.7422,206.375 271.2422,206.375 Q271.9453,206.375 272.5859,206.5313 Q273.2422,206.6875 273.8047,206.9844 L273.8047,209.7031 Q273.1797,209.125 272.5859,208.8594 Q271.9922,208.5781 271.3672,208.5781 Q270.0234,208.5781 269.3359,209.6563 Q268.6484,210.7188 268.6484,212.8125 Q268.6484,214.9063 269.3359,215.9844 Q270.0234,217.0469 271.3672,217.0469 Q271.9922,217.0469 272.5859,216.7813 Q273.1797,216.5 273.8047,215.9219 L273.8047,218.6406 Z " fill="#000000"/><text fill="#000000" font-family="sans-serif" font-size="14" lengthAdjust="spacing" textLength="39.7783" x="291.3359" y="217.8467">Aluno</text><line style="stroke:#181818;stroke-width:0.5;" x1="219.5" x2="370.4502" y1="229" y2="229"/><rect fill="none" height="6" style="stroke:#C82930;stroke-width:1.0;" width="6" x="226.5" y="239.6484"/><text fill="#000000" font-family="sans-serif" font-size="14" lengthAdjust="spacing" textLength="72.4609" x="238.5" y="245.9951">cpf: String</text><rect fill="none" height="6" style="stroke:#C82930;stroke-width:1.0;" width="6" x="226.5" y="255.9453"/><text fill="#000000" font-family="sans-serif" font-size="14" lengthAdjust="spacing" textLength="65.5908" x="238.5" y="262.292">rg: String</text><rect fill="none" height="6" style="stroke:#C82930;stroke-width:1.0;" width="6" x="226.5" y="272.2422"/><text fill="#000000" font-family="sans-serif" font-size="14" lengthAdjust="spacing" textLength="116.5664" x="238.5" y="278.5889">endereco: String</text><rect fill="none" height="6" style="stroke:#C82930;stroke-width:1.0;" width="6" x="226.5" y="288.5391"/><text fill="#000000" font-family="sans-serif" font-size="14" lengthAdjust="spacing" textLength="89.1338" x="238.5" y="294.8857">curso: String</text><rect fill="none" height="6" style="stroke:#C82930;stroke-width:1.0;" width="6" x="226.5" y="304.8359"/><text fill="#000000" font-family="sans-serif" font-size="14" lengthAdjust="spacing" textLength="118.6514" x="238.5" y="311.1826">saldoMoedas: int</text><line style="stroke:#181818;stroke-width:0.5;" x1="219.5" x2="370.4502" y1="318.4844" y2="318.4844"/><ellipse cx="229.5" cy="332.1328" fill="#84BE84" rx="3" ry="3" style="stroke:#038048;stroke-width:1.0;"/><text fill="#000000" font-family="sans-serif" font-size="14" lengthAdjust="spacing" textLength="77.54" x="238.5" y="335.4795">cadastrar()</text><ellipse cx="229.5" cy="348.4297" fill="#84BE84" rx="3" ry="3" style="stroke:#038048;stroke-width:1.0;"/><text fill="#000000" font-family="sans-serif" font-size="14" lengthAdjust="spacing" textLength="126.9502" x="238.5" y="351.7764">consultarExtrato()</text><ellipse cx="229.5" cy="364.7266" fill="#84BE84" rx="3" ry="3" style="stroke:#038048;stroke-width:1.0;"/><text fill="#000000" font-family="sans-serif" font-size="14" lengthAdjust="spacing" textLength="106.7842" x="238.5" y="368.0732">trocarMoedas()</text></g><!--class Professor--><g id="elem_Professor"><rect codeLine="20" fill="#F1F1F1" height="129.4844" id="Professor" rx="2.5" ry="2.5" style="stroke:#181818;stroke-width:0.5;" width="176.917" x="406.5" y="221.5"/><ellipse cx="458.1011" cy="237.5" fill="#ADD1B2" rx="11" ry="11" style="stroke:#181818;stroke-width:1.0;"/><path d="M461.0698,243.1406 Q460.4917,243.4375 459.8511,243.5781 Q459.2104,243.7344 458.5073,243.7344 Q456.0073,243.7344 454.6792,242.0938 Q453.3667,240.4375 453.3667,237.3125 Q453.3667,234.1875 454.6792,232.5313 Q456.0073,230.875 458.5073,230.875 Q459.2104,230.875 459.8511,231.0313 Q460.5073,231.1875 461.0698,231.4844 L461.0698,234.2031 Q460.4448,233.625 459.8511,233.3594 Q459.2573,233.0781 458.6323,233.0781 Q457.2886,233.0781 456.6011,234.1563 Q455.9136,235.2188 455.9136,237.3125 Q455.9136,239.4063 456.6011,240.4844 Q457.2886,241.5469 458.6323,241.5469 Q459.2573,241.5469 459.8511,241.2813 Q460.4448,241 461.0698,240.4219 L461.0698,243.1406 Z " fill="#000000"/><text fill="#000000" font-family="sans-serif" font-size="14" lengthAdjust="spacing" textLength="65.2148" x="478.6011" y="242.3467">Professor</text><line style="stroke:#181818;stroke-width:0.5;" x1="407.5" x2="582.417" y1="253.5" y2="253.5"/><rect fill="none" height="6" style="stroke:#C82930;stroke-width:1.0;" width="6" x="414.5" y="264.1484"/><text fill="#000000" font-family="sans-serif" font-size="14" lengthAdjust="spacing" textLength="72.4609" x="426.5" y="270.4951">cpf: String</text><rect fill="none" height="6" style="stroke:#C82930;stroke-width:1.0;" width="6" x="414.5" y="280.4453"/><text fill="#000000" font-family="sans-serif" font-size="14" lengthAdjust="spacing" textLength="150.917" x="426.5" y="286.792">departamento: String</text><rect fill="none" height="6" style="stroke:#C82930;stroke-width:1.0;" width="6" x="414.5" y="296.7422"/><text fill="#000000" font-family="sans-serif" font-size="14" lengthAdjust="spacing" textLength="118.6514" x="426.5" y="303.0889">saldoMoedas: int</text><line style="stroke:#181818;stroke-width:0.5;" x1="407.5" x2="582.417" y1="310.3906" y2="310.3906"/><ellipse cx="417.5" cy="324.0391" fill="#84BE84" rx="3" ry="3" style="stroke:#038048;stroke-width:1.0;"/><text fill="#000000" font-family="sans-serif" font-size="14" lengthAdjust="spacing" textLength="127.5518" x="426.5" y="327.3857">distribuirMoedas()</text><ellipse cx="417.5" cy="340.3359" fill="#84BE84" rx="3" ry="3" style="stroke:#038048;stroke-width:1.0;"/><text fill="#000000" font-family="sans-serif" font-size="14" lengthAdjust="spacing" textLength="126.9502" x="426.5" y="343.6826">consultarExtrato()</text></g><!--class EmpresaParceira--><g id="elem_EmpresaParceira"><rect codeLine="28" fill="#F1F1F1" height="96.8906" id="EmpresaParceira" rx="2.5" ry="2.5" style="stroke:#181818;stroke-width:0.5;" width="175.7754" x="7" y="237.5"/><ellipse cx="33.1828" cy="253.5" fill="#ADD1B2" rx="11" ry="11" style="stroke:#181818;stroke-width:1.0;"/><path d="M36.1515,259.1406 Q35.5734,259.4375 34.9328,259.5781 Q34.2921,259.7344 33.589,259.7344 Q31.089,259.7344 29.7609,258.0938 Q28.4484,256.4375 28.4484,253.3125 Q28.4484,250.1875 29.7609,248.5313 Q31.089,246.875 33.589,246.875 Q34.2921,246.875 34.9328,247.0313 Q35.589,247.1875 36.1515,247.4844 L36.1515,250.2031 Q35.5265,249.625 34.9328,249.3594 Q34.339,249.0781 33.714,249.0781 Q32.3703,249.0781 31.6828,250.1563 Q30.9953,251.2188 30.9953,253.3125 Q30.9953,255.4063 31.6828,256.4844 Q32.3703,257.5469 33.714,257.5469 Q34.339,257.5469 34.9328,257.2813 Q35.5265,257 36.1515,256.4219 L36.1515,259.1406 Z " fill="#000000"/><text fill="#000000" font-family="sans-serif" font-size="14" lengthAdjust="spacing" textLength="118.9248" x="49.6678" y="258.3467">EmpresaParceira</text><line style="stroke:#181818;stroke-width:0.5;" x1="8" x2="181.7754" y1="269.5" y2="269.5"/><rect fill="none" height="6" style="stroke:#C82930;stroke-width:1.0;" width="6" x="15" y="280.1484"/><text fill="#000000" font-family="sans-serif" font-size="14" lengthAdjust="spacing" textLength="80.2949" x="27" y="286.4951">cnpj: String</text><line style="stroke:#181818;stroke-width:0.5;" x1="8" x2="181.7754" y1="293.7969" y2="293.7969"/><ellipse cx="18" cy="307.4453" fill="#84BE84" rx="3" ry="3" style="stroke:#038048;stroke-width:1.0;"/><text fill="#000000" font-family="sans-serif" font-size="14" lengthAdjust="spacing" textLength="77.54" x="27" y="310.792">cadastrar()</text><ellipse cx="18" cy="323.7422" fill="#84BE84" rx="3" ry="3" style="stroke:#038048;stroke-width:1.0;"/><text fill="#000000" font-family="sans-serif" font-size="14" lengthAdjust="spacing" textLength="149.7754" x="27" y="327.0889">cadastrarVantagem()</text></g><!--class InstituicaoEnsino--><g id="elem_InstituicaoEnsino"><rect codeLine="34" fill="#F1F1F1" height="80.5938" id="InstituicaoEnsino" rx="2.5" ry="2.5" style="stroke:#181818;stroke-width:0.5;" width="151.1094" x="465.5" y="468"/><ellipse cx="480.5" cy="484" fill="#ADD1B2" rx="11" ry="11" style="stroke:#181818;stroke-width:1.0;"/><path d="M483.4688,489.6406 Q482.8906,489.9375 482.25,490.0781 Q481.6094,490.2344 480.9063,490.2344 Q478.4063,490.2344 477.0781,488.5938 Q475.7656,486.9375 475.7656,483.8125 Q475.7656,480.6875 477.0781,479.0313 Q478.4063,477.375 480.9063,477.375 Q481.6094,477.375 482.25,477.5313 Q482.9063,477.6875 483.4688,477.9844 L483.4688,480.7031 Q482.8438,480.125 482.25,479.8594 Q481.6563,479.5781 481.0313,479.5781 Q479.6875,479.5781 479,480.6563 Q478.3125,481.7188 478.3125,483.8125 Q478.3125,485.9063 479,486.9844 Q479.6875,488.0469 481.0313,488.0469 Q481.6563,488.0469 482.25,487.7813 Q482.8438,487.5 483.4688,486.9219 L483.4688,489.6406 Z " fill="#000000"/><text fill="#000000" font-family="sans-serif" font-size="14" lengthAdjust="spacing" textLength="119.1094" x="494.5" y="488.8467">InstituicaoEnsino</text><line style="stroke:#181818;stroke-width:0.5;" x1="466.5" x2="615.6094" y1="500" y2="500"/><rect fill="none" height="6" style="stroke:#C82930;stroke-width:1.0;" width="6" x="473.5" y="510.6484"/><text fill="#000000" font-family="sans-serif" font-size="14" lengthAdjust="spacing" textLength="40.1953" x="485.5" y="516.9951">id: int</text><rect fill="none" height="6" style="stroke:#C82930;stroke-width:1.0;" width="6" x="473.5" y="526.9453"/><text fill="#000000" font-family="sans-serif" font-size="14" lengthAdjust="spacing" textLength="90.6377" x="485.5" y="533.292">nome: String</text><line style="stroke:#181818;stroke-width:0.5;" x1="466.5" x2="615.6094" y1="540.5938" y2="540.5938"/></g><!--class Vantagem--><g id="elem_Vantagem"><rect codeLine="39" fill="#F1F1F1" height="113.1875" id="Vantagem" rx="2.5" ry="2.5" style="stroke:#181818;stroke-width:0.5;" width="145.3555" x="65.5" y="452"/><ellipse cx="99.0041" cy="468" fill="#ADD1B2" rx="11" ry="11" style="stroke:#181818;stroke-width:1.0;"/><path d="M101.9728,473.6406 Q101.3947,473.9375 100.7541,474.0781 Q100.1134,474.2344 99.4103,474.2344 Q96.9103,474.2344 95.5822,472.5938 Q94.2697,470.9375 94.2697,467.8125 Q94.2697,464.6875 95.5822,463.0313 Q96.9103,461.375 99.4103,461.375 Q100.1134,461.375 100.7541,461.5313 Q101.4103,461.6875 101.9728,461.9844 L101.9728,464.7031 Q101.3478,464.125 100.7541,463.8594 Q100.1603,463.5781 99.5353,463.5781 Q98.1916,463.5781 97.5041,464.6563 Q96.8166,465.7188 96.8166,467.8125 Q96.8166,469.9063 97.5041,470.9844 Q98.1916,472.0469 99.5353,472.0469 Q100.1603,472.0469 100.7541,471.7813 Q101.3478,471.5 101.9728,470.9219 L101.9728,473.6406 Z " fill="#000000"/><text fill="#000000" font-family="sans-serif" font-size="14" lengthAdjust="spacing" textLength="72.2354" x="117.1161" y="472.8467">Vantagem</text><line style="stroke:#181818;stroke-width:0.5;" x1="66.5" x2="209.8555" y1="484" y2="484"/><rect fill="none" height="6" style="stroke:#C82930;stroke-width:1.0;" width="6" x="73.5" y="494.6484"/><text fill="#000000" font-family="sans-serif" font-size="14" lengthAdjust="spacing" textLength="40.1953" x="85.5" y="500.9951">id: int</text><rect fill="none" height="6" style="stroke:#C82930;stroke-width:1.0;" width="6" x="73.5" y="510.9453"/><text fill="#000000" font-family="sans-serif" font-size="14" lengthAdjust="spacing" textLength="117.9268" x="85.5" y="517.292">descricao: String</text><rect fill="none" height="6" style="stroke:#C82930;stroke-width:1.0;" width="6" x="73.5" y="527.2422"/><text fill="#000000" font-family="sans-serif" font-size="14" lengthAdjust="spacing" textLength="78.4971" x="85.5" y="533.5889">foto: String</text><rect fill="none" height="6" style="stroke:#C82930;stroke-width:1.0;" width="6" x="73.5" y="543.5391"/><text fill="#000000" font-family="sans-serif" font-size="14" lengthAdjust="spacing" textLength="119.3555" x="85.5" y="549.8857">custoMoedas: int</text><line style="stroke:#181818;stroke-width:0.5;" x1="66.5" x2="209.8555" y1="557.1875" y2="557.1875"/></g><!--class Transacao--><g id="elem_Transacao"><rect codeLine="46" fill="#F1F1F1" height="113.1875" id="Transacao" rx="2.5" ry="2.5" style="stroke:#181818;stroke-width:0.5;" width="132.9756" x="249.5" y="452"/><ellipse cx="277.3254" cy="468" fill="#ADD1B2" rx="11" ry="11" style="stroke:#181818;stroke-width:1.0;"/><path d="M280.2942,473.6406 Q279.7161,473.9375 279.0754,474.0781 Q278.4348,474.2344 277.7317,474.2344 Q275.2317,474.2344 273.9036,472.5938 Q272.5911,470.9375 272.5911,467.8125 Q272.5911,464.6875 273.9036,463.0313 Q275.2317,461.375 277.7317,461.375 Q278.4348,461.375 279.0754,461.5313 Q279.7317,461.6875 280.2942,461.9844 L280.2942,464.7031 Q279.6692,464.125 279.0754,463.8594 Q278.4817,463.5781 277.8567,463.5781 Q276.5129,463.5781 275.8254,464.6563 Q275.1379,465.7188 275.1379,467.8125 Q275.1379,469.9063 275.8254,470.9844 Q276.5129,472.0469 277.8567,472.0469 Q278.4817,472.0469 279.0754,471.7813 Q279.6692,471.5 280.2942,470.9219 L280.2942,473.6406 Z " fill="#000000"/><text fill="#000000" font-family="sans-serif" font-size="14" lengthAdjust="spacing" textLength="72.4746" x="294.1755" y="472.8467">Transacao</text><line style="stroke:#181818;stroke-width:0.5;" x1="250.5" x2="381.4756" y1="484" y2="484"/><rect fill="none" height="6" style="stroke:#C82930;stroke-width:1.0;" width="6" x="257.5" y="494.6484"/><text fill="#000000" font-family="sans-serif" font-size="14" lengthAdjust="spacing" textLength="40.1953" x="269.5" y="500.9951">id: int</text><rect fill="none" height="6" style="stroke:#C82930;stroke-width:1.0;" width="6" x="257.5" y="510.9453"/><text fill="#000000" font-family="sans-serif" font-size="14" lengthAdjust="spacing" textLength="74.1631" x="269.5" y="517.292">data: Date</text><rect fill="none" height="6" style="stroke:#C82930;stroke-width:1.0;" width="6" x="257.5" y="527.2422"/><text fill="#000000" font-family="sans-serif" font-size="14" lengthAdjust="spacing" textLength="106.9756" x="269.5" y="533.5889">quantidade: int</text><rect fill="none" height="6" style="stroke:#C82930;stroke-width:1.0;" width="6" x="257.5" y="543.5391"/><text fill="#000000" font-family="sans-serif" font-size="14" lengthAdjust="spacing" textLength="99.3809" x="269.5" y="549.8857">motivo: String</text><line style="stroke:#181818;stroke-width:0.5;" x1="250.5" x2="381.4756" y1="557.1875" y2="557.1875"/></g><!--reverse link Usuario to Aluno--><g id="link_Usuario_Aluno"><path codeLine="53" d="M295,154.26 C295,173.33 295,176.59 295,196.93 " fill="none" id="Usuario-backto-Aluno" style="stroke:#181818;stroke-width:1.0;"/><polygon fill="none" points="295,136.26,289,154.26,301,154.26,295,136.26" style="stroke:#181818;stroke-width:1.0;"/></g><!--reverse link Usuario to Professor--><g id="link_Usuario_Professor"><path codeLine="54" d="M367.074,149.08 C392.504,176.11 409.78,194.46 435.23,221.49 " fill="none" id="Usuario-backto-Professor" style="stroke:#181818;stroke-width:1.0;"/><polygon fill="none" points="354.74,135.97,362.704,153.1914,371.444,144.9687,354.74,135.97" style="stroke:#181818;stroke-width:1.0;"/></g><!--reverse link Usuario to EmpresaParceira--><g id="link_Usuario_EmpresaParceira"><path codeLine="55" d="M222.9248,149.0789 C192.3148,181.6089 167.98,207.46 139.82,237.38 " fill="none" id="Usuario-backto-EmpresaParceira" style="stroke:#181818;stroke-width:1.0;"/><polygon fill="none" points="235.26,135.97,218.5552,144.9672,227.2945,153.1906,235.26,135.97" style="stroke:#181818;stroke-width:1.0;"/></g><!--link Aluno to InstituicaoEnsino--><g id="link_Aluno_InstituicaoEnsino"><path codeLine="57" d="M334.63,375.25 C344.85,392.1 356.99,408.63 371,422 C397.65,447.43 433.33,466.93 465.13,480.84 " fill="none" id="Aluno-InstituicaoEnsino" style="stroke:#181818;stroke-width:1.0;"/><text fill="#000000" font-family="sans-serif" font-size="13" lengthAdjust="spacing" textLength="69.1196" x="372" y="418.0669">estuda em</text><text fill="#000000" font-family="sans-serif" font-size="13" lengthAdjust="spacing" textLength="8.271" x="329.5939" y="395.319">1</text><text fill="#000000" font-family="sans-serif" font-size="13" lengthAdjust="spacing" textLength="8.271" x="449.2758" y="474.4724">1</text></g><!--link Professor to InstituicaoEnsino--><g id="link_Professor_InstituicaoEnsino"><path codeLine="58" d="M513.87,350.64 C518.62,368.15 523.39,387.21 527,405 C531.18,425.59 534.46,448.77 536.8,467.87 " fill="none" id="Professor-InstituicaoEnsino" style="stroke:#181818;stroke-width:1.0;"/><text fill="#000000" font-family="sans-serif" font-size="13" lengthAdjust="spacing" textLength="79.2378" x="531" y="418.0669">trabalha em</text><text fill="#000000" font-family="sans-serif" font-size="13" lengthAdjust="spacing" textLength="8.271" x="507.6098" y="371.0278">1</text><text fill="#000000" font-family="sans-serif" font-size="13" lengthAdjust="spacing" textLength="8.271" x="527.4553" y="457.01">1</text></g><!--link EmpresaParceira to Vantagem--><g id="link_EmpresaParceira_Vantagem"><path codeLine="60" d="M95.12,334.67 C96.04,360.74 98.58,393.45 105,422 C107.2,431.78 110.31,441.92 113.76,451.66 " fill="none" id="EmpresaParceira-Vantagem" style="stroke:#181818;stroke-width:1.0;"/><text fill="#000000" font-family="sans-serif" font-size="13" lengthAdjust="spacing" textLength="49.0166" x="106" y="418.0669">oferece</text><text fill="#000000" font-family="sans-serif" font-size="13" lengthAdjust="spacing" textLength="8.271" x="86.6319" y="354.301">1</text><text fill="#000000" font-family="sans-serif" font-size="13" lengthAdjust="spacing" textLength="6.5" x="104.4489" y="440.8821">*</text></g><!--link Aluno to Vantagem--><g id="link_Aluno_Vantagem"><path codeLine="61" d="M232.27,375.1 C213.82,401.01 194.16,428.62 177.6,451.89 " fill="none" id="Aluno-Vantagem" style="stroke:#181818;stroke-width:1.0;"/><text fill="#000000" font-family="sans-serif" font-size="13" lengthAdjust="spacing" textLength="49.3975" x="208" y="418.0669">resgata</text><text fill="#000000" font-family="sans-serif" font-size="13" lengthAdjust="spacing" textLength="8.271" x="218.5492" y="395.4581">1</text><text fill="#000000" font-family="sans-serif" font-size="13" lengthAdjust="spacing" textLength="6.5" x="176.2986" y="440.7393">*</text></g><!--link Aluno to Transacao--><g id="link_Aluno_Transacao"><path codeLine="63" d="M286.08,375.14 C285.92,390.81 286.68,406.93 289,422 C290.52,431.85 292.96,442.11 295.78,451.97 " fill="none" id="Aluno-Transacao" style="stroke:#181818;stroke-width:1.0;"/><text fill="#000000" font-family="sans-serif" font-size="13" lengthAdjust="spacing" textLength="44.7383" x="290" y="418.0669">recebe</text><text fill="#000000" font-family="sans-serif" font-size="13" lengthAdjust="spacing" textLength="8.271" x="276.9835" y="395.5015">1</text><text fill="#000000" font-family="sans-serif" font-size="13" lengthAdjust="spacing" textLength="6.5" x="286.8385" y="440.8295">*</text></g><!--link Professor to Transacao--><g id="link_Professor_Transacao"><path codeLine="64" d="M483.25,350.8 C476.49,374.91 466.03,401.45 450,422 C432.27,444.74 406.68,463.16 382.61,477 " fill="none" id="Professor-Transacao" style="stroke:#181818;stroke-width:1.0;"/><text fill="#000000" font-family="sans-serif" font-size="13" lengthAdjust="spacing" textLength="35.5088" x="461" y="418.0669">envia</text><text fill="#000000" font-family="sans-serif" font-size="13" lengthAdjust="spacing" textLength="8.271" x="473.4494" y="371.2063">1</text><text fill="#000000" font-family="sans-serif" font-size="13" lengthAdjust="spacing" textLength="6.5" x="390.689" y="469.5544">*</text></g><!--SRC=[XLAxRiCm3Dpr5KAcja66haQN0irGe0K2zB4p4ksei2MNf8EYZt-l7CUsx0J8PFDqF9sED2KmwpTkW5pGFqhhbREPTbxQNnygpFIBaFD5MsC5ham1Hh-315Zcy8tq50hdhwxLdrBce7zVDlweRkey5Q1Yekyj4fgGOgOXdW0CfGtF0IrmRtHf85P2GF7MjWoUcrA0rbyHbD2XGi40TPsfkms579a3dNLeiGOIgD3BHHlMHHDksxZnblDkXhlNLKt8i04ow0YE3dpzaOOwVrrVleCNAB1A1HyzYvF66GXhpyvV6EhGrskTq2soeLOkVNmUP3OabaaOW-uhWMU8xQV2875r7a2mhJwRQC1Pi3WGgY1k7rAh_PxU_QvMtL9DeM6IKtWMibBTFYvk5pgUjf_Jr3ADB8q5ZPKQ5-H2InpA5ihTeKdDHzlttYp6i3CTbUF6uypIb1DbYXYMEYMDwROiWriyOtR6Gxzty0y0]--></g></svg>