<svg xmlns="http://www.w3.org/2000/svg" xmlns:xlink="http://www.w3.org/1999/xlink" contentStyleType="text/css" height="549px" preserveAspectRatio="none" style="width:1224px;height:549px;background:#FFFFFF;" version="1.1" viewBox="0 0 1224 549" width="1224px" zoomAndPan="magnify"><defs/><g><!--cluster Moeda Estudantil--><g id="cluster_Moeda Estudantil"><path d="M8.5,218 L147.1689,218 A3.75,3.75 0 0 1 149.6689,220.5 L156.6689,240.2969 L434.5,240.2969 A2.5,2.5 0 0 1 437,242.7969 L437,539.5 A2.5,2.5 0 0 1 434.5,542 L8.5,542 A2.5,2.5 0 0 1 6,539.5 L6,220.5 A2.5,2.5 0 0 1 8.5,218 " fill="none" style="stroke:#000000;stroke-width:1.5;"/><line style="stroke:#000000;stroke-width:1.5;" x1="6" x2="156.6689" y1="240.2969" y2="240.2969"/><text fill="#000000" font-family="sans-serif" font-size="14" font-weight="bold" lengthAdjust="spacing" textLength="137.6689" x="10" y="232.9951">Moeda Estudantil</text></g><!--cluster Componentes do Frontend--><g id="cluster_Componentes do Frontend"><path d="M463.5,6 L674.1855,6 A3.75,3.75 0 0 1 676.6855,8.5 L683.6855,28.2969 L683.5,28.2969 A2.5,2.5 0 0 1 686,30.7969 L686,312.5 A2.5,2.5 0 0 1 683.5,315 L463.5,315 A2.5,2.5 0 0 1 461,312.5 L461,8.5 A2.5,2.5 0 0 1 463.5,6 " fill="none" style="stroke:#000000;stroke-width:1.5;"/><line style="stroke:#000000;stroke-width:1.5;" x1="461" x2="683.6855" y1="28.2969" y2="28.2969"/><text fill="#000000" font-family="sans-serif" font-size="14" font-weight="bold" lengthAdjust="spacing" textLength="209.6855" x="465" y="20.9951">Componentes do Frontend</text></g><!--cluster Componentes do Backend--><g id="cluster_Componentes do Backend"><path d="M712.5,218 L918.168,218 A3.75,3.75 0 0 1 920.668,220.5 L927.668,240.2969 L1214.5,240.2969 A2.5,2.5 0 0 1 1217,242.7969 L1217,433.5 A2.5,2.5 0 0 1 1214.5,436 L712.5,436 A2.5,2.5 0 0 1 710,433.5 L710,220.5 A2.5,2.5 0 0 1 712.5,218 " fill="none" style="stroke:#000000;stroke-width:1.5;"/><line style="stroke:#000000;stroke-width:1.5;" x1="710" x2="927.668" y1="240.2969" y2="240.2969"/><text fill="#000000" font-family="sans-serif" font-size="14" font-weight="bold" lengthAdjust="spacing" textLength="204.668" x="714" y="232.9951">Componentes do Backend</text></g><!--cluster Infraestrutura--><g id="cluster_Infraestrutura"><path d="M463.5,339 L576.5205,339 A3.75,3.75 0 0 1 579.0205,341.5 L586.0205,361.2969 L590.5,361.2969 A2.5,2.5 0 0 1 593,363.7969 L593,433.5 A2.5,2.5 0 0 1 590.5,436 L463.5,436 A2.5,2.5 0 0 1 461,433.5 L461,341.5 A2.5,2.5 0 0 1 463.5,339 " fill="none" style="stroke:#000000;stroke-width:1.5;"/><line style="stroke:#000000;stroke-width:1.5;" x1="461" x2="586.0205" y1="361.2969" y2="361.2969"/><text fill="#000000" font-family="sans-serif" font-size="14" font-weight="bold" lengthAdjust="spacing" textLength="112.0205" x="465" y="353.9951">Infraestrutura</text></g><!--entity Frontend--><g id="elem_Frontend"><rect fill="#F1F1F1" height="46.2969" rx="2.5" ry="2.5" style="stroke:#181818;stroke-width:0.5;" width="103.1094" x="290.5" y="253"/><rect fill="#F1F1F1" height="10" style="stroke:#181818;stroke-width:0.5;" width="15" x="373.6094" y="258"/><rect fill="#F1F1F1" height="2" style="stroke:#181818;stroke-width:0.5;" width="4" x="371.6094" y="260"/><rect fill="#F1F1F1" height="2" style="stroke:#181818;stroke-width:0.5;" width="4" x="371.6094" y="264"/><text fill="#000000" font-family="sans-serif" font-size="14" lengthAdjust="spacing" textLength="63.1094" x="305.5" y="285.9951">Frontend</text></g><!--entity Backend--><g id="elem_Backend"><rect fill="#F1F1F1" height="46.2969" rx="2.5" ry="2.5" style="stroke:#181818;stroke-width:0.5;" width="100.3613" x="292" y="374"/><rect fill="#F1F1F1" height="10" style="stroke:#181818;stroke-width:0.5;" width="15" x="372.3613" y="379"/><rect fill="#F1F1F1" height="2" style="stroke:#181818;stroke-width:0.5;" width="4" x="370.3613" y="381"/><rect fill="#F1F1F1" height="2" style="stroke:#181818;stroke-width:0.5;" width="4" x="370.3613" y="385"/><text fill="#000000" font-family="sans-serif" font-size="14" lengthAdjust="spacing" textLength="60.3613" x="307" y="406.9951">Backend</text></g><!--entity Banco de Dados--><g id="elem_Banco de Dados"><rect fill="#F1F1F1" height="46.2969" rx="2.5" ry="2.5" style="stroke:#181818;stroke-width:0.5;" width="153.8252" x="22" y="480"/><rect fill="#F1F1F1" height="10" style="stroke:#181818;stroke-width:0.5;" width="15" x="155.8252" y="485"/><rect fill="#F1F1F1" height="2" style="stroke:#181818;stroke-width:0.5;" width="4" x="153.8252" y="487"/><rect fill="#F1F1F1" height="2" style="stroke:#181818;stroke-width:0.5;" width="4" x="153.8252" y="491"/><text fill="#000000" font-family="sans-serif" font-size="14" lengthAdjust="spacing" textLength="113.8252" x="37" y="512.9951">Banco de Dados</text></g><!--entity Servi?o de Autentica??o--><g id="elem_Servi&#231;o de Autentica&#231;&#227;o"><rect fill="#F1F1F1" height="46.2969" rx="2.5" ry="2.5" style="stroke:#181818;stroke-width:0.5;" width="210.0166" x="211" y="480"/><rect fill="#F1F1F1" height="10" style="stroke:#181818;stroke-width:0.5;" width="15" x="401.0166" y="485"/><rect fill="#F1F1F1" height="2" style="stroke:#181818;stroke-width:0.5;" width="4" x="399.0166" y="487"/><rect fill="#F1F1F1" height="2" style="stroke:#181818;stroke-width:0.5;" width="4" x="399.0166" y="491"/><text fill="#000000" font-family="sans-serif" font-size="14" lengthAdjust="spacing" textLength="170.0166" x="226" y="512.9951">Servi&#231;o de Autentica&#231;&#227;o</text></g><!--entity Interface de Usu?rio--><g id="elem_Interface de Usu&#225;rio"><rect fill="#F1F1F1" height="46.2969" rx="2.5" ry="2.5" style="stroke:#181818;stroke-width:0.5;" width="182.2832" x="477" y="41"/><rect fill="#F1F1F1" height="10" style="stroke:#181818;stroke-width:0.5;" width="15" x="639.2832" y="46"/><rect fill="#F1F1F1" height="2" style="stroke:#181818;stroke-width:0.5;" width="4" x="637.2832" y="48"/><rect fill="#F1F1F1" height="2" style="stroke:#181818;stroke-width:0.5;" width="4" x="637.2832" y="52"/><text fill="#000000" font-family="sans-serif" font-size="14" lengthAdjust="spacing" textLength="142.2832" x="492" y="73.9951">Interface de Usu&#225;rio</text></g><!--entity API de Servi?os--><g id="elem_API de Servi&#231;os"><rect fill="#F1F1F1" height="46.2969" rx="2.5" ry="2.5" style="stroke:#181818;stroke-width:0.5;" width="147.5361" x="491" y="147"/><rect fill="#F1F1F1" height="10" style="stroke:#181818;stroke-width:0.5;" width="15" x="618.5361" y="152"/><rect fill="#F1F1F1" height="2" style="stroke:#181818;stroke-width:0.5;" width="4" x="616.5361" y="154"/><rect fill="#F1F1F1" height="2" style="stroke:#181818;stroke-width:0.5;" width="4" x="616.5361" y="158"/><text fill="#000000" font-family="sans-serif" font-size="14" lengthAdjust="spacing" textLength="107.5361" x="506" y="179.9951">API de Servi&#231;os</text></g><!--entity Requisi??es HTTP--><g id="elem_Requisi&#231;&#245;es HTTP"><rect fill="#F1F1F1" height="46.2969" rx="2.5" ry="2.5" style="stroke:#181818;stroke-width:0.5;" width="163.8672" x="481" y="253"/><rect fill="#F1F1F1" height="10" style="stroke:#181818;stroke-width:0.5;" width="15" x="624.8672" y="258"/><rect fill="#F1F1F1" height="2" style="stroke:#181818;stroke-width:0.5;" width="4" x="622.8672" y="260"/><rect fill="#F1F1F1" height="2" style="stroke:#181818;stroke-width:0.5;" width="4" x="622.8672" y="264"/><text fill="#000000" font-family="sans-serif" font-size="14" lengthAdjust="spacing" textLength="123.8672" x="496" y="285.9951">Requisi&#231;&#245;es HTTP</text></g><!--entity Controle de Usu?rios--><g id="elem_Controle de Usu&#225;rios"><rect fill="#F1F1F1" height="46.2969" rx="2.5" ry="2.5" style="stroke:#181818;stroke-width:0.5;" width="186.4258" x="1015" y="374"/><rect fill="#F1F1F1" height="10" style="stroke:#181818;stroke-width:0.5;" width="15" x="1181.4258" y="379"/><rect fill="#F1F1F1" height="2" style="stroke:#181818;stroke-width:0.5;" width="4" x="1179.4258" y="381"/><rect fill="#F1F1F1" height="2" style="stroke:#181818;stroke-width:0.5;" width="4" x="1179.4258" y="385"/><text fill="#000000" font-family="sans-serif" font-size="14" lengthAdjust="spacing" textLength="146.4258" x="1030" y="406.9951">Controle de Usu&#225;rios</text></g><!--entity Gerenciamento de Transa??es--><g id="elem_Gerenciamento de Transa&#231;&#245;es"><rect fill="#F1F1F1" height="46.2969" rx="2.5" ry="2.5" style="stroke:#181818;stroke-width:0.5;" width="254.252" x="726" y="374"/><rect fill="#F1F1F1" height="10" style="stroke:#181818;stroke-width:0.5;" width="15" x="960.252" y="379"/><rect fill="#F1F1F1" height="2" style="stroke:#181818;stroke-width:0.5;" width="4" x="958.252" y="381"/><rect fill="#F1F1F1" height="2" style="stroke:#181818;stroke-width:0.5;" width="4" x="958.252" y="385"/><text fill="#000000" font-family="sans-serif" font-size="14" lengthAdjust="spacing" textLength="214.252" x="741" y="406.9951">Gerenciamento de Transa&#231;&#245;es</text></g><!--entity API Restful--><g id="elem_API Restful"><rect fill="#F1F1F1" height="46.2969" rx="2.5" ry="2.5" style="stroke:#181818;stroke-width:0.5;" width="115.4141" x="795.5" y="253"/><rect fill="#F1F1F1" height="10" style="stroke:#181818;stroke-width:0.5;" width="15" x="890.9141" y="258"/><rect fill="#F1F1F1" height="2" style="stroke:#181818;stroke-width:0.5;" width="4" x="888.9141" y="260"/><rect fill="#F1F1F1" height="2" style="stroke:#181818;stroke-width:0.5;" width="4" x="888.9141" y="264"/><text fill="#000000" font-family="sans-serif" font-size="14" lengthAdjust="spacing" textLength="75.4141" x="810.5" y="285.9951">API Restful</text></g><!--entity Servidor--><g id="elem_Servidor"><rect fill="#F1F1F1" height="46.2969" rx="2.5" ry="2.5" style="stroke:#181818;stroke-width:0.5;" width="98.6387" x="477.5" y="374"/><rect fill="#F1F1F1" height="10" style="stroke:#181818;stroke-width:0.5;" width="15" x="556.1387" y="379"/><rect fill="#F1F1F1" height="2" style="stroke:#181818;stroke-width:0.5;" width="4" x="554.1387" y="381"/><rect fill="#F1F1F1" height="2" style="stroke:#181818;stroke-width:0.5;" width="4" x="554.1387" y="385"/><text fill="#000000" font-family="sans-serif" font-size="14" lengthAdjust="spacing" textLength="58.6387" x="492.5" y="406.9951">Servidor</text></g><!--link Frontend to Backend--><g id="link_Frontend_Backend"><path d="M342,299.1 C342,320.34 342,346.28 342,367.61 " fill="none" id="Frontend-to-Backend" style="stroke:#181818;stroke-width:1.0;"/><polygon fill="#181818" points="342,373.61,346,364.61,342,368.61,338,364.61,342,373.61" style="stroke:#181818;stroke-width:1.0;"/></g><!--link Backend to Banco de Dados--><g id="link_Backend_Banco de Dados"><path d="M291.94,419.42 C250.68,437.08 197.8859,459.6789 156.1859,477.5289 " fill="none" id="Backend-to-Banco de Dados" style="stroke:#181818;stroke-width:1.0;"/><polygon fill="#181818" points="150.67,479.89,160.5179,480.0256,155.2666,477.9224,157.3698,472.6711,150.67,479.89" style="stroke:#181818;stroke-width:1.0;"/></g><!--link Backend to Servi?o de Autentica??o--><g id="link_Backend_Servi&#231;o de Autentica&#231;&#227;o"><path d="M336.49,420.06 C332.07,437.7 327.3752,456.5191 322.9652,474.1591 " fill="none" id="Backend-to-Servi&#231;o de Autentica&#231;&#227;o" style="stroke:#181818;stroke-width:1.0;"/><polygon fill="#181818" points="321.51,479.98,327.5734,472.2189,322.7227,475.1293,319.8123,470.2786,321.51,479.98" style="stroke:#181818;stroke-width:1.0;"/></g><!--link Interface de Usu?rio to API de Servi?os--><g id="link_Interface de Usu&#225;rio_API de Servi&#231;os"><path d="M567.36,87.06 C566.85,104.7 566.31,123.3424 565.81,140.9824 " fill="none" id="Interface de Usu&#225;rio-to-API de Servi&#231;os" style="stroke:#181818;stroke-width:1.0;"/><polygon fill="#181818" points="565.64,146.98,569.8934,138.0969,565.7817,141.982,561.8966,137.8703,565.64,146.98" style="stroke:#181818;stroke-width:1.0;"/></g><!--link API de Servi?os to Requisi??es HTTP--><g id="link_API de Servi&#231;os_Requisi&#231;&#245;es HTTP"><path d="M564.58,193.06 C564.24,210.7 563.8756,229.3411 563.5356,246.9811 " fill="none" id="API de Servi&#231;os-to-Requisi&#231;&#245;es HTTP" style="stroke:#181818;stroke-width:1.0;"/><polygon fill="#181818" points="563.42,252.98,567.5927,244.0588,563.5164,247.9809,559.5942,243.9046,563.42,252.98" style="stroke:#181818;stroke-width:1.0;"/></g><!--link Requisi??es HTTP to Backend--><g id="link_Requisi&#231;&#245;es HTTP_Backend"><path d="M520.75,299.21 C502.37,308.91 480.59,320.47 461,331 C434.67,345.16 410.4404,358.3841 387.4004,371.0241 " fill="none" id="Requisi&#231;&#245;es HTTP-to-Backend" style="stroke:#181818;stroke-width:1.0;"/><polygon fill="#181818" points="382.14,373.91,391.9545,373.0881,386.5236,371.5051,388.1066,366.0742,382.14,373.91" style="stroke:#181818;stroke-width:1.0;"/></g><!--link Controle de Usu?rios to Servi?o de Autentica??o--><g id="link_Controle de Usu&#225;rios_Servi&#231;o de Autentica&#231;&#227;o"><path d="M1064.11,420.05 C1044.39,428.98 1020.52,438.48 998,444 C891.61,470.09 590.6921,488.3731 427.2921,496.7431 " fill="none" id="Controle de Usu&#225;rios-to-Servi&#231;o de Autentica&#231;&#227;o" style="stroke:#181818;stroke-width:1.0;"/><polygon fill="#181818" points="421.3,497.05,430.4928,500.5844,426.2935,496.7942,430.0836,492.5948,421.3,497.05" style="stroke:#181818;stroke-width:1.0;"/></g><!--link Gerenciamento de Transa??es to Banco de Dados--><g id="link_Gerenciamento de Transa&#231;&#245;es_Banco de Dados"><path d="M740.7,420.02 C695.02,428.42 641.62,437.52 593,444 C416.51,467.53 369.81,451.85 194,480 C188.15,480.94 188.0068,480.8702 181.9668,482.0602 " fill="none" id="Gerenciamento de Transa&#231;&#245;es-to-Banco de Dados" style="stroke:#181818;stroke-width:1.0;"/><polygon fill="#181818" points="176.08,483.22,185.6835,485.4048,180.9857,482.2535,184.137,477.5557,176.08,483.22" style="stroke:#181818;stroke-width:1.0;"/></g><!--link API Restful to Controle de Usu?rios--><g id="link_API Restful_Controle de Usu&#225;rios"><path d="M910.78,295.87 C937.75,305.34 970,317.64 998,331 C1024.43,343.61 1047.7705,357.2965 1069.1005,370.7065 " fill="none" id="API Restful-to-Controle de Usu&#225;rios" style="stroke:#181818;stroke-width:1.0;"/><polygon fill="#181818" points="1074.18,373.9,1068.6897,365.7234,1069.947,371.2388,1064.4317,372.4962,1074.18,373.9" style="stroke:#181818;stroke-width:1.0;"/></g><!--link API Restful to Gerenciamento de Transa??es--><g id="link_API Restful_Gerenciamento de Transa&#231;&#245;es"><path d="M853,299.1 C853,320.34 853,346.28 853,367.61 " fill="none" id="API Restful-to-Gerenciamento de Transa&#231;&#245;es" style="stroke:#181818;stroke-width:1.0;"/><polygon fill="#181818" points="853,373.61,857,364.61,853,368.61,849,364.61,853,373.61" style="stroke:#181818;stroke-width:1.0;"/></g><!--link Backend to API Restful--><g id="link_Backend_API Restful"><path d="M373.09,373.77 C396.15,358.63 429,339.81 461,331 C506.88,318.37 627.91,329.88 675,323 C715.74,317.05 754.8608,307.0927 789.3608,297.0127 " fill="none" id="Backend-to-API Restful" style="stroke:#181818;stroke-width:1.0;"/><polygon fill="#181818" points="795.12,295.33,785.3594,294.0146,790.3207,296.7322,787.603,301.6935,795.12,295.33" style="stroke:#181818;stroke-width:1.0;"/></g><!--link Banco de Dados to Servidor--><g id="link_Banco de Dados_Servidor"><path d="M176.14,483.59 C182.17,482.32 188.18,481.1 194,480 C301.27,459.67 333.02,477.28 437,444 C455.38,438.12 469.3277,431.6824 485.2477,422.9624 " fill="none" id="Banco de Dados-to-Servidor" style="stroke:#181818;stroke-width:1.0;"/><polygon fill="#181818" points="490.51,420.08,480.695,420.8953,486.1247,422.482,484.5381,427.9118,490.51,420.08" style="stroke:#181818;stroke-width:1.0;"/></g><!--link Servidor to Servi?o de Autentica??o--><g id="link_Servidor_Servi&#231;o de Autentica&#231;&#227;o"><path d="M484.08,420.22 C469.21,427.84 452.41,436.37 437,444 C412.57,456.09 390.6175,466.6711 368.0975,477.3911 " fill="none" id="Servidor-to-Servi&#231;o de Autentica&#231;&#227;o" style="stroke:#181818;stroke-width:1.0;"/><polygon fill="#181818" points="362.68,479.97,372.5255,479.7134,367.1946,477.821,369.087,472.49,362.68,479.97" style="stroke:#181818;stroke-width:1.0;"/></g><!--SRC=[ZP8zRiCm38LtdqB8dYiKIDC_3mM2r9c238H45q8TqQMaBa4FKtJ82Ne2NQpoZumaTOre8zyJ-VbPDSWtU4KnUoPK8EwjymgCqzLC738Hp_Q1oJWqQYVcynknlOqNcgeJKvKq8qae57UWo8vQNf0_T3YsheMFSvsM48xXctRPPvRL2MT9-vfCbD4AHI9135HvBBa4YSsWZVNXYpNrEnQhlEccLGdaJxjph_7TQnixuIVkUYgALUyV4IuYc03kFGFlCl8pLMUuzefCsikFo6YaXdsKMbV1O2nqP5FPDv-yHkjAN_MsSOx_tDEBn_xlwOopV79JCaI1lVCCGouNs2U1AE9-mr1UyOH-0G00]--></g></svg>