<?xml version="1.0" encoding="us-ascii" standalone="no"?><svg xmlns="http://www.w3.org/2000/svg" xmlns:xlink="http://www.w3.org/1999/xlink" contentStyleType="text/css" height="573px" preserveAspectRatio="none" style="width:612px;height:573px;background:#FFFFFF;" version="1.1" viewBox="0 0 612 573" width="612px" zoomAndPan="magnify"><defs/><g><!--class Usuario--><g id="elem_Usuario"><rect codeLine="1" fill="#F1F1F1" height="129.4844" id="Usuario" rx="2.5" ry="2.5" style="stroke:#181818;stroke-width:0.5;" width="118" x="227" y="7"/><ellipse cx="257.3" cy="23" fill="#ADD1B2" rx="11" ry="11" style="stroke:#181818;stroke-width:1.0;"/><path d="M260.2688,28.6406 Q259.6906,28.9375 259.05,29.0781 Q258.4094,29.2344 257.7063,29.2344 Q255.2063,29.2344 253.8781,27.5938 Q252.5656,25.9375 252.5656,22.8125 Q252.5656,19.6875 253.8781,18.0313 Q255.2063,16.375 257.7063,16.375 Q258.4094,16.375 259.05,16.5313 Q259.7063,16.6875 260.2688,16.9844 L260.2688,19.7031 Q259.6438,19.125 259.05,18.8594 Q258.4563,18.5781 257.8313,18.5781 Q256.4875,18.5781 255.8,19.6563 Q255.1125,20.7188 255.1125,22.8125 Q255.1125,24.9063 255.8,25.9844 Q256.4875,27.0469 257.8313,27.0469 Q258.4563,27.0469 259.05,26.7813 Q259.6438,26.5 260.2688,25.9219 L260.2688,28.6406 Z " fill="#000000"/><text fill="#000000" font-family="sans-serif" font-size="14" lengthAdjust="spacing" textLength="52" x="274.7" y="27.8467">Usuario</text><line style="stroke:#181818;stroke-width:0.5;" x1="228" x2="344" y1="39" y2="39"/><rect fill="none" height="6" style="stroke:#C82930;stroke-width:1.0;" width="6" x="235" y="49.6484"/><text fill="#000000" font-family="sans-serif" font-size="14" lengthAdjust="spacing" textLength="38" x="247" y="55.9951">id: int</text><rect fill="none" height="6" style="stroke:#C82930;stroke-width:1.0;" width="6" x="235" y="65.9453"/><text fill="#000000" font-family="sans-serif" font-size="14" lengthAdjust="spacing" textLength="89" x="247" y="72.292">nome: String</text><rect fill="none" height="6" style="stroke:#C82930;stroke-width:1.0;" width="6" x="235" y="82.2422"/><text fill="#000000" font-family="sans-serif" font-size="14" lengthAdjust="spacing" textLength="85" x="247" y="88.5889">email: String</text><rect fill="none" height="6" style="stroke:#C82930;stroke-width:1.0;" width="6" x="235" y="98.5391"/><text fill="#000000" font-family="sans-serif" font-size="14" lengthAdjust="spacing" textLength="92" x="247" y="104.8857">senha: String</text><line style="stroke:#181818;stroke-width:0.5;" x1="228" x2="344" y1="112.1875" y2="112.1875"/><ellipse cx="238" cy="125.8359" fill="#84BE84" rx="3" ry="3" style="stroke:#038048;stroke-width:1.0;"/><text fill="#000000" font-family="sans-serif" font-size="14" lengthAdjust="spacing" textLength="81" x="247" y="129.1826">fazerLogin()</text></g><!--class Aluno--><g id="elem_Aluno"><rect codeLine="9" fill="#F1F1F1" height="178.375" id="Aluno" rx="2.5" ry="2.5" style="stroke:#181818;stroke-width:0.5;" width="148" x="212" y="197.49"/><ellipse cx="262.25" cy="213.49" fill="#ADD1B2" rx="11" ry="11" style="stroke:#181818;stroke-width:1.0;"/><path d="M265.2188,219.1306 Q264.6406,219.4275 264,219.5681 Q263.3594,219.7244 262.6563,219.7244 Q260.1563,219.7244 258.8281,218.0837 Q257.5156,216.4275 257.5156,213.3025 Q257.5156,210.1775 258.8281,208.5212 Q260.1563,206.865 262.6563,206.865 Q263.3594,206.865 264,207.0212 Q264.6563,207.1775 265.2188,207.4744 L265.2188,210.1931 Q264.5938,209.615 264,209.3494 Q263.4063,209.0681 262.7813,209.0681 Q261.4375,209.0681 260.75,210.1462 Q260.0625,211.2087 260.0625,213.3025 Q260.0625,215.3962 260.75,216.4744 Q261.4375,217.5369 262.7813,217.5369 Q263.4063,217.5369 264,217.2712 Q264.5938,216.99 265.2188,216.4119 L265.2188,219.1306 Z " fill="#000000"/><text fill="#000000" font-family="sans-serif" font-size="14" lengthAdjust="spacing" textLength="39" x="282.75" y="218.3367">Aluno</text><line style="stroke:#181818;stroke-width:0.5;" x1="213" x2="359" y1="229.49" y2="229.49"/><rect fill="none" height="6" style="stroke:#C82930;stroke-width:1.0;" width="6" x="220" y="240.1384"/><text fill="#000000" font-family="sans-serif" font-size="14" lengthAdjust="spacing" textLength="70" x="232" y="246.4851">cpf: String</text><rect fill="none" height="6" style="stroke:#C82930;stroke-width:1.0;" width="6" x="220" y="256.4353"/><text fill="#000000" font-family="sans-serif" font-size="14" lengthAdjust="spacing" textLength="63" x="232" y="262.782">rg: String</text><rect fill="none" height="6" style="stroke:#C82930;stroke-width:1.0;" width="6" x="220" y="272.7322"/><text fill="#000000" font-family="sans-serif" font-size="14" lengthAdjust="spacing" textLength="116" x="232" y="279.0789">endereco: String</text><rect fill="none" height="6" style="stroke:#C82930;stroke-width:1.0;" width="6" x="220" y="289.0291"/><text fill="#000000" font-family="sans-serif" font-size="14" lengthAdjust="spacing" textLength="88" x="232" y="295.3757">curso: String</text><rect fill="none" height="6" style="stroke:#C82930;stroke-width:1.0;" width="6" x="220" y="305.3259"/><text fill="#000000" font-family="sans-serif" font-size="14" lengthAdjust="spacing" textLength="118" x="232" y="311.6726">saldoMoedas: int</text><line style="stroke:#181818;stroke-width:0.5;" x1="213" x2="359" y1="318.9744" y2="318.9744"/><ellipse cx="223" cy="332.6228" fill="#84BE84" rx="3" ry="3" style="stroke:#038048;stroke-width:1.0;"/><text fill="#000000" font-family="sans-serif" font-size="14" lengthAdjust="spacing" textLength="74" x="232" y="335.9695">cadastrar()</text><ellipse cx="223" cy="348.9197" fill="#84BE84" rx="3" ry="3" style="stroke:#038048;stroke-width:1.0;"/><text fill="#000000" font-family="sans-serif" font-size="14" lengthAdjust="spacing" textLength="122" x="232" y="352.2664">consultarExtrato()</text><ellipse cx="223" cy="365.2166" fill="#84BE84" rx="3" ry="3" style="stroke:#038048;stroke-width:1.0;"/><text fill="#000000" font-family="sans-serif" font-size="14" lengthAdjust="spacing" textLength="105" x="232" y="368.5632">trocarMoedas()</text></g><!--class Professor--><g id="elem_Professor"><rect codeLine="20" fill="#F1F1F1" height="129.4844" id="Professor" rx="2.5" ry="2.5" style="stroke:#181818;stroke-width:0.5;" width="173" x="395.5" y="221.93"/><ellipse cx="444.75" cy="237.93" fill="#ADD1B2" rx="11" ry="11" style="stroke:#181818;stroke-width:1.0;"/><path d="M447.7188,243.5706 Q447.1406,243.8675 446.5,244.0081 Q445.8594,244.1644 445.1563,244.1644 Q442.6563,244.1644 441.3281,242.5237 Q440.0156,240.8675 440.0156,237.7425 Q440.0156,234.6175 441.3281,232.9612 Q442.6563,231.305 445.1563,231.305 Q445.8594,231.305 446.5,231.4612 Q447.1563,231.6175 447.7188,231.9144 L447.7188,234.6331 Q447.0938,234.055 446.5,233.7894 Q445.9063,233.5081 445.2813,233.5081 Q443.9375,233.5081 443.25,234.5862 Q442.5625,235.6487 442.5625,237.7425 Q442.5625,239.8362 443.25,240.9144 Q443.9375,241.9769 445.2813,241.9769 Q445.9063,241.9769 446.5,241.7112 Q447.0938,241.43 447.7188,240.8519 L447.7188,243.5706 Z " fill="#000000"/><text fill="#000000" font-family="sans-serif" font-size="14" lengthAdjust="spacing" textLength="66" x="465.25" y="242.7767">Professor</text><line style="stroke:#181818;stroke-width:0.5;" x1="396.5" x2="567.5" y1="253.93" y2="253.93"/><rect fill="none" height="6" style="stroke:#C82930;stroke-width:1.0;" width="6" x="403.5" y="264.5784"/><text fill="#000000" font-family="sans-serif" font-size="14" lengthAdjust="spacing" textLength="70" x="415.5" y="270.9251">cpf: String</text><rect fill="none" height="6" style="stroke:#C82930;stroke-width:1.0;" width="6" x="403.5" y="280.8753"/><text fill="#000000" font-family="sans-serif" font-size="14" lengthAdjust="spacing" textLength="147" x="415.5" y="287.222">departamento: String</text><rect fill="none" height="6" style="stroke:#C82930;stroke-width:1.0;" width="6" x="403.5" y="297.1722"/><text fill="#000000" font-family="sans-serif" font-size="14" lengthAdjust="spacing" textLength="118" x="415.5" y="303.5189">saldoMoedas: int</text><line style="stroke:#181818;stroke-width:0.5;" x1="396.5" x2="567.5" y1="310.8206" y2="310.8206"/><ellipse cx="406.5" cy="324.4691" fill="#84BE84" rx="3" ry="3" style="stroke:#038048;stroke-width:1.0;"/><text fill="#000000" font-family="sans-serif" font-size="14" lengthAdjust="spacing" textLength="124" x="415.5" y="327.8157">distribuirMoedas()</text><ellipse cx="406.5" cy="340.7659" fill="#84BE84" rx="3" ry="3" style="stroke:#038048;stroke-width:1.0;"/><text fill="#000000" font-family="sans-serif" font-size="14" lengthAdjust="spacing" textLength="122" x="415.5" y="344.1126">consultarExtrato()</text></g><!--class EmpresaParceira--><g id="elem_EmpresaParceira"><rect codeLine="28" fill="#F1F1F1" height="96.8906" id="EmpresaParceira" rx="2.5" ry="2.5" style="stroke:#181818;stroke-width:0.5;" width="170" x="7" y="238.23"/><ellipse cx="31.9" cy="254.23" fill="#ADD1B2" rx="11" ry="11" style="stroke:#181818;stroke-width:1.0;"/><path d="M34.8688,259.8706 Q34.2906,260.1675 33.65,260.3081 Q33.0094,260.4644 32.3063,260.4644 Q29.8063,260.4644 28.4781,258.8237 Q27.1656,257.1675 27.1656,254.0425 Q27.1656,250.9175 28.4781,249.2612 Q29.8063,247.605 32.3063,247.605 Q33.0094,247.605 33.65,247.7612 Q34.3063,247.9175 34.8688,248.2144 L34.8688,250.9331 Q34.2438,250.355 33.65,250.0894 Q33.0563,249.8081 32.4313,249.8081 Q31.0875,249.8081 30.4,250.8862 Q29.7125,251.9487 29.7125,254.0425 Q29.7125,256.1362 30.4,257.2144 Q31.0875,258.2769 32.4313,258.2769 Q33.0563,258.2769 33.65,258.0112 Q34.2438,257.73 34.8688,257.1519 L34.8688,259.8706 Z " fill="#000000"/><text fill="#000000" font-family="sans-serif" font-size="14" lengthAdjust="spacing" textLength="116" x="48.1" y="259.0767">EmpresaParceira</text><line style="stroke:#181818;stroke-width:0.5;" x1="8" x2="176" y1="270.23" y2="270.23"/><rect fill="none" height="6" style="stroke:#C82930;stroke-width:1.0;" width="6" x="15" y="280.8784"/><text fill="#000000" font-family="sans-serif" font-size="14" lengthAdjust="spacing" textLength="78" x="27" y="287.2251">cnpj: String</text><line style="stroke:#181818;stroke-width:0.5;" x1="8" x2="176" y1="294.5269" y2="294.5269"/><ellipse cx="18" cy="308.1753" fill="#84BE84" rx="3" ry="3" style="stroke:#038048;stroke-width:1.0;"/><text fill="#000000" font-family="sans-serif" font-size="14" lengthAdjust="spacing" textLength="74" x="27" y="311.522">cadastrar()</text><ellipse cx="18" cy="324.4722" fill="#84BE84" rx="3" ry="3" style="stroke:#038048;stroke-width:1.0;"/><text fill="#000000" font-family="sans-serif" font-size="14" lengthAdjust="spacing" textLength="144" x="27" y="327.8189">cadastrarVantagem()</text></g><!--class InstituicaoEnsino--><g id="elem_InstituicaoEnsino"><rect codeLine="34" fill="#F1F1F1" height="80.5938" id="InstituicaoEnsino" rx="2.5" ry="2.5" style="stroke:#181818;stroke-width:0.5;" width="149" x="456.5" y="469.16"/><ellipse cx="471.5" cy="485.16" fill="#ADD1B2" rx="11" ry="11" style="stroke:#181818;stroke-width:1.0;"/><path d="M474.4688,490.8006 Q473.8906,491.0975 473.25,491.2381 Q472.6094,491.3944 471.9063,491.3944 Q469.4063,491.3944 468.0781,489.7537 Q466.7656,488.0975 466.7656,484.9725 Q466.7656,481.8475 468.0781,480.1912 Q469.4063,478.535 471.9063,478.535 Q472.6094,478.535 473.25,478.6912 Q473.9063,478.8475 474.4688,479.1444 L474.4688,481.8631 Q473.8438,481.285 473.25,481.0194 Q472.6563,480.7381 472.0313,480.7381 Q470.6875,480.7381 470,481.8162 Q469.3125,482.8787 469.3125,484.9725 Q469.3125,487.0662 470,488.1444 Q470.6875,489.2069 472.0313,489.2069 Q472.6563,489.2069 473.25,488.9412 Q473.8438,488.66 474.4688,488.0819 L474.4688,490.8006 Z " fill="#000000"/><text fill="#000000" font-family="sans-serif" font-size="14" lengthAdjust="spacing" textLength="117" x="485.5" y="490.0067">InstituicaoEnsino</text><line style="stroke:#181818;stroke-width:0.5;" x1="457.5" x2="604.5" y1="501.16" y2="501.16"/><rect fill="none" height="6" style="stroke:#C82930;stroke-width:1.0;" width="6" x="464.5" y="511.8084"/><text fill="#000000" font-family="sans-serif" font-size="14" lengthAdjust="spacing" textLength="38" x="476.5" y="518.1551">id: int</text><rect fill="none" height="6" style="stroke:#C82930;stroke-width:1.0;" width="6" x="464.5" y="528.1053"/><text fill="#000000" font-family="sans-serif" font-size="14" lengthAdjust="spacing" textLength="89" x="476.5" y="534.452">nome: String</text><line style="stroke:#181818;stroke-width:0.5;" x1="457.5" x2="604.5" y1="541.7538" y2="541.7538"/></g><!--class Vantagem--><g id="elem_Vantagem"><rect codeLine="39" fill="#F1F1F1" height="113.1875" id="Vantagem" rx="2.5" ry="2.5" style="stroke:#181818;stroke-width:0.5;" width="146" x="57" y="452.86"/><ellipse cx="91.8" cy="468.86" fill="#ADD1B2" rx="11" ry="11" style="stroke:#181818;stroke-width:1.0;"/><path d="M94.7688,474.5006 Q94.1906,474.7975 93.55,474.9381 Q92.9094,475.0944 92.2063,475.0944 Q89.7063,475.0944 88.3781,473.4537 Q87.0656,471.7975 87.0656,468.6725 Q87.0656,465.5475 88.3781,463.8912 Q89.7063,462.235 92.2063,462.235 Q92.9094,462.235 93.55,462.3912 Q94.2063,462.5475 94.7688,462.8444 L94.7688,465.5631 Q94.1438,464.985 93.55,464.7194 Q92.9563,464.4381 92.3313,464.4381 Q90.9875,464.4381 90.3,465.5162 Q89.6125,466.5787 89.6125,468.6725 Q89.6125,470.7662 90.3,471.8444 Q90.9875,472.9069 92.3313,472.9069 Q92.9563,472.9069 93.55,472.6412 Q94.1438,472.36 94.7688,471.7819 L94.7688,474.5006 Z " fill="#000000"/><text fill="#000000" font-family="sans-serif" font-size="14" lengthAdjust="spacing" textLength="70" x="110.2" y="473.7067">Vantagem</text><line style="stroke:#181818;stroke-width:0.5;" x1="58" x2="202" y1="484.86" y2="484.86"/><rect fill="none" height="6" style="stroke:#C82930;stroke-width:1.0;" width="6" x="65" y="495.5084"/><text fill="#000000" font-family="sans-serif" font-size="14" lengthAdjust="spacing" textLength="38" x="77" y="501.8551">id: int</text><rect fill="none" height="6" style="stroke:#C82930;stroke-width:1.0;" width="6" x="65" y="511.8053"/><text fill="#000000" font-family="sans-serif" font-size="14" lengthAdjust="spacing" textLength="116" x="77" y="518.152">descricao: String</text><rect fill="none" height="6" style="stroke:#C82930;stroke-width:1.0;" width="6" x="65" y="528.1022"/><text fill="#000000" font-family="sans-serif" font-size="14" lengthAdjust="spacing" textLength="76" x="77" y="534.4489">foto: String</text><rect fill="none" height="6" style="stroke:#C82930;stroke-width:1.0;" width="6" x="65" y="544.3991"/><text fill="#000000" font-family="sans-serif" font-size="14" lengthAdjust="spacing" textLength="120" x="77" y="550.7457">custoMoedas: int</text><line style="stroke:#181818;stroke-width:0.5;" x1="58" x2="202" y1="558.0475" y2="558.0475"/></g><!--class Transacao--><g id="elem_Transacao"><rect codeLine="46" fill="#F1F1F1" height="113.1875" id="Transacao" rx="2.5" ry="2.5" style="stroke:#181818;stroke-width:0.5;" width="130" x="242" y="452.86"/><ellipse cx="268.7" cy="468.86" fill="#ADD1B2" rx="11" ry="11" style="stroke:#181818;stroke-width:1.0;"/><path d="M271.6688,474.5006 Q271.0906,474.7975 270.45,474.9381 Q269.8094,475.0944 269.1063,475.0944 Q266.6063,475.0944 265.2781,473.4537 Q263.9656,471.7975 263.9656,468.6725 Q263.9656,465.5475 265.2781,463.8912 Q266.6063,462.235 269.1063,462.235 Q269.8094,462.235 270.45,462.3912 Q271.1063,462.5475 271.6688,462.8444 L271.6688,465.5631 Q271.0438,464.985 270.45,464.7194 Q269.8563,464.4381 269.2313,464.4381 Q267.8875,464.4381 267.2,465.5162 Q266.5125,466.5787 266.5125,468.6725 Q266.5125,470.7662 267.2,471.8444 Q267.8875,472.9069 269.2313,472.9069 Q269.8563,472.9069 270.45,472.6412 Q271.0438,472.36 271.6688,471.7819 L271.6688,474.5006 Z " fill="#000000"/><text fill="#000000" font-family="sans-serif" font-size="14" lengthAdjust="spacing" textLength="72" x="285.3" y="473.7067">Transacao</text><line style="stroke:#181818;stroke-width:0.5;" x1="243" x2="371" y1="484.86" y2="484.86"/><rect fill="none" height="6" style="stroke:#C82930;stroke-width:1.0;" width="6" x="250" y="495.5084"/><text fill="#000000" font-family="sans-serif" font-size="14" lengthAdjust="spacing" textLength="38" x="262" y="501.8551">id: int</text><rect fill="none" height="6" style="stroke:#C82930;stroke-width:1.0;" width="6" x="250" y="511.8053"/><text fill="#000000" font-family="sans-serif" font-size="14" lengthAdjust="spacing" textLength="72" x="262" y="518.152">data: Date</text><rect fill="none" height="6" style="stroke:#C82930;stroke-width:1.0;" width="6" x="250" y="528.1022"/><text fill="#000000" font-family="sans-serif" font-size="14" lengthAdjust="spacing" textLength="104" x="262" y="534.4489">quantidade: int</text><rect fill="none" height="6" style="stroke:#C82930;stroke-width:1.0;" width="6" x="250" y="544.3991"/><text fill="#000000" font-family="sans-serif" font-size="14" lengthAdjust="spacing" textLength="95" x="262" y="550.7457">motivo: String</text><line style="stroke:#181818;stroke-width:0.5;" x1="243" x2="371" y1="558.0475" y2="558.0475"/></g><!--reverse link Usuario to Aluno--><g id="link_Usuario_Aluno"><path codeLine="53" d="M286,157.6 C286,170.64 286,184.13 286,197.25 " fill="none" id="Usuario-backto-Aluno" style="stroke:#181818;stroke-width:1.0;"/><polygon fill="none" points="279,157.92,286,137.92,293,157.92,279,157.92" style="stroke:#181818;stroke-width:1.0;"/></g><!--reverse link Usuario to Professor--><g id="link_Usuario_Professor"><path codeLine="54" d="M359.02,152.07 C380.13,175.01 402.91,199.75 423.05,221.63 " fill="none" id="Usuario-backto-Professor" style="stroke:#181818;stroke-width:1.0;"/><polygon fill="none" points="354.47,157.38,346.07,137.92,364.77,147.89,354.47,157.38" style="stroke:#181818;stroke-width:1.0;"/></g><!--reverse link Usuario to EmpresaParceira--><g id="link_Usuario_EmpresaParceira"><path codeLine="55" d="M213.67,152.13 C187.41,180.96 158.56,212.62 135.55,237.87 " fill="none" id="Usuario-backto-EmpresaParceira" style="stroke:#181818;stroke-width:1.0;"/><polygon fill="none" points="207.89,147.99,226.53,137.92,218.24,157.42,207.89,147.99" style="stroke:#181818;stroke-width:1.0;"/></g><!--link Aluno to InstituicaoEnsino--><g id="link_Aluno_InstituicaoEnsino"><path codeLine="57" d="M325.65,376.02 C335.86,392.9 348,409.45 362,422.86 C388.72,448.45 424.6,468.08 456.42,482.05 " fill="none" id="Aluno-InstituicaoEnsino" style="stroke:#181818;stroke-width:1.0;"/><text fill="#000000" font-family="sans-serif" font-size="13" lengthAdjust="spacing" textLength="69" x="363" y="418.9269">estuda em</text><text fill="#000000" font-family="sans-serif" font-size="13" lengthAdjust="spacing" textLength="8" x="320.4909" y="395.8093">1</text><text fill="#000000" font-family="sans-serif" font-size="13" lengthAdjust="spacing" textLength="8" x="440.3164" y="475.524">1</text></g><!--link Professor to InstituicaoEnsino--><g id="link_Professor_InstituicaoEnsino"><path codeLine="58" d="M502.87,351.62 C508.03,369.08 513.18,388.08 517,405.86 C521.42,426.43 524.72,449.62 527.01,468.75 " fill="none" id="Professor-InstituicaoEnsino" style="stroke:#181818;stroke-width:1.0;"/><text fill="#000000" font-family="sans-serif" font-size="13" lengthAdjust="spacing" textLength="78" x="521" y="418.9269">trabalha em</text><text fill="#000000" font-family="sans-serif" font-size="13" lengthAdjust="spacing" textLength="8" x="496.7152" y="371.6181">1</text><text fill="#000000" font-family="sans-serif" font-size="13" lengthAdjust="spacing" textLength="8" x="517.7366" y="458.1445">1</text></g><!--link EmpresaParceira to Vantagem--><g id="link_EmpresaParceira_Vantagem"><path codeLine="60" d="M90.5,335.35 C90.58,361.45 92.16,394.2 98,422.86 C100,432.66 102.95,442.81 106.26,452.56 " fill="none" id="EmpresaParceira-Vantagem" style="stroke:#181818;stroke-width:1.0;"/><text fill="#000000" font-family="sans-serif" font-size="13" lengthAdjust="spacing" textLength="48" x="99" y="418.9269">oferece</text><text fill="#000000" font-family="sans-serif" font-size="13" lengthAdjust="spacing" textLength="8" x="81.7266" y="355.3258">1</text><text fill="#000000" font-family="sans-serif" font-size="13" lengthAdjust="spacing" textLength="7" x="95.9401" y="441.787">*</text></g><!--link Aluno to Vantagem--><g id="link_Aluno_Vantagem"><path codeLine="61" d="M223.45,376.2 C205.22,402 185.83,429.45 169.46,452.62 " fill="none" id="Aluno-Vantagem" style="stroke:#181818;stroke-width:1.0;"/><text fill="#000000" font-family="sans-serif" font-size="13" lengthAdjust="spacing" textLength="49" x="199" y="418.9269">resgata</text><text fill="#000000" font-family="sans-serif" font-size="13" lengthAdjust="spacing" textLength="8" x="210.1468" y="396.0037">1</text><text fill="#000000" font-family="sans-serif" font-size="13" lengthAdjust="spacing" textLength="7" x="166.8426" y="441.8543">*</text></g><!--link Aluno to Transacao--><g id="link_Aluno_Transacao"><path codeLine="63" d="M277.08,376.3 C276.93,391.87 277.69,407.89 280,422.86 C281.49,432.56 283.89,442.68 286.65,452.41 " fill="none" id="Aluno-Transacao" style="stroke:#181818;stroke-width:1.0;"/><text fill="#000000" font-family="sans-serif" font-size="13" lengthAdjust="spacing" textLength="44" x="281" y="418.9269">recebe</text><text fill="#000000" font-family="sans-serif" font-size="13" lengthAdjust="spacing" textLength="8" x="268.0908" y="395.8079">1</text><text fill="#000000" font-family="sans-serif" font-size="13" lengthAdjust="spacing" textLength="7" x="276.7433" y="441.6187">*</text></g><!--link Professor to Transacao--><g id="link_Professor_Transacao"><path codeLine="64" d="M472.27,351.87 C466.24,375.91 456.55,402.34 441,422.86 C423.16,446.4 396.83,465.22 372.21,479.15 " fill="none" id="Professor-Transacao" style="stroke:#181818;stroke-width:1.0;"/><text fill="#000000" font-family="sans-serif" font-size="13" lengthAdjust="spacing" textLength="34" x="452" y="418.9269">envia</text><text fill="#000000" font-family="sans-serif" font-size="13" lengthAdjust="spacing" textLength="8" x="462.8541" y="371.4407">1</text><text fill="#000000" font-family="sans-serif" font-size="13" lengthAdjust="spacing" textLength="7" x="380.1546" y="471.8535">*</text></g><!--SRC=[XLAxRiCm3Dpr5KAcja66haQN0irGe0K2zB4p4ksei2MNf8EYZt-l7CUsx0J8PFDqF9sED2KmwpTkW5pGFqhhbREPTbxQNnygpFIBaFD5MsC5ham1Hh-315Zcy8tq50hdhwxLdrBce7zVDlweRkey5Q1Yekyj4fgGOgOXdW0CfGtF0IrmRtHf85P2GF7MjWoUcrA0rbyHbD2XGi40TPsfkms579a3dNLeiGOIgD3BHHlMHHDksxZnblDkXhlNLKt8i04ow0YE3dpzaOOwVrrVleCNAB1A1HyzYvF66GXhpyvV6EhGrskTq2soeLOkVNmUP3OabaaOW-uhWMU8xQV2875r7a2mhJwRQC1Pi3WGgY1k7rAh_PxU_QvMtL9DeM6IKtWMibBTFYvk5pgUjf_Jr3ADB8q5ZPKQ5-H2InpA5ihTeKdDHzlttYp6i3CTbUF6uypIb1DbYXYMEYMDwROiWriyOtR6Gxzty0y0]--></g></svg>