<svg xmlns="http://www.w3.org/2000/svg" xmlns:xlink="http://www.w3.org/1999/xlink" contentStyleType="text/css" height="475px" preserveAspectRatio="none" style="width:713px;height:475px;background:#FFFFFF;" version="1.1" viewBox="0 0 713 475" width="713px" zoomAndPan="magnify"><defs/><g><rect fill="none" height="279.3281" style="stroke:#000000;stroke-width:1.5;" width="697.2969" x="10" y="98.2969"/><line style="stroke:#181818;stroke-width:0.5;stroke-dasharray:5.0,5.0;" x1="42" x2="42" y1="81.2969" y2="394.625"/><line style="stroke:#181818;stroke-width:0.5;stroke-dasharray:5.0,5.0;" x1="197.0645" x2="197.0645" y1="81.2969" y2="394.625"/><line style="stroke:#181818;stroke-width:0.5;stroke-dasharray:5.0,5.0;" x1="487.7085" x2="487.7085" y1="81.2969" y2="394.625"/><line style="stroke:#181818;stroke-width:0.5;stroke-dasharray:5.0,5.0;" x1="663.2676" x2="663.2676" y1="81.2969" y2="394.625"/><text fill="#000000" font-family="sans-serif" font-size="14" lengthAdjust="spacing" textLength="39.7783" x="20" y="77.9951">Aluno</text><ellipse cx="42.8892" cy="13.5" fill="#E2E2F0" rx="8" ry="8" style="stroke:#181818;stroke-width:0.5;"/><path d="M42.8892,21.5 L42.8892,48.5 M29.8892,29.5 L55.8892,29.5 M42.8892,48.5 L29.8892,63.5 M42.8892,48.5 L55.8892,63.5 " fill="none" style="stroke:#181818;stroke-width:0.5;"/><text fill="#000000" font-family="sans-serif" font-size="14" lengthAdjust="spacing" textLength="39.7783" x="20" y="406.6201">Aluno</text><ellipse cx="42.8892" cy="418.4219" fill="#E2E2F0" rx="8" ry="8" style="stroke:#181818;stroke-width:0.5;"/><path d="M42.8892,426.4219 L42.8892,453.4219 M29.8892,434.4219 L55.8892,434.4219 M42.8892,453.4219 L29.8892,468.4219 M42.8892,453.4219 L55.8892,468.4219 " fill="none" style="stroke:#181818;stroke-width:0.5;"/><rect fill="#E2E2F0" height="30.2969" rx="2.5" ry="2.5" style="stroke:#181818;stroke-width:0.5;" width="77.1094" x="159.0645" y="50"/><text fill="#000000" font-family="sans-serif" font-size="14" lengthAdjust="spacing" textLength="63.1094" x="166.0645" y="69.9951">Frontend</text><rect fill="#E2E2F0" height="30.2969" rx="2.5" ry="2.5" style="stroke:#181818;stroke-width:0.5;" width="77.1094" x="159.0645" y="393.625"/><text fill="#000000" font-family="sans-serif" font-size="14" lengthAdjust="spacing" textLength="63.1094" x="166.0645" y="413.6201">Frontend</text><rect fill="#E2E2F0" height="30.2969" rx="2.5" ry="2.5" style="stroke:#181818;stroke-width:0.5;" width="70.3896" x="452.7085" y="50"/><text fill="#000000" font-family="sans-serif" font-size="14" lengthAdjust="spacing" textLength="56.3896" x="459.7085" y="69.9951">Sistema</text><rect fill="#E2E2F0" height="30.2969" rx="2.5" ry="2.5" style="stroke:#181818;stroke-width:0.5;" width="70.3896" x="452.7085" y="393.625"/><text fill="#000000" font-family="sans-serif" font-size="14" lengthAdjust="spacing" textLength="56.3896" x="459.7085" y="413.6201">Sistema</text><text fill="#000000" font-family="sans-serif" font-size="14" lengthAdjust="spacing" textLength="62.0293" x="629.2676" y="77.9951">Firestore</text><path d="M645.2822,29 C645.2822,19 663.2822,19 663.2822,19 C663.2822,19 681.2822,19 681.2822,29 L681.2822,55 C681.2822,65 663.2822,65 663.2822,65 C663.2822,65 645.2822,65 645.2822,55 L645.2822,29 " fill="#E2E2F0" style="stroke:#181818;stroke-width:1.5;"/><path d="M645.2822,29 C645.2822,39 663.2822,39 663.2822,39 C663.2822,39 681.2822,39 681.2822,29 " fill="none" style="stroke:#181818;stroke-width:1.5;"/><text fill="#000000" font-family="sans-serif" font-size="14" lengthAdjust="spacing" textLength="62.0293" x="629.2676" y="406.6201">Firestore</text><path d="M645.2822,419.9219 C645.2822,409.9219 663.2822,409.9219 663.2822,409.9219 C663.2822,409.9219 681.2822,409.9219 681.2822,419.9219 L681.2822,445.9219 C681.2822,455.9219 663.2822,455.9219 663.2822,455.9219 C663.2822,455.9219 645.2822,455.9219 645.2822,445.9219 L645.2822,419.9219 " fill="#E2E2F0" style="stroke:#181818;stroke-width:1.5;"/><path d="M645.2822,419.9219 C645.2822,429.9219 663.2822,429.9219 663.2822,429.9219 C663.2822,429.9219 681.2822,429.9219 681.2822,419.9219 " fill="none" style="stroke:#181818;stroke-width:1.5;"/><path d="M10,98.2969 L220.0391,98.2969 L220.0391,105.4297 L210.0391,115.4297 L10,115.4297 L10,98.2969 " fill="#EEEEEE" style="stroke:#000000;stroke-width:1.5;"/><rect fill="none" height="279.3281" style="stroke:#000000;stroke-width:1.5;" width="697.2969" x="10" y="98.2969"/><text fill="#000000" font-family="sans-serif" font-size="13" font-weight="bold" lengthAdjust="spacing" textLength="165.0391" x="25" y="111.3638">Resgate de Vantagens</text><polygon fill="#181818" points="185.6191,132.5625,195.6191,136.5625,185.6191,140.5625,189.6191,136.5625" style="stroke:#181818;stroke-width:1.0;"/><line style="stroke:#181818;stroke-width:1.0;" x1="42.8892" x2="191.6191" y1="136.5625" y2="136.5625"/><text fill="#000000" font-family="sans-serif" font-size="13" lengthAdjust="spacing" textLength="130.73" x="49.8892" y="131.4966">Clica em "Resgatar"</text><polygon fill="#181818" points="475.9033,161.6953,485.9033,165.6953,475.9033,169.6953,479.9033,165.6953" style="stroke:#181818;stroke-width:1.0;"/><line style="stroke:#181818;stroke-width:1.0;" x1="197.6191" x2="481.9033" y1="165.6953" y2="165.6953"/><text fill="#000000" font-family="sans-serif" font-size="13" lengthAdjust="spacing" textLength="266.2842" x="204.6191" y="160.6294">resgatarVantagem(alunoId, vantagemId)</text><polygon fill="#181818" points="651.2822,190.8281,661.2822,194.8281,651.2822,198.8281,655.2822,194.8281" style="stroke:#181818;stroke-width:1.0;"/><line style="stroke:#181818;stroke-width:1.0;" x1="487.9033" x2="657.2822" y1="194.8281" y2="194.8281"/><text fill="#000000" font-family="sans-serif" font-size="13" lengthAdjust="spacing" textLength="148.3193" x="494.9033" y="189.7622">Verifica saldo do aluno</text><polygon fill="#181818" points="498.9033,219.9609,488.9033,223.9609,498.9033,227.9609,494.9033,223.9609" style="stroke:#181818;stroke-width:1.0;"/><line style="stroke:#181818;stroke-width:1.0;stroke-dasharray:2.0,2.0;" x1="492.9033" x2="662.2822" y1="223.9609" y2="223.9609"/><text fill="#000000" font-family="sans-serif" font-size="13" lengthAdjust="spacing" textLength="90.3208" x="504.9033" y="218.895">Retorna saldo</text><polygon fill="#181818" points="651.2822,249.0938,661.2822,253.0938,651.2822,257.0938,655.2822,253.0938" style="stroke:#181818;stroke-width:1.0;"/><line style="stroke:#181818;stroke-width:1.0;" x1="487.9033" x2="657.2822" y1="253.0938" y2="253.0938"/><text fill="#000000" font-family="sans-serif" font-size="13" lengthAdjust="spacing" textLength="151.3789" x="494.9033" y="248.0278">Atualiza saldo do aluno</text><polygon fill="#181818" points="651.2822,278.2266,661.2822,282.2266,651.2822,286.2266,655.2822,282.2266" style="stroke:#181818;stroke-width:1.0;"/><line style="stroke:#181818;stroke-width:1.0;" x1="487.9033" x2="657.2822" y1="282.2266" y2="282.2266"/><text fill="#000000" font-family="sans-serif" font-size="13" lengthAdjust="spacing" textLength="107.6372" x="494.9033" y="277.1606">Registra resgate</text><polygon fill="#181818" points="498.9033,307.3594,488.9033,311.3594,498.9033,315.3594,494.9033,311.3594" style="stroke:#181818;stroke-width:1.0;"/><line style="stroke:#181818;stroke-width:1.0;stroke-dasharray:2.0,2.0;" x1="492.9033" x2="662.2822" y1="311.3594" y2="311.3594"/><text fill="#000000" font-family="sans-serif" font-size="13" lengthAdjust="spacing" textLength="130.9521" x="504.9033" y="306.2935">Confirma opera&#231;&#245;es</text><polygon fill="#181818" points="208.6191,336.4922,198.6191,340.4922,208.6191,344.4922,204.6191,340.4922" style="stroke:#181818;stroke-width:1.0;"/><line style="stroke:#181818;stroke-width:1.0;stroke-dasharray:2.0,2.0;" x1="202.6191" x2="486.9033" y1="340.4922" y2="340.4922"/><text fill="#000000" font-family="sans-serif" font-size="13" lengthAdjust="spacing" textLength="107.4214" x="214.6191" y="335.4263">Retorna sucesso</text><polygon fill="#181818" points="53.8892,365.625,43.8892,369.625,53.8892,373.625,49.8892,369.625" style="stroke:#181818;stroke-width:1.0;"/><line style="stroke:#181818;stroke-width:1.0;stroke-dasharray:2.0,2.0;" x1="47.8892" x2="196.6191" y1="369.625" y2="369.625"/><text fill="#000000" font-family="sans-serif" font-size="13" lengthAdjust="spacing" textLength="120.4722" x="59.8892" y="364.5591">Exibe confirma&#231;&#227;o</text><!--SRC=[RL5BQiCm4Dth58CtJQ2vW1U5E6x1MuTaFx4cHc1BHf9Ba-jqqHFq1BbOnsCHQh3GGkXzDS8cEW_PlXkjom03o4aDwADfp80sGlRXdOrajU2dQWaUJOZKes37stHM6YDUC10hZQV00IHmMIZr0ZM55YE19ZYp0xPa0smaTgjQxyPXbQA0bx1WzyOjSZXqfa6W7hAPZpuJqgcQ67EN77p2ab6_mScZqg_mcMuglHNTh9YqPP73cRovJW41E-s0jmY5MHQm-nTH4p_H9kQArJwEs9dxgjMIMLFBu_IOMjDQsi7Pg_4zWXl8u-FdyKjXOPN6ysmrDXI2Uuw6OHbZ3kzVvaBG93zs-dQAl_aF]--></g></svg>