<svg xmlns="http://www.w3.org/2000/svg" xmlns:xlink="http://www.w3.org/1999/xlink" contentStyleType="text/css" height="429px" preserveAspectRatio="none" style="width:1488px;height:429px;background:#FFFFFF;" version="1.1" viewBox="0 0 1488 429" width="1488px" zoomAndPan="magnify"><defs/><g><!--cluster Servidor de Aplica??o--><g id="cluster_Servidor de Aplica&#231;&#227;o"><polygon fill="none" points="16,169.7456,26,159.7456,585,159.7456,585,402.7456,575,412.7456,16,412.7456,16,169.7456" style="stroke:#181818;stroke-width:1.0;"/><line style="stroke:#181818;stroke-width:1.0;" x1="575" x2="585" y1="169.7456" y2="159.7456"/><line style="stroke:#181818;stroke-width:1.0;" x1="16" x2="575" y1="169.7456" y2="169.7456"/><line style="stroke:#181818;stroke-width:1.0;" x1="575" x2="575" y1="169.7456" y2="412.7456"/><text fill="#000000" font-family="sans-serif" font-size="14" font-weight="bold" lengthAdjust="spacing" textLength="171.7803" x="210.6099" y="185.7407">Servidor de Aplica&#231;&#227;o</text></g><!--cluster Internet--><g id="cluster_Internet"><path d="M57.1963,24.5046 C65.1244,14.2067 73.1289,11.1387 81.9531,23.5268 C87.1712,11.7172 98.2558,12.1117 105.5493,21.1814 C113.2831,7.5723 123.1917,10.2287 131.3659,20.7095 C139.5149,10.7544 147.4801,11.152 154.1945,22.2642 C160.5917,9.1323 168.6903,9.0614 178.0579,19.2208 C186.2934,9.083 195.0502,11.1368 200.6212,22.0734 C206.6565,10.5115 217.912,9.5096 225.3924,20.4849 C231.9427,7.4022 243.2724,6 251.377,18.9325 C256.8696,8.4824 265.9133,8.3664 271.587,18.7569 C280.7871,7.3881 294.1527,10.2938 299.5699,23.1302 C306.2134,13.2037 315.9301,10.9443 322.8666,22.817 C328.9967,9.3112 339.1668,11.3902 346.8066,21.2716 C354.7154,13.2346 362.585,15.2483 367.625,24.6887 C373.4595,14.1696 384.865,11.5567 392.4645,22.6612 C414.06,29.2947 423.9168,48.5686 404.2326,66.3271 C419.274,80.3692 417.4421,99.8949 394.4477,104.0782 C387.6056,115.9318 376.0777,116.1989 367.9066,105.653 C361.9091,115.8925 355.3381,117.4844 346.8947,108.2987 C339.6975,120.071 328.2036,120.6914 320.7425,108.5878 C312.7025,119.9588 305.2529,120.6493 296.1504,109.7615 C291.6539,120.8625 281.7748,121.8628 275.2897,111.7136 C268.4147,122.6314 256.6769,124.3118 249.6663,111.8622 C242.5274,124.2569 233.8452,122.8966 225.897,112.7142 C217.5781,126.1849 208.3709,125.6897 200.5404,112.2539 C192.9172,122.7334 185.7622,120.5745 179.5133,110.8254 C168.4144,121.6287 160.4531,120.2881 153.0294,106.8158 C144.8346,119.1615 136.6137,116.2936 129.0068,106.1868 C123.4971,116.3857 114.9418,118.1918 108.1881,107.422 C101.6757,119.7337 90.2423,118.111 83.5521,107.614 C74.6887,119.3193 64.8374,118.1443 59.3233,104.4225 C39.6337,94.7798 40.5438,76.832 56.4208,64.5972 C40.0057,52.719 35.4389,35.6444 57.1963,24.5046 " fill="none" style="stroke:#181818;stroke-width:1.0;"/><text fill="#000000" font-family="sans-serif" font-size="14" font-weight="bold" lengthAdjust="spacing" textLength="64.4219" x="191.2891" y="39.7407">Internet</text></g><!--cluster Servidor de Banco de Dados--><g id="cluster_Servidor de Banco de Dados"><polygon fill="none" points="609,320.7456,619,310.7456,907,310.7456,907,402.7456,897,412.7456,609,412.7456,609,320.7456" style="stroke:#181818;stroke-width:1.0;"/><line style="stroke:#181818;stroke-width:1.0;" x1="897" x2="907" y1="320.7456" y2="310.7456"/><line style="stroke:#181818;stroke-width:1.0;" x1="609" x2="897" y1="320.7456" y2="320.7456"/><line style="stroke:#181818;stroke-width:1.0;" x1="897" x2="897" y1="320.7456" y2="412.7456"/><text fill="#000000" font-family="sans-serif" font-size="14" font-weight="bold" lengthAdjust="spacing" textLength="222.5234" x="642.7383" y="336.7407">Servidor de Banco de Dados</text></g><!--cluster Servidor de Email--><g id="cluster_Servidor de Email"><polygon fill="none" points="931,320.7456,941,310.7456,1146,310.7456,1146,402.7456,1136,412.7456,931,412.7456,931,320.7456" style="stroke:#181818;stroke-width:1.0;"/><line style="stroke:#181818;stroke-width:1.0;" x1="1136" x2="1146" y1="320.7456" y2="310.7456"/><line style="stroke:#181818;stroke-width:1.0;" x1="931" x2="1136" y1="320.7456" y2="320.7456"/><line style="stroke:#181818;stroke-width:1.0;" x1="1136" x2="1136" y1="320.7456" y2="412.7456"/><text fill="#000000" font-family="sans-serif" font-size="14" font-weight="bold" lengthAdjust="spacing" textLength="139.4121" x="964.7939" y="336.7407">Servidor de Email</text></g><!--cluster Servidor de Armazenamento--><g id="cluster_Servidor de Armazenamento"><polygon fill="none" points="1170,320.7456,1180,310.7456,1471,310.7456,1471,402.7456,1461,412.7456,1170,412.7456,1170,320.7456" style="stroke:#181818;stroke-width:1.0;"/><line style="stroke:#181818;stroke-width:1.0;" x1="1461" x2="1471" y1="320.7456" y2="310.7456"/><line style="stroke:#181818;stroke-width:1.0;" x1="1170" x2="1461" y1="320.7456" y2="320.7456"/><line style="stroke:#181818;stroke-width:1.0;" x1="1461" x2="1461" y1="320.7456" y2="412.7456"/><text fill="#000000" font-family="sans-serif" font-size="14" font-weight="bold" lengthAdjust="spacing" textLength="225.4082" x="1203.7959" y="336.7407">Servidor de Armazenamento</text></g><!--cluster Servidor de Cache--><g id="cluster_Servidor de Cache"><polygon fill="none" points="683,18.7456,693,8.7456,902,8.7456,902,100.7456,892,110.7456,683,110.7456,683,18.7456" style="stroke:#181818;stroke-width:1.0;"/><line style="stroke:#181818;stroke-width:1.0;" x1="892" x2="902" y1="18.7456" y2="8.7456"/><line style="stroke:#181818;stroke-width:1.0;" x1="683" x2="892" y1="18.7456" y2="18.7456"/><line style="stroke:#181818;stroke-width:1.0;" x1="892" x2="892" y1="18.7456" y2="110.7456"/><text fill="#000000" font-family="sans-serif" font-size="14" font-weight="bold" lengthAdjust="spacing" textLength="143.6982" x="716.6509" y="34.7407">Servidor de Cache</text></g><!--cluster Servi?o de Monitoramento--><g id="cluster_Servi&#231;o de Monitoramento"><polygon fill="none" points="1056,18.7456,1066,8.7456,1340,8.7456,1340,251.7456,1330,261.7456,1056,261.7456,1056,18.7456" style="stroke:#181818;stroke-width:1.0;"/><line style="stroke:#181818;stroke-width:1.0;" x1="1330" x2="1340" y1="18.7456" y2="8.7456"/><line style="stroke:#181818;stroke-width:1.0;" x1="1056" x2="1330" y1="18.7456" y2="18.7456"/><line style="stroke:#181818;stroke-width:1.0;" x1="1330" x2="1330" y1="18.7456" y2="261.7456"/><text fill="#000000" font-family="sans-serif" font-size="14" font-weight="bold" lengthAdjust="spacing" textLength="208.9268" x="1089.5366" y="34.7407">Servi&#231;o de Monitoramento</text></g><!--entity Aplica??o Node.js (Express)--><g id="elem_Aplica&#231;&#227;o Node.js (Express)"><rect fill="#F1F1F1" height="46.2969" rx="2.5" ry="2.5" style="stroke:#181818;stroke-width:0.5;" width="234.332" x="335" y="199.7456"/><rect fill="#F1F1F1" height="10" style="stroke:#181818;stroke-width:0.5;" width="15" x="549.332" y="204.7456"/><rect fill="#F1F1F1" height="2" style="stroke:#181818;stroke-width:0.5;" width="4" x="547.332" y="206.7456"/><rect fill="#F1F1F1" height="2" style="stroke:#181818;stroke-width:0.5;" width="4" x="547.332" y="210.7456"/><text fill="#000000" font-family="sans-serif" font-size="14" lengthAdjust="spacing" textLength="194.332" x="350" y="232.7407">Aplica&#231;&#227;o Node.js (Express)</text></g><!--entity APIs RESTful (Alunos, Empresas)--><g id="elem_APIs RESTful (Alunos, Empresas)"><rect fill="#F1F1F1" height="46.2969" rx="2.5" ry="2.5" style="stroke:#181818;stroke-width:0.5;" width="267.8486" x="32" y="199.7456"/><rect fill="#F1F1F1" height="10" style="stroke:#181818;stroke-width:0.5;" width="15" x="279.8486" y="204.7456"/><rect fill="#F1F1F1" height="2" style="stroke:#181818;stroke-width:0.5;" width="4" x="277.8486" y="206.7456"/><rect fill="#F1F1F1" height="2" style="stroke:#181818;stroke-width:0.5;" width="4" x="277.8486" y="210.7456"/><text fill="#000000" font-family="sans-serif" font-size="14" lengthAdjust="spacing" textLength="227.8486" x="47" y="232.7407">APIs RESTful (Alunos, Empresas)</text></g><!--entity Configura??o Firebase--><g id="elem_Configura&#231;&#227;o Firebase"><rect fill="#F1F1F1" height="46.2969" rx="2.5" ry="2.5" style="stroke:#181818;stroke-width:0.5;" width="197.1035" x="46.5" y="350.7456"/><rect fill="#F1F1F1" height="10" style="stroke:#181818;stroke-width:0.5;" width="15" x="223.6035" y="355.7456"/><rect fill="#F1F1F1" height="2" style="stroke:#181818;stroke-width:0.5;" width="4" x="221.6035" y="357.7456"/><rect fill="#F1F1F1" height="2" style="stroke:#181818;stroke-width:0.5;" width="4" x="221.6035" y="361.7456"/><text fill="#000000" font-family="sans-serif" font-size="14" lengthAdjust="spacing" textLength="157.1035" x="61.5" y="383.7407">Configura&#231;&#227;o Firebase</text></g><!--entity Servidor Est?tico (HTML/CSS/JS)--><g id="elem_Servidor Est&#225;tico (HTML/CSS/JS)"><rect fill="#F1F1F1" height="46.2969" rx="2.5" ry="2.5" style="stroke:#181818;stroke-width:0.5;" width="263.2686" x="278.5" y="350.7456"/><rect fill="#F1F1F1" height="10" style="stroke:#181818;stroke-width:0.5;" width="15" x="521.7686" y="355.7456"/><rect fill="#F1F1F1" height="2" style="stroke:#181818;stroke-width:0.5;" width="4" x="519.7686" y="357.7456"/><rect fill="#F1F1F1" height="2" style="stroke:#181818;stroke-width:0.5;" width="4" x="519.7686" y="361.7456"/><text fill="#000000" font-family="sans-serif" font-size="14" lengthAdjust="spacing" textLength="223.2686" x="293.5" y="383.7407">Servidor Est&#225;tico (HTML/CSS/JS)</text></g><!--entity Cliente Web--><g id="elem_Cliente Web"><rect fill="#F1F1F1" height="46.2969" rx="2.5" ry="2.5" style="stroke:#181818;stroke-width:0.5;" width="124.9365" x="64.5" y="48.7456"/><rect fill="#F1F1F1" height="10" style="stroke:#181818;stroke-width:0.5;" width="15" x="169.4365" y="53.7456"/><rect fill="#F1F1F1" height="2" style="stroke:#181818;stroke-width:0.5;" width="4" x="167.4365" y="55.7456"/><rect fill="#F1F1F1" height="2" style="stroke:#181818;stroke-width:0.5;" width="4" x="167.4365" y="59.7456"/><text fill="#000000" font-family="sans-serif" font-size="14" lengthAdjust="spacing" textLength="84.9365" x="79.5" y="81.7407">Cliente Web</text></g><!--entity Aplicativo Mobile--><g id="elem_Aplicativo Mobile"><rect fill="#F1F1F1" height="46.2969" rx="2.5" ry="2.5" style="stroke:#181818;stroke-width:0.5;" width="159.123" x="224.5" y="48.7456"/><rect fill="#F1F1F1" height="10" style="stroke:#181818;stroke-width:0.5;" width="15" x="363.623" y="53.7456"/><rect fill="#F1F1F1" height="2" style="stroke:#181818;stroke-width:0.5;" width="4" x="361.623" y="55.7456"/><rect fill="#F1F1F1" height="2" style="stroke:#181818;stroke-width:0.5;" width="4" x="361.623" y="59.7456"/><text fill="#000000" font-family="sans-serif" font-size="14" lengthAdjust="spacing" textLength="119.123" x="239.5" y="81.7407">Aplicativo Mobile</text></g><!--entity Firebase--><g id="elem_Firebase"><rect fill="#F1F1F1" height="46.2969" rx="2.5" ry="2.5" style="stroke:#181818;stroke-width:0.5;" width="99.6846" x="625" y="350.7456"/><rect fill="#F1F1F1" height="10" style="stroke:#181818;stroke-width:0.5;" width="15" x="704.6846" y="355.7456"/><rect fill="#F1F1F1" height="2" style="stroke:#181818;stroke-width:0.5;" width="4" x="702.6846" y="357.7456"/><rect fill="#F1F1F1" height="2" style="stroke:#181818;stroke-width:0.5;" width="4" x="702.6846" y="361.7456"/><text fill="#000000" font-family="sans-serif" font-size="14" lengthAdjust="spacing" textLength="59.6846" x="640" y="383.7407">Firebase</text></g><!--entity Servi?o de Email--><g id="elem_Servi&#231;o de Email"><rect fill="#F1F1F1" height="46.2969" rx="2.5" ry="2.5" style="stroke:#181818;stroke-width:0.5;" width="156.9355" x="947.5" y="350.7456"/><rect fill="#F1F1F1" height="10" style="stroke:#181818;stroke-width:0.5;" width="15" x="1084.4355" y="355.7456"/><rect fill="#F1F1F1" height="2" style="stroke:#181818;stroke-width:0.5;" width="4" x="1082.4355" y="357.7456"/><rect fill="#F1F1F1" height="2" style="stroke:#181818;stroke-width:0.5;" width="4" x="1082.4355" y="361.7456"/><text fill="#000000" font-family="sans-serif" font-size="14" lengthAdjust="spacing" textLength="116.9355" x="962.5" y="383.7407">Servi&#231;o de Email</text></g><!--entity Armazenamento de Arquivos--><g id="elem_Armazenamento de Arquivos"><rect fill="#F1F1F1" height="46.2969" rx="2.5" ry="2.5" style="stroke:#181818;stroke-width:0.5;" width="243.6699" x="1186" y="350.7456"/><rect fill="#F1F1F1" height="10" style="stroke:#181818;stroke-width:0.5;" width="15" x="1409.6699" y="355.7456"/><rect fill="#F1F1F1" height="2" style="stroke:#181818;stroke-width:0.5;" width="4" x="1407.6699" y="357.7456"/><rect fill="#F1F1F1" height="2" style="stroke:#181818;stroke-width:0.5;" width="4" x="1407.6699" y="361.7456"/><text fill="#000000" font-family="sans-serif" font-size="14" lengthAdjust="spacing" textLength="203.6699" x="1201" y="383.7407">Armazenamento de Arquivos</text></g><!--entity Redis--><g id="elem_Redis"><rect fill="#F1F1F1" height="46.2969" rx="2.5" ry="2.5" style="stroke:#181818;stroke-width:0.5;" width="78.4111" x="753" y="48.7456"/><rect fill="#F1F1F1" height="10" style="stroke:#181818;stroke-width:0.5;" width="15" x="811.4111" y="53.7456"/><rect fill="#F1F1F1" height="2" style="stroke:#181818;stroke-width:0.5;" width="4" x="809.4111" y="55.7456"/><rect fill="#F1F1F1" height="2" style="stroke:#181818;stroke-width:0.5;" width="4" x="809.4111" y="59.7456"/><text fill="#000000" font-family="sans-serif" font-size="14" lengthAdjust="spacing" textLength="38.4111" x="768" y="81.7407">Redis</text></g><!--entity Prometheus--><g id="elem_Prometheus"><rect fill="#F1F1F1" height="46.2969" rx="2.5" ry="2.5" style="stroke:#181818;stroke-width:0.5;" width="124.1572" x="1136" y="48.7456"/><rect fill="#F1F1F1" height="10" style="stroke:#181818;stroke-width:0.5;" width="15" x="1240.1572" y="53.7456"/><rect fill="#F1F1F1" height="2" style="stroke:#181818;stroke-width:0.5;" width="4" x="1238.1572" y="55.7456"/><rect fill="#F1F1F1" height="2" style="stroke:#181818;stroke-width:0.5;" width="4" x="1238.1572" y="59.7456"/><text fill="#000000" font-family="sans-serif" font-size="14" lengthAdjust="spacing" textLength="84.1572" x="1151" y="81.7407">Prometheus</text></g><!--entity Grafana--><g id="elem_Grafana"><rect fill="#F1F1F1" height="46.2969" rx="2.5" ry="2.5" style="stroke:#181818;stroke-width:0.5;" width="96.1436" x="1150" y="199.7456"/><rect fill="#F1F1F1" height="10" style="stroke:#181818;stroke-width:0.5;" width="15" x="1226.1436" y="204.7456"/><rect fill="#F1F1F1" height="2" style="stroke:#181818;stroke-width:0.5;" width="4" x="1224.1436" y="206.7456"/><rect fill="#F1F1F1" height="2" style="stroke:#181818;stroke-width:0.5;" width="4" x="1224.1436" y="210.7456"/><text fill="#000000" font-family="sans-serif" font-size="14" lengthAdjust="spacing" textLength="56.1436" x="1165" y="232.7407">Grafana</text></g><!--link Cliente Web to APIs RESTful (Alunos, Empresas)--><g id="link_Cliente Web_APIs RESTful (Alunos, Empresas)"><path d="M132.84,95.0556 C140.19,123.1456 151.2309,165.3211 158.6009,193.4811 " fill="none" id="Cliente Web-to-APIs RESTful (Alunos, Empresas)" style="stroke:#181818;stroke-width:1.0;"/><polygon fill="#181818" points="160.12,199.2856,161.7109,189.5661,158.854,194.4485,153.9716,191.5916,160.12,199.2856" style="stroke:#181818;stroke-width:1.0;"/><text fill="#000000" font-family="sans-serif" font-size="13" lengthAdjust="spacing" textLength="41.7485" x="147" y="139.8125">HTTPS</text></g><!--link Aplicativo Mobile to APIs RESTful (Alunos, Empresas)--><g id="link_Aplicativo Mobile_APIs RESTful (Alunos, Empresas)"><path d="M283.34,95.0556 C257.32,123.1456 216.9569,166.7235 190.8769,194.8835 " fill="none" id="Aplicativo Mobile-to-APIs RESTful (Alunos, Empresas)" style="stroke:#181818;stroke-width:1.0;"/><polygon fill="#181818" points="186.8,199.2856,195.8502,195.4004,190.1975,195.6172,189.9807,189.9645,186.8,199.2856" style="stroke:#181818;stroke-width:1.0;"/><text fill="#000000" font-family="sans-serif" font-size="13" lengthAdjust="spacing" textLength="41.7485" x="252" y="139.8125">HTTPS</text></g><!--link APIs RESTful (Alunos, Empresas) to Configura??o Firebase--><g id="link_APIs RESTful (Alunos, Empresas)_Configura&#231;&#227;o Firebase"><path d="M162.86,246.0556 C158.9,274.1456 152.9655,316.1841 149.0055,344.3441 " fill="none" id="APIs RESTful (Alunos, Empresas)-to-Configura&#231;&#227;o Firebase" style="stroke:#181818;stroke-width:1.0;"/><polygon fill="#181818" points="148.17,350.2856,153.3843,341.9303,148.8663,345.3343,145.4623,340.8163,148.17,350.2856" style="stroke:#181818;stroke-width:1.0;"/></g><!--link APIs RESTful (Alunos, Empresas) to Servidor Est?tico (HTML/CSS/JS)--><g id="link_APIs RESTful (Alunos, Empresas)_Servidor Est&#225;tico (HTML/CSS/JS)"><path d="M202.27,245.8956 C248.46,274.1056 322.7097,319.4379 368.8097,347.5979 " fill="none" id="APIs RESTful (Alunos, Empresas)-to-Servidor Est&#225;tico (HTML/CSS/JS)" style="stroke:#181818;stroke-width:1.0;"/><polygon fill="#181818" points="373.93,350.7256,368.3347,342.6205,369.6631,348.1192,364.1644,349.4476,373.93,350.7256" style="stroke:#181818;stroke-width:1.0;"/></g><!--link APIs RESTful (Alunos, Empresas) to Firebase--><g id="link_APIs RESTful (Alunos, Empresas)_Firebase"><path d="M230.09,245.7956 C256.97,254.3456 288.73,263.5556 318,269.7456 C434.98,294.4856 474.5,257.0656 585,302.7456 C611.34,313.6356 632.1748,330.2986 649.1648,346.3986 " fill="none" id="APIs RESTful (Alunos, Empresas)-to-Firebase" style="stroke:#181818;stroke-width:1.0;"/><polygon fill="#181818" points="653.52,350.5256,649.7386,341.4316,649.8907,347.0864,644.2359,347.2385,653.52,350.5256" style="stroke:#181818;stroke-width:1.0;"/><text fill="#000000" font-family="sans-serif" font-size="13" lengthAdjust="spacing" textLength="58.1382" x="560" y="290.8125">API REST</text></g><!--link APIs RESTful (Alunos, Empresas) to Servi?o de Email--><g id="link_APIs RESTful (Alunos, Empresas)_Servi&#231;o de Email"><path d="M225.41,245.7656 C253.14,254.9856 286.83,264.7156 318,269.7456 C385.81,280.6856 558.81,269.4656 627,277.7456 C678.49,283.9956 690.48,291.0056 741,302.7456 C810.97,319.0056 884.4995,337.139 941.6795,351.449 " fill="none" id="APIs RESTful (Alunos, Empresas)-to-Servi&#231;o de Email" style="stroke:#181818;stroke-width:1.0;"/><polygon fill="#181818" points="947.5,352.9056,939.7404,346.8403,942.6496,351.6918,937.7982,354.601,947.5,352.9056" style="stroke:#181818;stroke-width:1.0;"/><text fill="#000000" font-family="sans-serif" font-size="13" lengthAdjust="spacing" textLength="35.2485" x="709" y="290.8125">SMTP</text></g><!--link APIs RESTful (Alunos, Empresas) to Armazenamento de Arquivos--><g id="link_APIs RESTful (Alunos, Empresas)_Armazenamento de Arquivos"><path d="M225.03,245.7456 C252.82,255.0356 286.68,264.8156 318,269.7456 C365.75,277.2656 704.7,275.6656 753,277.7456 C916.78,284.8056 960.77,268.0856 1121,302.7456 C1170.13,313.3756 1218.1034,332.01 1255.2334,348.26 " fill="none" id="APIs RESTful (Alunos, Empresas)-to-Armazenamento de Arquivos" style="stroke:#181818;stroke-width:1.0;"/><polygon fill="#181818" points="1260.73,350.6656,1254.0888,343.3928,1256.1495,348.661,1250.8813,350.7216,1260.73,350.6656" style="stroke:#181818;stroke-width:1.0;"/><text fill="#000000" font-family="sans-serif" font-size="13" lengthAdjust="spacing" textLength="20.5664" x="1077" y="290.8125">API</text></g><!--link Prometheus to Grafana--><g id="link_Prometheus_Grafana"><path d="M1198,95.0556 C1198,123.1456 1198,165.1256 1198,193.2856 " fill="none" id="Prometheus-to-Grafana" style="stroke:#181818;stroke-width:1.0;"/><polygon fill="#181818" points="1198,199.2856,1202,190.2856,1198,194.2856,1194,190.2856,1198,199.2856" style="stroke:#181818;stroke-width:1.0;"/><text fill="#000000" font-family="sans-serif" font-size="13" lengthAdjust="spacing" textLength="39.1968" x="1199" y="139.8125">dados</text></g><!--SRC=[bLB1JiCm3BttAwoTXiJOdGFIA8KDKLIjbJWW3bdhiQ0q6Kaw8H0VWpZiG_fZU5q97LkrBQV4Vk_vnRPK6K8dHhtWcT90Zy5Sy9ILo_9RTU330pgFZHZS4-FinK0tU9jhDERagSP48mFZ84wcXO3kG1HIcLC8yXM8EPIlv9G_5xeMk-OQ9ynWdNK-0cFBByjJ1TrX4jxr_JZktyOaykbvgL151fsHjAWbMcVI5nmf1WyuUMhQjdoX85GJBh3YowqlNp99bUXonJ9bdE2VkPsi86TSE72LAPVAPLfO0vspTvGi9w-D1ZUZQzXhGRvDYuhFqXawzXWpleMilOHASglqltgHLZdQ6HQcRjMDPbCcMIMoqKdezIxs3nVEOPWaKUpjwFdH2lkGbLxh8Xt8txzg1mgvolG3ObI4eqniB0s9n64I7IhGlZThDpJCngZNdDzH4o9RxViF]--></g></svg>