<svg xmlns="http://www.w3.org/2000/svg" xmlns:xlink="http://www.w3.org/1999/xlink" contentStyleType="text/css" height="1178px" preserveAspectRatio="none" style="width:1066px;height:1178px;background:#FFFFFF;" version="1.1" viewBox="0 0 1066 1178" width="1066px" zoomAndPan="magnify"><defs/><g><rect fill="none" height="395.8594" style="stroke:#000000;stroke-width:1.5;" width="1050.6641" x="10" y="98.2969"/><rect fill="none" height="279.3281" style="stroke:#000000;stroke-width:1.5;" width="911.2891" x="149.375" y="508.1563"/><rect fill="none" height="279.3281" style="stroke:#000000;stroke-width:1.5;" width="911.2891" x="149.375" y="801.4844"/><line style="stroke:#181818;stroke-width:0.5;stroke-dasharray:5.0,5.0;" x1="84" x2="84" y1="81.2969" y2="1097.8125"/><line style="stroke:#181818;stroke-width:0.5;stroke-dasharray:5.0,5.0;" x1="181.375" x2="181.375" y1="81.2969" y2="1097.8125"/><line style="stroke:#181818;stroke-width:0.5;stroke-dasharray:5.0,5.0;" x1="390.7373" x2="390.7373" y1="81.2969" y2="1097.8125"/><line style="stroke:#181818;stroke-width:0.5;stroke-dasharray:5.0,5.0;" x1="705.3501" x2="705.3501" y1="81.2969" y2="1097.8125"/><line style="stroke:#181818;stroke-width:0.5;stroke-dasharray:5.0,5.0;" x1="1016.6348" x2="1016.6348" y1="81.2969" y2="1097.8125"/><text fill="#000000" font-family="sans-serif" font-size="14" lengthAdjust="spacing" textLength="123.375" x="20" y="77.9951">Empresa Parceira</text><ellipse cx="84.6875" cy="13.5" fill="#E2E2F0" rx="8" ry="8" style="stroke:#181818;stroke-width:0.5;"/><path d="M84.6875,21.5 L84.6875,48.5 M71.6875,29.5 L97.6875,29.5 M84.6875,48.5 L71.6875,63.5 M84.6875,48.5 L97.6875,63.5 " fill="none" style="stroke:#181818;stroke-width:0.5;"/><text fill="#000000" font-family="sans-serif" font-size="14" lengthAdjust="spacing" textLength="123.375" x="20" y="1109.8076">Empresa Parceira</text><ellipse cx="84.6875" cy="1121.6094" fill="#E2E2F0" rx="8" ry="8" style="stroke:#181818;stroke-width:0.5;"/><path d="M84.6875,1129.6094 L84.6875,1156.6094 M71.6875,1137.6094 L97.6875,1137.6094 M84.6875,1156.6094 L71.6875,1171.6094 M84.6875,1156.6094 L97.6875,1171.6094 " fill="none" style="stroke:#181818;stroke-width:0.5;"/><text fill="#000000" font-family="sans-serif" font-size="14" lengthAdjust="spacing" textLength="39.7783" x="159.375" y="77.9951">Aluno</text><ellipse cx="182.2642" cy="13.5" fill="#E2E2F0" rx="8" ry="8" style="stroke:#181818;stroke-width:0.5;"/><path d="M182.2642,21.5 L182.2642,48.5 M169.2642,29.5 L195.2642,29.5 M182.2642,48.5 L169.2642,63.5 M182.2642,48.5 L195.2642,63.5 " fill="none" style="stroke:#181818;stroke-width:0.5;"/><text fill="#000000" font-family="sans-serif" font-size="14" lengthAdjust="spacing" textLength="39.7783" x="159.375" y="1109.8076">Aluno</text><ellipse cx="182.2642" cy="1121.6094" fill="#E2E2F0" rx="8" ry="8" style="stroke:#181818;stroke-width:0.5;"/><path d="M182.2642,1129.6094 L182.2642,1156.6094 M169.2642,1137.6094 L195.2642,1137.6094 M182.2642,1156.6094 L169.2642,1171.6094 M182.2642,1156.6094 L195.2642,1171.6094 " fill="none" style="stroke:#181818;stroke-width:0.5;"/><rect fill="#E2E2F0" height="30.2969" rx="2.5" ry="2.5" style="stroke:#181818;stroke-width:0.5;" width="77.1094" x="352.7373" y="50"/><text fill="#000000" font-family="sans-serif" font-size="14" lengthAdjust="spacing" textLength="63.1094" x="359.7373" y="69.9951">Frontend</text><rect fill="#E2E2F0" height="30.2969" rx="2.5" ry="2.5" style="stroke:#181818;stroke-width:0.5;" width="77.1094" x="352.7373" y="1096.8125"/><text fill="#000000" font-family="sans-serif" font-size="14" lengthAdjust="spacing" textLength="63.1094" x="359.7373" y="1116.8076">Frontend</text><rect fill="#E2E2F0" height="30.2969" rx="2.5" ry="2.5" style="stroke:#181818;stroke-width:0.5;" width="70.3896" x="670.3501" y="50"/><text fill="#000000" font-family="sans-serif" font-size="14" lengthAdjust="spacing" textLength="56.3896" x="677.3501" y="69.9951">Sistema</text><rect fill="#E2E2F0" height="30.2969" rx="2.5" ry="2.5" style="stroke:#181818;stroke-width:0.5;" width="70.3896" x="670.3501" y="1096.8125"/><text fill="#000000" font-family="sans-serif" font-size="14" lengthAdjust="spacing" textLength="56.3896" x="677.3501" y="1116.8076">Sistema</text><text fill="#000000" font-family="sans-serif" font-size="14" lengthAdjust="spacing" textLength="62.0293" x="982.6348" y="77.9951">Firestore</text><path d="M998.6494,29 C998.6494,19 1016.6494,19 1016.6494,19 C1016.6494,19 1034.6494,19 1034.6494,29 L1034.6494,55 C1034.6494,65 1016.6494,65 1016.6494,65 C1016.6494,65 998.6494,65 998.6494,55 L998.6494,29 " fill="#E2E2F0" style="stroke:#181818;stroke-width:1.5;"/><path d="M998.6494,29 C998.6494,39 1016.6494,39 1016.6494,39 C1016.6494,39 1034.6494,39 1034.6494,29 " fill="none" style="stroke:#181818;stroke-width:1.5;"/><text fill="#000000" font-family="sans-serif" font-size="14" lengthAdjust="spacing" textLength="62.0293" x="982.6348" y="1109.8076">Firestore</text><path d="M998.6494,1123.1094 C998.6494,1113.1094 1016.6494,1113.1094 1016.6494,1113.1094 C1016.6494,1113.1094 1034.6494,1113.1094 1034.6494,1123.1094 L1034.6494,1149.1094 C1034.6494,1159.1094 1016.6494,1159.1094 1016.6494,1159.1094 C1016.6494,1159.1094 998.6494,1159.1094 998.6494,1149.1094 L998.6494,1123.1094 " fill="#E2E2F0" style="stroke:#181818;stroke-width:1.5;"/><path d="M998.6494,1123.1094 C998.6494,1133.1094 1016.6494,1133.1094 1016.6494,1133.1094 C1016.6494,1133.1094 1034.6494,1133.1094 1034.6494,1123.1094 " fill="none" style="stroke:#181818;stroke-width:1.5;"/><path d="M10,98.2969 L226.0503,98.2969 L226.0503,105.4297 L216.0503,115.4297 L10,115.4297 L10,98.2969 " fill="#EEEEEE" style="stroke:#000000;stroke-width:1.5;"/><rect fill="none" height="395.8594" style="stroke:#000000;stroke-width:1.5;" width="1050.6641" x="10" y="98.2969"/><text fill="#000000" font-family="sans-serif" font-size="13" font-weight="bold" lengthAdjust="spacing" textLength="171.0503" x="25" y="111.3638">Cadastro de Vantagens</text><polygon fill="#181818" points="379.292,132.5625,389.292,136.5625,379.292,140.5625,383.292,136.5625" style="stroke:#181818;stroke-width:1.0;"/><line style="stroke:#181818;stroke-width:1.0;" x1="84.6875" x2="385.292" y1="136.5625" y2="136.5625"/><text fill="#000000" font-family="sans-serif" font-size="13" lengthAdjust="spacing" textLength="118.6821" x="91.6875" y="131.4966">Acessa dashboard</text><polygon fill="#181818" points="693.5449,161.6953,703.5449,165.6953,693.5449,169.6953,697.5449,165.6953" style="stroke:#181818;stroke-width:1.0;"/><line style="stroke:#181818;stroke-width:1.0;" x1="391.292" x2="699.5449" y1="165.6953" y2="165.6953"/><text fill="#000000" font-family="sans-serif" font-size="13" lengthAdjust="spacing" textLength="137.7124" x="398.292" y="160.6294">Verifica autentica&#231;&#227;o</text><polygon fill="#181818" points="1004.6494,190.8281,1014.6494,194.8281,1004.6494,198.8281,1008.6494,194.8281" style="stroke:#181818;stroke-width:1.0;"/><line style="stroke:#181818;stroke-width:1.0;" x1="705.5449" x2="1010.6494" y1="194.8281" y2="194.8281"/><text fill="#000000" font-family="sans-serif" font-size="13" lengthAdjust="spacing" textLength="163.8521" x="712.5449" y="189.7622">Busca dados da empresa</text><polygon fill="#181818" points="716.5449,219.9609,706.5449,223.9609,716.5449,227.9609,712.5449,223.9609" style="stroke:#181818;stroke-width:1.0;"/><line style="stroke:#181818;stroke-width:1.0;stroke-dasharray:2.0,2.0;" x1="710.5449" x2="1015.6494" y1="223.9609" y2="223.9609"/><text fill="#000000" font-family="sans-serif" font-size="13" lengthAdjust="spacing" textLength="94.9609" x="722.5449" y="218.895">Retorna dados</text><polygon fill="#181818" points="402.292,249.0938,392.292,253.0938,402.292,257.0938,398.292,253.0938" style="stroke:#181818;stroke-width:1.0;"/><line style="stroke:#181818;stroke-width:1.0;stroke-dasharray:2.0,2.0;" x1="396.292" x2="704.5449" y1="253.0938" y2="253.0938"/><text fill="#000000" font-family="sans-serif" font-size="13" lengthAdjust="spacing" textLength="108.9004" x="408.292" y="248.0278">Exibe dashboard</text><polygon fill="#181818" points="379.292,278.2266,389.292,282.2266,379.292,286.2266,383.292,282.2266" style="stroke:#181818;stroke-width:1.0;"/><line style="stroke:#181818;stroke-width:1.0;" x1="84.6875" x2="385.292" y1="282.2266" y2="282.2266"/><text fill="#000000" font-family="sans-serif" font-size="13" lengthAdjust="spacing" textLength="222.5933" x="91.6875" y="277.1606">Preenche formul&#225;rio de vantagem</text><polygon fill="#181818" points="379.292,307.3594,389.292,311.3594,379.292,315.3594,383.292,311.3594" style="stroke:#181818;stroke-width:1.0;"/><line style="stroke:#181818;stroke-width:1.0;" x1="84.6875" x2="385.292" y1="311.3594" y2="311.3594"/><text fill="#000000" font-family="sans-serif" font-size="13" lengthAdjust="spacing" textLength="129.8984" x="91.6875" y="306.2935">Submete formul&#225;rio</text><polygon fill="#181818" points="693.5449,336.4922,703.5449,340.4922,693.5449,344.4922,697.5449,340.4922" style="stroke:#181818;stroke-width:1.0;"/><line style="stroke:#181818;stroke-width:1.0;" x1="391.292" x2="699.5449" y1="340.4922" y2="340.4922"/><text fill="#000000" font-family="sans-serif" font-size="13" lengthAdjust="spacing" textLength="290.2529" x="398.292" y="335.4263">criarVantagem(empresaId, dadosVantagem)</text><polygon fill="#181818" points="1004.6494,365.625,1014.6494,369.625,1004.6494,373.625,1008.6494,369.625" style="stroke:#181818;stroke-width:1.0;"/><line style="stroke:#181818;stroke-width:1.0;" x1="705.5449" x2="1010.6494" y1="369.625" y2="369.625"/><text fill="#000000" font-family="sans-serif" font-size="13" lengthAdjust="spacing" textLength="287.1045" x="712.5449" y="364.5591">Adiciona documento na cole&#231;&#227;o 'vantagens'</text><polygon fill="#181818" points="716.5449,394.7578,706.5449,398.7578,716.5449,402.7578,712.5449,398.7578" style="stroke:#181818;stroke-width:1.0;"/><line style="stroke:#181818;stroke-width:1.0;stroke-dasharray:2.0,2.0;" x1="710.5449" x2="1015.6494" y1="398.7578" y2="398.7578"/><text fill="#000000" font-family="sans-serif" font-size="13" lengthAdjust="spacing" textLength="110.7031" x="722.5449" y="393.6919">Confirma cria&#231;&#227;o</text><polygon fill="#181818" points="402.292,423.8906,392.292,427.8906,402.292,431.8906,398.292,427.8906" style="stroke:#181818;stroke-width:1.0;"/><line style="stroke:#181818;stroke-width:1.0;stroke-dasharray:2.0,2.0;" x1="396.292" x2="704.5449" y1="427.8906" y2="427.8906"/><text fill="#000000" font-family="sans-serif" font-size="13" lengthAdjust="spacing" textLength="107.4214" x="408.292" y="422.8247">Retorna sucesso</text><polygon fill="#181818" points="95.6875,453.0234,85.6875,457.0234,95.6875,461.0234,91.6875,457.0234" style="stroke:#181818;stroke-width:1.0;"/><line style="stroke:#181818;stroke-width:1.0;stroke-dasharray:2.0,2.0;" x1="89.6875" x2="390.292" y1="457.0234" y2="457.0234"/><text fill="#000000" font-family="sans-serif" font-size="13" lengthAdjust="spacing" textLength="188.627" x="101.6875" y="451.9575">Exibe mensagem de sucesso</text><polygon fill="#181818" points="693.5449,482.1563,703.5449,486.1563,693.5449,490.1563,697.5449,486.1563" style="stroke:#181818;stroke-width:1.0;"/><line style="stroke:#181818;stroke-width:1.0;" x1="391.292" x2="699.5449" y1="486.1563" y2="486.1563"/><text fill="#000000" font-family="sans-serif" font-size="13" lengthAdjust="spacing" textLength="190.9819" x="398.292" y="481.0903">Recarrega lista de vantagens</text><path d="M149.375,508.1563 L366.8726,508.1563 L366.8726,515.2891 L356.8726,525.2891 L149.375,525.2891 L149.375,508.1563 " fill="#EEEEEE" style="stroke:#000000;stroke-width:1.5;"/><rect fill="none" height="279.3281" style="stroke:#000000;stroke-width:1.5;" width="911.2891" x="149.375" y="508.1563"/><text fill="#000000" font-family="sans-serif" font-size="13" font-weight="bold" lengthAdjust="spacing" textLength="172.4976" x="164.375" y="521.2231">Listagem de Vantagens</text><polygon fill="#181818" points="379.292,542.4219,389.292,546.4219,379.292,550.4219,383.292,546.4219" style="stroke:#181818;stroke-width:1.0;"/><line style="stroke:#181818;stroke-width:1.0;" x1="182.2642" x2="385.292" y1="546.4219" y2="546.4219"/><text fill="#000000" font-family="sans-serif" font-size="13" lengthAdjust="spacing" textLength="118.6821" x="189.2642" y="541.356">Acessa dashboard</text><polygon fill="#181818" points="693.5449,571.5547,703.5449,575.5547,693.5449,579.5547,697.5449,575.5547" style="stroke:#181818;stroke-width:1.0;"/><line style="stroke:#181818;stroke-width:1.0;" x1="391.292" x2="699.5449" y1="575.5547" y2="575.5547"/><text fill="#000000" font-family="sans-serif" font-size="13" lengthAdjust="spacing" textLength="137.7124" x="398.292" y="570.4888">Verifica autentica&#231;&#227;o</text><polygon fill="#181818" points="1004.6494,600.6875,1014.6494,604.6875,1004.6494,608.6875,1008.6494,604.6875" style="stroke:#181818;stroke-width:1.0;"/><line style="stroke:#181818;stroke-width:1.0;" x1="705.5449" x2="1010.6494" y1="604.6875" y2="604.6875"/><text fill="#000000" font-family="sans-serif" font-size="13" lengthAdjust="spacing" textLength="142.854" x="712.5449" y="599.6216">Busca dados do aluno</text><polygon fill="#181818" points="716.5449,629.8203,706.5449,633.8203,716.5449,637.8203,712.5449,633.8203" style="stroke:#181818;stroke-width:1.0;"/><line style="stroke:#181818;stroke-width:1.0;stroke-dasharray:2.0,2.0;" x1="710.5449" x2="1015.6494" y1="633.8203" y2="633.8203"/><text fill="#000000" font-family="sans-serif" font-size="13" lengthAdjust="spacing" textLength="94.9609" x="722.5449" y="628.7544">Retorna dados</text><polygon fill="#181818" points="693.5449,658.9531,703.5449,662.9531,693.5449,666.9531,697.5449,662.9531" style="stroke:#181818;stroke-width:1.0;"/><line style="stroke:#181818;stroke-width:1.0;" x1="391.292" x2="699.5449" y1="662.9531" y2="662.9531"/><text fill="#000000" font-family="sans-serif" font-size="13" lengthAdjust="spacing" textLength="111.9727" x="398.292" y="657.8872">listarVantagens()</text><polygon fill="#181818" points="1004.6494,688.0859,1014.6494,692.0859,1004.6494,696.0859,1008.6494,692.0859" style="stroke:#181818;stroke-width:1.0;"/><line style="stroke:#181818;stroke-width:1.0;" x1="705.5449" x2="1010.6494" y1="692.0859" y2="692.0859"/><text fill="#000000" font-family="sans-serif" font-size="13" lengthAdjust="spacing" textLength="190.3726" x="712.5449" y="687.02">Consulta cole&#231;&#227;o 'vantagens'</text><polygon fill="#181818" points="716.5449,717.2188,706.5449,721.2188,716.5449,725.2188,712.5449,721.2188" style="stroke:#181818;stroke-width:1.0;"/><line style="stroke:#181818;stroke-width:1.0;stroke-dasharray:2.0,2.0;" x1="710.5449" x2="1015.6494" y1="721.2188" y2="721.2188"/><text fill="#000000" font-family="sans-serif" font-size="13" lengthAdjust="spacing" textLength="175.5635" x="722.5449" y="716.1528">Retorna lista de vantagens</text><polygon fill="#181818" points="402.292,746.3516,392.292,750.3516,402.292,754.3516,398.292,750.3516" style="stroke:#181818;stroke-width:1.0;"/><line style="stroke:#181818;stroke-width:1.0;stroke-dasharray:2.0,2.0;" x1="396.292" x2="704.5449" y1="750.3516" y2="750.3516"/><text fill="#000000" font-family="sans-serif" font-size="13" lengthAdjust="spacing" textLength="97.7983" x="408.292" y="745.2856">Formata dados</text><polygon fill="#181818" points="193.2642,775.4844,183.2642,779.4844,193.2642,783.4844,189.2642,779.4844" style="stroke:#181818;stroke-width:1.0;"/><line style="stroke:#181818;stroke-width:1.0;stroke-dasharray:2.0,2.0;" x1="187.2642" x2="390.292" y1="779.4844" y2="779.4844"/><text fill="#000000" font-family="sans-serif" font-size="13" lengthAdjust="spacing" textLength="185.0278" x="199.2642" y="774.4185">Exibe vantagens dispon&#237;veis</text><path d="M149.375,801.4844 L359.4141,801.4844 L359.4141,808.6172 L349.4141,818.6172 L149.375,818.6172 L149.375,801.4844 " fill="#EEEEEE" style="stroke:#000000;stroke-width:1.5;"/><rect fill="none" height="279.3281" style="stroke:#000000;stroke-width:1.5;" width="911.2891" x="149.375" y="801.4844"/><text fill="#000000" font-family="sans-serif" font-size="13" font-weight="bold" lengthAdjust="spacing" textLength="165.0391" x="164.375" y="814.5513">Resgate de Vantagens</text><polygon fill="#181818" points="379.292,835.75,389.292,839.75,379.292,843.75,383.292,839.75" style="stroke:#181818;stroke-width:1.0;"/><line style="stroke:#181818;stroke-width:1.0;" x1="182.2642" x2="385.292" y1="839.75" y2="839.75"/><text fill="#000000" font-family="sans-serif" font-size="13" lengthAdjust="spacing" textLength="130.73" x="189.2642" y="834.6841">Clica em "Resgatar"</text><polygon fill="#181818" points="693.5449,864.8828,703.5449,868.8828,693.5449,872.8828,697.5449,868.8828" style="stroke:#181818;stroke-width:1.0;"/><line style="stroke:#181818;stroke-width:1.0;" x1="391.292" x2="699.5449" y1="868.8828" y2="868.8828"/><text fill="#000000" font-family="sans-serif" font-size="13" lengthAdjust="spacing" textLength="266.2842" x="398.292" y="863.8169">resgatarVantagem(alunoId, vantagemId)</text><polygon fill="#181818" points="1004.6494,894.0156,1014.6494,898.0156,1004.6494,902.0156,1008.6494,898.0156" style="stroke:#181818;stroke-width:1.0;"/><line style="stroke:#181818;stroke-width:1.0;" x1="705.5449" x2="1010.6494" y1="898.0156" y2="898.0156"/><text fill="#000000" font-family="sans-serif" font-size="13" lengthAdjust="spacing" textLength="148.3193" x="712.5449" y="892.9497">Verifica saldo do aluno</text><polygon fill="#181818" points="716.5449,923.1484,706.5449,927.1484,716.5449,931.1484,712.5449,927.1484" style="stroke:#181818;stroke-width:1.0;"/><line style="stroke:#181818;stroke-width:1.0;stroke-dasharray:2.0,2.0;" x1="710.5449" x2="1015.6494" y1="927.1484" y2="927.1484"/><text fill="#000000" font-family="sans-serif" font-size="13" lengthAdjust="spacing" textLength="90.3208" x="722.5449" y="922.0825">Retorna saldo</text><polygon fill="#181818" points="1004.6494,952.2813,1014.6494,956.2813,1004.6494,960.2813,1008.6494,956.2813" style="stroke:#181818;stroke-width:1.0;"/><line style="stroke:#181818;stroke-width:1.0;" x1="705.5449" x2="1010.6494" y1="956.2813" y2="956.2813"/><text fill="#000000" font-family="sans-serif" font-size="13" lengthAdjust="spacing" textLength="151.3789" x="712.5449" y="951.2153">Atualiza saldo do aluno</text><polygon fill="#181818" points="1004.6494,981.4141,1014.6494,985.4141,1004.6494,989.4141,1008.6494,985.4141" style="stroke:#181818;stroke-width:1.0;"/><line style="stroke:#181818;stroke-width:1.0;" x1="705.5449" x2="1010.6494" y1="985.4141" y2="985.4141"/><text fill="#000000" font-family="sans-serif" font-size="13" lengthAdjust="spacing" textLength="107.6372" x="712.5449" y="980.3481">Registra resgate</text><polygon fill="#181818" points="716.5449,1010.5469,706.5449,1014.5469,716.5449,1018.5469,712.5449,1014.5469" style="stroke:#181818;stroke-width:1.0;"/><line style="stroke:#181818;stroke-width:1.0;stroke-dasharray:2.0,2.0;" x1="710.5449" x2="1015.6494" y1="1014.5469" y2="1014.5469"/><text fill="#000000" font-family="sans-serif" font-size="13" lengthAdjust="spacing" textLength="130.9521" x="722.5449" y="1009.481">Confirma opera&#231;&#245;es</text><polygon fill="#181818" points="402.292,1039.6797,392.292,1043.6797,402.292,1047.6797,398.292,1043.6797" style="stroke:#181818;stroke-width:1.0;"/><line style="stroke:#181818;stroke-width:1.0;stroke-dasharray:2.0,2.0;" x1="396.292" x2="704.5449" y1="1043.6797" y2="1043.6797"/><text fill="#000000" font-family="sans-serif" font-size="13" lengthAdjust="spacing" textLength="107.4214" x="408.292" y="1038.6138">Retorna sucesso</text><polygon fill="#181818" points="193.2642,1068.8125,183.2642,1072.8125,193.2642,1076.8125,189.2642,1072.8125" style="stroke:#181818;stroke-width:1.0;"/><line style="stroke:#181818;stroke-width:1.0;stroke-dasharray:2.0,2.0;" x1="187.2642" x2="390.292" y1="1072.8125" y2="1072.8125"/><text fill="#000000" font-family="sans-serif" font-size="13" lengthAdjust="spacing" textLength="120.4722" x="199.2642" y="1067.7466">Exibe confirma&#231;&#227;o</text><!--SRC=[jLFBRjim4BphAnQws06Q7_2XW1y9OA27m4PoNrDhXO0a2alAQFitHGyzzTWly8zrIL6gb111SgWFXgGTBcTdPb4vmv3VrIsJHNX0LgGPSq0ByME6FMPTTOq9XV2KjSXEAzrYuo2_PzCuQefGVzpFYqTj7TLzq-Ct_vmLwF24bkIabala0WhbtIRB5h350grZ0mN1axJ0aXeBoqZe9YlPT6qQbO7yXd5kFmkN5QmLMNaJzFF981S1yxZtvPxE2fw8zLah1Ena3A6Err_NdoOWUun7xpOhs7HM-Lw5iV8F54NomDq6RYSz3oHZDH4xwnHvtNtL9tf1AyN_WOaQzKnmDbntrVK7wp3qfH-wJfqvTgUQtEn8Ocp56ZbgLo_ZBFlYKyzvADmaP5WNOg_nqndLrIAP0NbHfg8W72mkWoEBb3PRqvmrrnWOl9Ow3Z4eQ3lluBy1f1p77KGK1jPJzRAyH4yTKSXC9K8baSI9XX8SIQ_FtXTVYPqcsGkP7vANn8Jx0kp_vyu0XXryL-eIruRnUQI-J3ai5jckSXymTRWw8Mx2t7j99hefqMXjq70mTcm1XRQjQQw_BwH7imvaIvIKl-5L2lBQgctbJH1sUOz7pXEoSQoD6nDSyFiohEA-I4avkcon4k_UOrz0flRETLZfxybMS-I1Il61CRAcDzVGjCG-Ud_8Vd0HPswfsAyFiPZq5m00]--></g></svg>