<svg xmlns="http://www.w3.org/2000/svg" xmlns:xlink="http://www.w3.org/1999/xlink" contentStyleType="text/css" height="1100px" preserveAspectRatio="none" style="width:1033px;height:1100px;background:#FFFFFF;" version="1.1" viewBox="0 0 1033 1100" width="1033px" zoomAndPan="magnify"><defs/><g><!--class Usuario--><g id="elem_Usuario"><rect codeLine="5" fill="#F1F1F1" height="162.0781" id="Usuario" rx="2.5" ry="2.5" style="stroke:#181818;stroke-width:0.5;" width="341.5879" x="236.5" y="262"/><ellipse cx="376.4419" cy="278" fill="#FFAAAA" rx="11" ry="11" style="stroke:#181818;stroke-width:1.0;"/><path d="M377.2856,284.75 L374.8325,284.75 L374.8325,274.5 L371.6919,274.5 L371.6919,272.3594 L380.4263,272.3594 L380.4263,274.5 L377.2856,274.5 L377.2856,284.75 Z " fill="#000000"/><text fill="#000000" font-family="sans-serif" font-size="14" lengthAdjust="spacing" textLength="53.2041" x="396.9419" y="282.8467">Usuario</text><line style="stroke:#181818;stroke-width:0.5;" x1="237.5" x2="577.0879" y1="294" y2="294"/><text fill="#000000" font-family="sans-serif" font-size="14" lengthAdjust="spacing" text-decoration="underline" textLength="12.7764" x="242.5" y="310.9951">id</text><text fill="#000000" font-family="sans-serif" font-size="14" lengthAdjust="spacing" textLength="32.3203" x="255.2764" y="310.9951">: INT</text><text fill="#000000" font-family="sans-serif" font-size="14" lengthAdjust="spacing" textLength="117.3457" x="242.5" y="327.292">nome: VARCHAR</text><text fill="#000000" font-family="sans-serif" font-size="14" lengthAdjust="spacing" textLength="116.2656" x="242.5" y="343.5889">email: VARCHAR</text><text fill="#000000" font-family="sans-serif" font-size="14" lengthAdjust="spacing" textLength="119.8887" x="242.5" y="359.8857">senha: VARCHAR</text><text fill="#000000" font-family="sans-serif" font-size="14" lengthAdjust="spacing" textLength="179.6074" x="242.5" y="376.1826">data_criacao: TIMESTAMP</text><text fill="#000000" font-family="sans-serif" font-size="14" lengthAdjust="spacing" textLength="189.6973" x="242.5" y="392.4795">ultimo_acesso: TIMESTAMP</text><line style="stroke:#181818;stroke-width:0.5;" x1="237.5" x2="577.0879" y1="399.7813" y2="399.7813"/><text fill="#000000" font-family="sans-serif" font-size="14" lengthAdjust="spacing" textLength="329.5879" x="242.5" y="416.7764">tipo: ENUM('ALUNO', 'PROFESSOR', 'EMPRESA')</text></g><!--class Aluno--><g id="elem_Aluno"><rect codeLine="15" fill="#F1F1F1" height="162.0781" id="Aluno" rx="2.5" ry="2.5" style="stroke:#181818;stroke-width:0.5;" width="155.2744" x="7" y="485"/><ellipse cx="60.498" cy="501" fill="#FFAAAA" rx="11" ry="11" style="stroke:#181818;stroke-width:1.0;"/><path d="M61.3418,507.75 L58.8887,507.75 L58.8887,497.5 L55.748,497.5 L55.748,495.3594 L64.4824,495.3594 L64.4824,497.5 L61.3418,497.5 L61.3418,507.75 Z " fill="#000000"/><text fill="#000000" font-family="sans-serif" font-size="14" lengthAdjust="spacing" textLength="39.7783" x="80.998" y="505.8467">Aluno</text><line style="stroke:#181818;stroke-width:0.5;" x1="8" x2="161.2744" y1="517" y2="517"/><text fill="#000000" font-family="sans-serif" font-size="14" font-style="italic" lengthAdjust="spacing" textLength="71.6064" x="13" y="533.9951">usuario_id</text><text fill="#000000" font-family="sans-serif" font-size="14" lengthAdjust="spacing" textLength="32.3203" x="84.6064" y="533.9951">: INT</text><text fill="#000000" font-family="sans-serif" font-size="14" lengthAdjust="spacing" textLength="99.1689" x="13" y="550.292">cpf: VARCHAR</text><text fill="#000000" font-family="sans-serif" font-size="14" lengthAdjust="spacing" textLength="92.2988" x="13" y="566.5889">rg: VARCHAR</text><text fill="#000000" font-family="sans-serif" font-size="14" lengthAdjust="spacing" textLength="143.2744" x="13" y="582.8857">endereco: VARCHAR</text><text fill="#000000" font-family="sans-serif" font-size="14" font-style="italic" lengthAdjust="spacing" textLength="92.3057" x="13" y="599.1826">instituicao_id</text><text fill="#000000" font-family="sans-serif" font-size="14" lengthAdjust="spacing" textLength="32.3203" x="105.3057" y="599.1826">: INT</text><text fill="#000000" font-family="sans-serif" font-size="14" lengthAdjust="spacing" textLength="115.8418" x="13" y="615.4795">curso: VARCHAR</text><text fill="#000000" font-family="sans-serif" font-size="14" lengthAdjust="spacing" textLength="132.1113" x="13" y="631.7764">saldo_moedas: INT</text><line style="stroke:#181818;stroke-width:0.5;" x1="8" x2="161.2744" y1="639.0781" y2="639.0781"/></g><!--class Professor--><g id="elem_Professor"><rect codeLine="25" fill="#F1F1F1" height="129.4844" id="Professor" rx="2.5" ry="2.5" style="stroke:#181818;stroke-width:0.5;" width="189.625" x="197.5" y="501.5"/><ellipse cx="255.4551" cy="517.5" fill="#FFAAAA" rx="11" ry="11" style="stroke:#181818;stroke-width:1.0;"/><path d="M256.2988,524.25 L253.8457,524.25 L253.8457,514 L250.7051,514 L250.7051,511.8594 L259.4395,511.8594 L259.4395,514 L256.2988,514 L256.2988,524.25 Z " fill="#000000"/><text fill="#000000" font-family="sans-serif" font-size="14" lengthAdjust="spacing" textLength="65.2148" x="275.9551" y="522.3467">Professor</text><line style="stroke:#181818;stroke-width:0.5;" x1="198.5" x2="386.125" y1="533.5" y2="533.5"/><text fill="#000000" font-family="sans-serif" font-size="14" font-style="italic" lengthAdjust="spacing" textLength="71.6064" x="203.5" y="550.4951">usuario_id</text><text fill="#000000" font-family="sans-serif" font-size="14" lengthAdjust="spacing" textLength="32.3203" x="275.1064" y="550.4951">: INT</text><text fill="#000000" font-family="sans-serif" font-size="14" lengthAdjust="spacing" textLength="99.1689" x="203.5" y="566.792">cpf: VARCHAR</text><text fill="#000000" font-family="sans-serif" font-size="14" lengthAdjust="spacing" textLength="177.625" x="203.5" y="583.0889">departamento: VARCHAR</text><text fill="#000000" font-family="sans-serif" font-size="14" font-style="italic" lengthAdjust="spacing" textLength="92.3057" x="203.5" y="599.3857">instituicao_id</text><text fill="#000000" font-family="sans-serif" font-size="14" lengthAdjust="spacing" textLength="32.3203" x="295.8057" y="599.3857">: INT</text><text fill="#000000" font-family="sans-serif" font-size="14" lengthAdjust="spacing" textLength="132.1113" x="203.5" y="615.6826">saldo_moedas: INT</text><line style="stroke:#181818;stroke-width:0.5;" x1="198.5" x2="386.125" y1="622.9844" y2="622.9844"/></g><!--class EmpresaParceira--><g id="elem_EmpresaParceira"><rect codeLine="33" fill="#F1F1F1" height="113.1875" id="EmpresaParceira" rx="2.5" ry="2.5" style="stroke:#181818;stroke-width:0.5;" width="155.2129" x="423" y="509.5"/><ellipse cx="439.9296" cy="525.5" fill="#FFAAAA" rx="11" ry="11" style="stroke:#181818;stroke-width:1.0;"/><path d="M440.7734,532.25 L438.3203,532.25 L438.3203,522 L435.1796,522 L435.1796,519.8594 L443.914,519.8594 L443.914,522 L440.7734,522 L440.7734,532.25 Z " fill="#000000"/><text fill="#000000" font-family="sans-serif" font-size="14" lengthAdjust="spacing" textLength="118.9248" x="454.3584" y="530.3467">EmpresaParceira</text><line style="stroke:#181818;stroke-width:0.5;" x1="424" x2="577.2129" y1="541.5" y2="541.5"/><text fill="#000000" font-family="sans-serif" font-size="14" font-style="italic" lengthAdjust="spacing" textLength="71.6064" x="429" y="558.4951">usuario_id</text><text fill="#000000" font-family="sans-serif" font-size="14" lengthAdjust="spacing" textLength="32.3203" x="500.6064" y="558.4951">: INT</text><text fill="#000000" font-family="sans-serif" font-size="14" lengthAdjust="spacing" textLength="107.0029" x="429" y="574.792">cnpj: VARCHAR</text><text fill="#000000" font-family="sans-serif" font-size="14" lengthAdjust="spacing" textLength="111.6855" x="429" y="591.0889">descricao: TEXT</text><text fill="#000000" font-family="sans-serif" font-size="14" lengthAdjust="spacing" textLength="143.2129" x="429" y="607.3857">data_parceria: DATE</text><line style="stroke:#181818;stroke-width:0.5;" x1="424" x2="577.2129" y1="614.6875" y2="614.6875"/></g><!--class InstituicaoEnsino--><g id="elem_InstituicaoEnsino"><rect codeLine="40" fill="#F1F1F1" height="113.1875" id="InstituicaoEnsino" rx="2.5" ry="2.5" style="stroke:#181818;stroke-width:0.5;" width="155.2744" x="27" y="749"/><ellipse cx="43.8743" cy="765" fill="#FFAAAA" rx="11" ry="11" style="stroke:#181818;stroke-width:1.0;"/><path d="M44.718,771.75 L42.2649,771.75 L42.2649,761.5 L39.1243,761.5 L39.1243,759.3594 L47.8586,759.3594 L47.8586,761.5 L44.718,761.5 L44.718,771.75 Z " fill="#000000"/><text fill="#000000" font-family="sans-serif" font-size="14" lengthAdjust="spacing" textLength="119.1094" x="58.2908" y="769.8467">InstituicaoEnsino</text><line style="stroke:#181818;stroke-width:0.5;" x1="28" x2="181.2744" y1="781" y2="781"/><text fill="#000000" font-family="sans-serif" font-size="14" lengthAdjust="spacing" text-decoration="underline" textLength="12.7764" x="33" y="797.9951">id</text><text fill="#000000" font-family="sans-serif" font-size="14" lengthAdjust="spacing" textLength="32.3203" x="45.7764" y="797.9951">: INT</text><text fill="#000000" font-family="sans-serif" font-size="14" lengthAdjust="spacing" textLength="117.3457" x="33" y="814.292">nome: VARCHAR</text><text fill="#000000" font-family="sans-serif" font-size="14" lengthAdjust="spacing" textLength="143.2744" x="33" y="830.5889">endereco: VARCHAR</text><text fill="#000000" font-family="sans-serif" font-size="14" lengthAdjust="spacing" textLength="143.2129" x="33" y="846.8857">data_parceria: DATE</text><line style="stroke:#181818;stroke-width:0.5;" x1="28" x2="181.2744" y1="854.1875" y2="854.1875"/></g><!--class Vantagem--><g id="elem_Vantagem"><rect codeLine="47" fill="#F1F1F1" height="194.6719" id="Vantagem" rx="2.5" ry="2.5" style="stroke:#181818;stroke-width:0.5;" width="220.9131" x="521" y="708"/><ellipse cx="591.0889" cy="724" fill="#FFAAAA" rx="11" ry="11" style="stroke:#181818;stroke-width:1.0;"/><path d="M591.9326,730.75 L589.4795,730.75 L589.4795,720.5 L586.3389,720.5 L586.3389,718.3594 L595.0732,718.3594 L595.0732,720.5 L591.9326,720.5 L591.9326,730.75 Z " fill="#000000"/><text fill="#000000" font-family="sans-serif" font-size="14" lengthAdjust="spacing" textLength="72.2354" x="611.5889" y="728.8467">Vantagem</text><line style="stroke:#181818;stroke-width:0.5;" x1="522" x2="740.9131" y1="740" y2="740"/><text fill="#000000" font-family="sans-serif" font-size="14" lengthAdjust="spacing" text-decoration="underline" textLength="12.7764" x="527" y="756.9951">id</text><text fill="#000000" font-family="sans-serif" font-size="14" lengthAdjust="spacing" textLength="32.3203" x="539.7764" y="756.9951">: INT</text><text fill="#000000" font-family="sans-serif" font-size="14" lengthAdjust="spacing" textLength="117.3457" x="527" y="773.292">nome: VARCHAR</text><text fill="#000000" font-family="sans-serif" font-size="14" lengthAdjust="spacing" textLength="111.6855" x="527" y="789.5889">descricao: TEXT</text><text fill="#000000" font-family="sans-serif" font-size="14" lengthAdjust="spacing" textLength="130.7236" x="527" y="805.8857">foto_url: VARCHAR</text><text fill="#000000" font-family="sans-serif" font-size="14" lengthAdjust="spacing" textLength="132.8154" x="527" y="822.1826">custo_moedas: INT</text><text fill="#000000" font-family="sans-serif" font-size="14" font-style="italic" lengthAdjust="spacing" textLength="81.1563" x="527" y="838.4795">empresa_id</text><text fill="#000000" font-family="sans-serif" font-size="14" lengthAdjust="spacing" textLength="32.3203" x="608.1563" y="838.4795">: INT</text><text fill="#000000" font-family="sans-serif" font-size="14" lengthAdjust="spacing" textLength="148.5791" x="527" y="854.7764">disponivel: BOOLEAN</text><text fill="#000000" font-family="sans-serif" font-size="14" lengthAdjust="spacing" textLength="179.6074" x="527" y="871.0732">data_criacao: TIMESTAMP</text><text fill="#000000" font-family="sans-serif" font-size="14" lengthAdjust="spacing" textLength="208.9131" x="527" y="887.3701">data_atualizacao: TIMESTAMP</text><line style="stroke:#181818;stroke-width:0.5;" x1="522" x2="740.9131" y1="894.6719" y2="894.6719"/></g><!--class Transacao--><g id="elem_Transacao"><rect codeLine="59" fill="#F1F1F1" height="178.375" id="Transacao" rx="2.5" ry="2.5" style="stroke:#181818;stroke-width:0.5;" width="290.7012" x="432" y="7"/><ellipse cx="536.8633" cy="23" fill="#FFAAAA" rx="11" ry="11" style="stroke:#181818;stroke-width:1.0;"/><path d="M537.707,29.75 L535.2539,29.75 L535.2539,19.5 L532.1133,19.5 L532.1133,17.3594 L540.8477,17.3594 L540.8477,19.5 L537.707,19.5 L537.707,29.75 Z " fill="#000000"/><text fill="#000000" font-family="sans-serif" font-size="14" lengthAdjust="spacing" textLength="72.4746" x="557.3633" y="27.8467">Transacao</text><line style="stroke:#181818;stroke-width:0.5;" x1="433" x2="721.7012" y1="39" y2="39"/><text fill="#000000" font-family="sans-serif" font-size="14" lengthAdjust="spacing" text-decoration="underline" textLength="12.7764" x="438" y="55.9951">id</text><text fill="#000000" font-family="sans-serif" font-size="14" lengthAdjust="spacing" textLength="32.3203" x="450.7764" y="55.9951">: INT</text><text fill="#000000" font-family="sans-serif" font-size="14" lengthAdjust="spacing" textLength="121.8438" x="438" y="72.292">data: TIMESTAMP</text><text fill="#000000" font-family="sans-serif" font-size="14" lengthAdjust="spacing" textLength="174.4531" x="438" y="88.5889">quantidade_moedas: INT</text><text fill="#000000" font-family="sans-serif" font-size="14" lengthAdjust="spacing" textLength="93.1396" x="438" y="104.8857">motivo: TEXT</text><text fill="#000000" font-family="sans-serif" font-size="14" font-style="italic" lengthAdjust="spacing" textLength="93.4746" x="438" y="121.1826">remetente_id</text><text fill="#000000" font-family="sans-serif" font-size="14" lengthAdjust="spacing" textLength="32.3203" x="531.4746" y="121.1826">: INT</text><text fill="#000000" font-family="sans-serif" font-size="14" font-style="italic" lengthAdjust="spacing" textLength="103.6807" x="438" y="137.4795">destinatario_id</text><text fill="#000000" font-family="sans-serif" font-size="14" lengthAdjust="spacing" textLength="32.3203" x="541.6807" y="137.4795">: INT</text><text fill="#000000" font-family="sans-serif" font-size="14" font-style="italic" lengthAdjust="spacing" textLength="90.7197" x="438" y="153.7764">vantagem_id</text><text fill="#000000" font-family="sans-serif" font-size="14" lengthAdjust="spacing" textLength="32.3203" x="528.7197" y="153.7764">: INT</text><line style="stroke:#181818;stroke-width:0.5;" x1="433" x2="721.7012" y1="161.0781" y2="161.0781"/><text fill="#000000" font-family="sans-serif" font-size="14" lengthAdjust="spacing" textLength="278.7012" x="438" y="178.0732">tipo: ENUM('DISTRIBUICAO', 'RESGATE')</text></g><!--class Cupom--><g id="elem_Cupom"><rect codeLine="70" fill="#F1F1F1" height="145.7813" id="Cupom" rx="2.5" ry="2.5" style="stroke:#181818;stroke-width:0.5;" width="341.0684" x="685" y="270"/><ellipse cx="826.415" cy="286" fill="#FFAAAA" rx="11" ry="11" style="stroke:#181818;stroke-width:1.0;"/><path d="M827.2588,292.75 L824.8057,292.75 L824.8057,282.5 L821.665,282.5 L821.665,280.3594 L830.3994,280.3594 L830.3994,282.5 L827.2588,282.5 L827.2588,292.75 Z " fill="#000000"/><text fill="#000000" font-family="sans-serif" font-size="14" lengthAdjust="spacing" textLength="49.7383" x="846.915" y="290.8467">Cupom</text><line style="stroke:#181818;stroke-width:0.5;" x1="686" x2="1025.0684" y1="302" y2="302"/><text fill="#000000" font-family="sans-serif" font-size="14" lengthAdjust="spacing" text-decoration="underline" textLength="12.7764" x="691" y="318.9951">id</text><text fill="#000000" font-family="sans-serif" font-size="14" lengthAdjust="spacing" textLength="32.3203" x="703.7764" y="318.9951">: INT</text><text fill="#000000" font-family="sans-serif" font-size="14" lengthAdjust="spacing" textLength="124.1475" x="691" y="335.292">codigo: VARCHAR</text><text fill="#000000" font-family="sans-serif" font-size="14" font-style="italic" lengthAdjust="spacing" textLength="89.1885" x="691" y="351.5889">transacao_id</text><text fill="#000000" font-family="sans-serif" font-size="14" lengthAdjust="spacing" textLength="32.3203" x="780.1885" y="351.5889">: INT</text><text fill="#000000" font-family="sans-serif" font-size="14" lengthAdjust="spacing" textLength="185.5205" x="691" y="367.8857">data_geracao: TIMESTAMP</text><text fill="#000000" font-family="sans-serif" font-size="14" lengthAdjust="spacing" textLength="153.5762" x="691" y="384.1826">data_uso: TIMESTAMP</text><line style="stroke:#181818;stroke-width:0.5;" x1="686" x2="1025.0684" y1="391.4844" y2="391.4844"/><text fill="#000000" font-family="sans-serif" font-size="14" lengthAdjust="spacing" textLength="329.0684" x="691" y="408.4795">status: ENUM('GERADO', 'USADO', 'EXPIRADO')</text></g><!--class Semestre--><g id="elem_Semestre"><rect codeLine="79" fill="#F1F1F1" height="129.4844" id="Semestre" rx="2.5" ry="2.5" style="stroke:#181818;stroke-width:0.5;" width="134.2607" x="158.5" y="964"/><ellipse cx="189.4108" cy="980" fill="#FFAAAA" rx="11" ry="11" style="stroke:#181818;stroke-width:1.0;"/><path d="M190.2546,986.75 L187.8015,986.75 L187.8015,976.5 L184.6608,976.5 L184.6608,974.3594 L193.3952,974.3594 L193.3952,976.5 L190.2546,976.5 L190.2546,986.75 Z " fill="#000000"/><text fill="#000000" font-family="sans-serif" font-size="14" lengthAdjust="spacing" textLength="66.9033" x="206.9466" y="984.8467">Semestre</text><line style="stroke:#181818;stroke-width:0.5;" x1="159.5" x2="291.7607" y1="996" y2="996"/><text fill="#000000" font-family="sans-serif" font-size="14" lengthAdjust="spacing" text-decoration="underline" textLength="12.7764" x="164.5" y="1012.9951">id</text><text fill="#000000" font-family="sans-serif" font-size="14" lengthAdjust="spacing" textLength="32.3203" x="177.2764" y="1012.9951">: INT</text><text fill="#000000" font-family="sans-serif" font-size="14" lengthAdjust="spacing" textLength="58.3379" x="164.5" y="1029.292">ano: INT</text><text fill="#000000" font-family="sans-serif" font-size="14" lengthAdjust="spacing" textLength="85.4834" x="164.5" y="1045.5889">periodo: INT</text><text fill="#000000" font-family="sans-serif" font-size="14" lengthAdjust="spacing" textLength="122.2607" x="164.5" y="1061.8857">data_inicio: DATE</text><text fill="#000000" font-family="sans-serif" font-size="14" lengthAdjust="spacing" textLength="107.9121" x="164.5" y="1078.1826">data_fim: DATE</text><line style="stroke:#181818;stroke-width:0.5;" x1="159.5" x2="291.7607" y1="1085.4844" y2="1085.4844"/></g><!--class DistribuicaoMoedas--><g id="elem_DistribuicaoMoedas"><rect codeLine="87" fill="#F1F1F1" height="129.4844" id="DistribuicaoMoedas" rx="2.5" ry="2.5" style="stroke:#181818;stroke-width:0.5;" width="222.54" x="263" y="741"/><ellipse cx="301.8197" cy="757" fill="#FFAAAA" rx="11" ry="11" style="stroke:#181818;stroke-width:1.0;"/><path d="M302.6634,763.75 L300.2103,763.75 L300.2103,753.5 L297.0697,753.5 L297.0697,751.3594 L305.8041,751.3594 L305.8041,753.5 L302.6634,753.5 L302.6634,763.75 Z " fill="#000000"/><text fill="#000000" font-family="sans-serif" font-size="14" lengthAdjust="spacing" textLength="137.6074" x="321.1129" y="761.8467">DistribuicaoMoedas</text><line style="stroke:#181818;stroke-width:0.5;" x1="264" x2="484.54" y1="773" y2="773"/><text fill="#000000" font-family="sans-serif" font-size="14" lengthAdjust="spacing" text-decoration="underline" textLength="12.7764" x="269" y="789.9951">id</text><text fill="#000000" font-family="sans-serif" font-size="14" lengthAdjust="spacing" textLength="32.3203" x="281.7764" y="789.9951">: INT</text><text fill="#000000" font-family="sans-serif" font-size="14" font-style="italic" lengthAdjust="spacing" textLength="85.4355" x="269" y="806.292">professor_id</text><text fill="#000000" font-family="sans-serif" font-size="14" lengthAdjust="spacing" textLength="32.3203" x="354.4355" y="806.292">: INT</text><text fill="#000000" font-family="sans-serif" font-size="14" font-style="italic" lengthAdjust="spacing" textLength="85.0869" x="269" y="822.5889">semestre_id</text><text fill="#000000" font-family="sans-serif" font-size="14" lengthAdjust="spacing" textLength="32.3203" x="354.0869" y="822.5889">: INT</text><text fill="#000000" font-family="sans-serif" font-size="14" lengthAdjust="spacing" textLength="111.877" x="269" y="838.8857">quantidade: INT</text><text fill="#000000" font-family="sans-serif" font-size="14" lengthAdjust="spacing" textLength="210.54" x="269" y="855.1826">data_distribuicao: TIMESTAMP</text><line style="stroke:#181818;stroke-width:0.5;" x1="264" x2="484.54" y1="862.4844" y2="862.4844"/></g><ellipse cx="225.5" cy="805.5" fill="#181818" rx="2" ry="2" style="stroke:#181818;stroke-width:1.0;"/><!--link Usuario to Aluno--><g id="link_Usuario_Aluno"><path codeLine="95" d="M270.64,424.13 C240.09,443.26 208.24,464.18 179.5,485 C173.74,489.17 167.88,493.6 162.05,498.15 " fill="none" id="Usuario-Aluno" style="stroke:#181818;stroke-width:1.0;"/><text fill="#000000" font-family="sans-serif" font-size="13" lengthAdjust="spacing" textLength="8.271" x="250.1251" y="444.0929">1</text><text fill="#000000" font-family="sans-serif" font-size="13" lengthAdjust="spacing" textLength="24.8066" x="170.3299" y="488.2731">0..1</text></g><!--link Usuario to Professor--><g id="link_Usuario_Professor"><path codeLine="96" d="M365.82,424.1 C352.58,449.55 338.12,477.32 325.57,501.44 " fill="none" id="Usuario-Professor" style="stroke:#181818;stroke-width:1.0;"/><text fill="#000000" font-family="sans-serif" font-size="13" lengthAdjust="spacing" textLength="8.271" x="353.782" y="444.0603">1</text><text fill="#000000" font-family="sans-serif" font-size="13" lengthAdjust="spacing" textLength="24.8066" x="303.9392" y="490.6061">0..1</text></g><!--link Usuario to EmpresaParceira--><g id="link_Usuario_EmpresaParceira"><path codeLine="97" d="M441.21,424.1 C453.11,452.39 466.23,483.56 477.09,509.37 " fill="none" id="Usuario-EmpresaParceira" style="stroke:#181818;stroke-width:1.0;"/><text fill="#000000" font-family="sans-serif" font-size="13" lengthAdjust="spacing" textLength="8.271" x="435.8865" y="444.0603">1</text><text fill="#000000" font-family="sans-serif" font-size="13" lengthAdjust="spacing" textLength="24.8066" x="448.8106" y="498.6177">0..1</text></g><!--link Aluno to InstituicaoEnsino--><g id="link_Aluno_InstituicaoEnsino"><path codeLine="98" d="M91.24,647.08 C94.06,680.47 97.25,718.45 99.8,748.74 " fill="none" id="Aluno-InstituicaoEnsino" style="stroke:#181818;stroke-width:1.0;"/><text fill="#000000" font-family="sans-serif" font-size="13" lengthAdjust="spacing" textLength="9.7246" x="82.4595" y="667.0385">N</text><text fill="#000000" font-family="sans-serif" font-size="13" lengthAdjust="spacing" textLength="8.271" x="90.7395" y="737.9719">1</text></g><!--link Professor to InstituicaoEnsino--><g id="link_Professor_InstituicaoEnsino"><path codeLine="99" d="M242.12,630.65 C212.97,667.47 176.63,713.38 148.61,748.77 " fill="none" id="Professor-InstituicaoEnsino" style="stroke:#181818;stroke-width:1.0;"/><text fill="#000000" font-family="sans-serif" font-size="13" lengthAdjust="spacing" textLength="9.7246" x="226.8381" y="651.0389">N</text><text fill="#000000" font-family="sans-serif" font-size="13" lengthAdjust="spacing" textLength="8.271" x="145.4982" y="738.0055">1</text></g><!--link EmpresaParceira to Vantagem--><g id="link_EmpresaParceira_Vantagem"><path codeLine="100" d="M531.21,622.68 C545.2,648.05 562.18,678.82 578.15,707.78 " fill="none" id="EmpresaParceira-Vantagem" style="stroke:#181818;stroke-width:1.0;"/><text fill="#000000" font-family="sans-serif" font-size="13" lengthAdjust="spacing" textLength="8.271" x="526.4688" y="642.5655">1</text><text fill="#000000" font-family="sans-serif" font-size="13" lengthAdjust="spacing" textLength="9.7246" x="564.7519" y="696.8086">N</text></g><!--link Transacao to Usuario--><g id="link_Transacao_Usuario"><path codeLine="101" d="M434.59,185.26 C426.47,194.45 419.27,204.36 413.5,215 C405.82,229.16 402.03,245.58 400.53,261.8 " fill="none" id="Transacao-Usuario" style="stroke:#181818;stroke-width:1.0;"/><text fill="#000000" font-family="sans-serif" font-size="13" lengthAdjust="spacing" textLength="68.4341" x="414.5" y="228.0669">remetente</text><text fill="#000000" font-family="sans-serif" font-size="13" lengthAdjust="spacing" textLength="9.7246" x="414.3431" y="204.7258">N</text><text fill="#000000" font-family="sans-serif" font-size="13" lengthAdjust="spacing" textLength="8.271" x="391.5834" y="250.9695">1</text></g><!--link Transacao to Usuario--><g id="link_Transacao_Usuario"><path codeLine="102" d="M519.44,185.22 C508.92,200.88 497.96,216.98 487.5,232 C480.75,241.69 473.59,251.79 466.43,261.77 " fill="none" id="Transacao-Usuario-1" style="stroke:#181818;stroke-width:1.0;"/><text fill="#000000" font-family="sans-serif" font-size="13" lengthAdjust="spacing" textLength="77.9111" x="499.5" y="228.0669">destinatario</text><text fill="#000000" font-family="sans-serif" font-size="13" lengthAdjust="spacing" textLength="9.7246" x="505.1077" y="205.5884">N</text><text fill="#000000" font-family="sans-serif" font-size="13" lengthAdjust="spacing" textLength="8.271" x="463.3526" y="250.9368">1</text></g><!--link Transacao to Vantagem--><g id="link_Transacao_Vantagem"><path codeLine="103" d="M587.81,185.13 C590.53,209.97 593.31,237.03 595.5,262 C609.17,417.86 620.23,599.31 626.33,707.88 " fill="none" id="Transacao-Vantagem" style="stroke:#181818;stroke-width:1.0;"/><text fill="#000000" font-family="sans-serif" font-size="13" lengthAdjust="spacing" textLength="24.8066" x="563.7123" y="205.4906">0..1</text><text fill="#000000" font-family="sans-serif" font-size="13" lengthAdjust="spacing" textLength="24.8066" x="601.0496" y="696.9163">0..1</text></g><!--link Transacao to Cupom--><g id="link_Transacao_Cupom"><path codeLine="104" d="M677.47,185.1 C709.07,212.95 743.6,243.38 773.77,269.97 " fill="none" id="Transacao-Cupom" style="stroke:#181818;stroke-width:1.0;"/><text fill="#000000" font-family="sans-serif" font-size="13" lengthAdjust="spacing" textLength="8.271" x="677.7419" y="205.4581">1</text><text fill="#000000" font-family="sans-serif" font-size="13" lengthAdjust="spacing" textLength="24.8066" x="740.1422" y="258.7504">0..1</text></g><!--link Professor to apoint23--><g id="link_Professor_apoint23"><path d="M269.49,630.74 C261.28,654.77 252.38,682.46 245.5,708 C235.18,746.33 227.14,794.44 225.72,803.13 " fill="none" id="Professor-apoint23" style="stroke:#181818;stroke-width:1.0;"/><text fill="#000000" font-family="sans-serif" font-size="13" lengthAdjust="spacing" textLength="9.7246" x="257.3727" y="651.1393">N</text></g><!--link apoint23 to Semestre--><g id="link_apoint23_Semestre"><path d="M225.5,807.91 C225.5,819.73 225.5,903.29 225.5,963.83 " fill="none" id="apoint23-Semestre" style="stroke:#181818;stroke-width:1.0;"/><text fill="#000000" font-family="sans-serif" font-size="13" lengthAdjust="spacing" textLength="9.7246" x="216.0332" y="952.9841">N</text></g><!--link apoint23 to DistribuicaoMoedas--><g id="link_apoint23_DistribuicaoMoedas"><path d="M227.54,805.5 C239.31,805.5 251.07,805.5 262.84,805.5 " fill="none" id="apoint23-DistribuicaoMoedas" style="stroke:#181818;stroke-width:1.0;stroke-dasharray:7.0,7.0;"/></g><!--SRC=[bLNRRjf047ttLspS1x14QFkA498JJ8eQmB9Db3UqjHUw5Tvrzn95hVhl7T_Nng4fBrwV6S-SCvVb9Y57oWYAtBj7RynmIYO9aR63uZEM4kK0mXBPEMYZ-HoDeyc7rSg5duCM2-kc-jx_Edvrq5mlNkSVTGklIfZcC5rOLfbcBpKMb4-GNPri1_ssK1w49iuChRSHl36UaXbwSeFxBsu0xoJ5z6m2ah3ls0GKpVWCUTlzPZno7_VRtMY2HdwmMtbXk0lo5s_Z1rxeZXpmJh32XrXG76FuAbfll31oDpvOz5dHb1zmJAJicFxK2jopPZd_ubcn1wswb7CmLCJPqQGeJXr9B262nDp480nbKb6bAH3hXD92TbmbFYVya7AIO5awDGHzmOyvUm4ac_F_44r8XeM2zZFrJdfNs7Xf9eZ4FXOneG83fnvodHdBVdIfIMXRsJNlEQfRcUMne9qpj7GZhqs-RkbwJDAYRnVO-oPme5rNKpzXfl29f92nFhuhqQN28rVye4Ld_cCjLRVWHGL9MLgpWWcL6MVqXS3tTxlTe-Tkhov0OS5AupFzrRSsuYA1cSojeAuv3yepztAv3gDWVRTVtxl5Ui8wFa3Dceti4lcfeMmqmGdfwKoveYzjUK2s82bHCAt450uur59H1f5xKmMcbwedBTo8kzSPpzjMF0T5nJoXf_vggBeEdUhdrJmHyKQTjUoXKa7fPLsm1ozmbqMfzc5ry9xzTG4wBU4Gv4ib272kZuEqCUFrCOEHvGdlqAICnfHNSrnXHvhs1tj98G7zLYpGfcWCvBq41nb0cRBwHkerH5RCJRWTWGxHn4ZM6y_gJmNPdsrqUuliJzCfd8gh-WrRSqE-OU_TLbOH2zdRqWSSBkuJgmbvtQqNkSaBtzGtXjKibncg9Zf3pU3_oz7S1DEtrDYg7KhSSIYMOa0XFEhPiyn_e1fqq7IABgVaBm00]--></g></svg>